SplineFontDB: 3.0
FontName: AlegreyaX-BoldItalic
FullName: Alegreya X Bold Italic
FamilyName: Alegreya X
Weight: Bold
Copyright: Copyright (c) 2011, Juan Pablo del Peral (juan@huertatipografica.com.ar), with Reserved Font Names "Alegreya" "Alegreya SC"
Version: 001.002
ItalicAngle: 0
UnderlinePosition: -59
UnderlineWidth: 56
Ascent: 800
Descent: 200
InvalidEm: 0
sfntRevision: 0x00010106
LayerCount: 2
Layer: 0 0 "Back" 1
Layer: 1 0 "Fore" 0
XUID: [1021 387 -636565393 374228]
FSType: 0
OS2Version: 2
OS2_WeightWidthSlopeOnly: 0
OS2_UseTypoMetrics: 1
CreationTime: 1325707237
ModificationTime: 1421852608
PfmFamily: 17
TTFWeight: 700
TTFWidth: 5
LineGap: 0
VLineGap: 0
Panose: 2 0 5 3 5 0 0 2 0 4
OS2TypoAscent: 1016
OS2TypoAOffset: 0
OS2TypoDescent: -345
OS2TypoDOffset: 0
OS2TypoLinegap: 0
OS2WinAscent: 1016
OS2WinAOffset: 0
OS2WinDescent: 345
OS2WinDOffset: 0
HheadAscent: 1016
HheadAOffset: 0
HheadDescent: -345
HheadDOffset: 0
OS2SubXSize: 700
OS2SubYSize: 650
OS2SubXOff: 0
OS2SubYOff: 140
OS2SupXSize: 700
OS2SupYSize: 650
OS2SupXOff: 0
OS2SupYOff: 477
OS2StrikeYSize: 50
OS2StrikeYPos: 250
OS2CapHeight: 0
OS2XHeight: 0
OS2FamilyClass: 258
OS2Vendor: 'pyrs'
OS2CodePages: 20000093.00000000
OS2UnicodeRanges: a00000ef.4000204b.00000000.00000000
Lookup: 258 0 0 "'kern' Horizontal Kerning lookup 0" { "'kern' Horizontal Kerning lookup 0 subtable"  } ['kern' ('DFLT' <'dflt' > ) ]
MarkAttachClasses: 1
DEI: 91125
LangName: 1033 "" "" "Bold Italic" "" "" "Version 1.003" "" "Alegreya is a trademark of Juan Pablo del Peral" "Juan Pablo del Peral" "Juan Pablo del Peral" "" "www.huertatipografica.com.ar" "www.huertatipografica.com.ar" "This Font Software is licensed under the SIL Open Font License, Version 1.1. This license is available with a FAQ at: http://scripts.sil.org/OFL" "http://scripts.sil.org/OFL"
Encoding: UnicodeBmp
UnicodeInterp: none
NameList: AGL For New Fonts
DisplaySize: -36
AntiAlias: 1
FitToEm: 1
WinInfo: 54 27 8
BeginPrivate: 4

StartChar: AE
Encoding: 198 198 1
Width: 844
Flags: MW
HStem: -8 21G<281 281> 0 78<396.5 629> 458 184 490 20G<364 379 364 364> 559 83<539 560.5 427.5 608> 578 64 634 20G<798 798>
LayerCount: 2
Back
Fore
SplineSet
288 60 m 1x60
 347 65 373 85 374 123 c 0
 375 133 376 145 376 157 c 2
 376 249 l 1
 291 239 l 1
 208 223 l 1
 155 125 l 2
 144 104 140 94 140 84 c 0
 140 67 152 63 190 63 c 1
 220 58 l 1
 206 -6 l 2
 205 -5 98 0 44 0 c 0
 13 0 -28 -3 -28 -3 c 1
 -25 56 l 1
 -12 59 16 86 42 130 c 2
 290 556 l 1
 288 572 282 578 268 578 c 0
 256 578 238 576 238 576 c 1
 232 585 l 1
 248 645 l 2
 248 644 369 642 486 642 c 0x54
 635 642 752 647 798 654 c 1x52
 805 643 l 1
 805 643 777 555 760 462 c 1
 669 455 l 1
 669 455 677 490 677 512 c 0
 677 551 656 559 560 559 c 0
 518 559 508 551 508 531 c 2
 512 349 l 1
 606 361 l 1
 701 380 l 1
 710 369 l 1
 688 286 l 1
 599 280 l 1
 513 269 l 1
 517 145 l 2
 518 98 535 78 576 78 c 0
 682 78 700 92 726 192 c 1
 811 199 l 1
 818 190 l 1
 818 190 789 100 768 4 c 1
 757 -7 l 2
 758 -6 580 0 436 0 c 0x58
 357 0 281 -8 281 -8 c 1xa0
 277 0 l 1
 288 60 l 1x60
257 317 m 1
 317 321 l 1
 378 329 l 1
 379 510 l 1
 364 510 l 1
 257 317 l 1
EndSplineSet
Validated: 33
EndChar

StartChar: Aacute
Encoding: 193 193 2
Width: 607
Flags: MW
HStem: -8 21G<294 294> 0 59<290 302> 209 76<268.5 292> 837 20G<492 492>
LayerCount: 2
Back
Fore
SplineSet
522 131 m 0x70
 530 83 546 67 588 62 c 1
 592 55 l 1
 578 -3 l 1
 578 -3 501 0 459 0 c 0x70
 376 0 294 -8 294 -8 c 1xb0
 290 0 l 1
 302 59 l 1
 367 64 381 72 381 101 c 0
 381 108 380 119 379 130 c 2
 370 207 l 1
 357 208 301 209 283 209 c 0
 254 209 203 204 190 202 c 1
 158 125 l 2
 151 108 148 98 148 88 c 0
 148 70 160 62 187 62 c 2
 229 62 l 1
 232 56 l 1
 218 -6 l 1
 218 -6 139 0 78 0 c 0
 25 0 -39 -3 -39 -3 c 1
 -24 63 l 1
 6 68 26 85 47 130 c 2
 277 636 l 1
 434 653 l 1
 445 648 l 1
 445 648 491 303 522 131 c 0x70
321 512 m 1
 225 285 l 1
 292 285 l 2
 313 285 341 287 363 289 c 1
 335 512 l 1
 321 512 l 1
530 775 m 1
 525 762 l 1
 525 762 410 733 296 697 c 1
 283 706 l 1
 269 753 l 1
 377 800 492 857 492 857 c 1
 505 852 l 1
 530 775 l 1
EndSplineSet
Validated: 1
EndChar

StartChar: acute.cap
Encoding: 65537 -1 3
Width: 384
Flags: MW
HStem: 697 21G<140 140> 837 20G<336 336>
LayerCount: 2
Back
Fore
SplineSet
374 775 m 1
 369 762 l 1
 369 762 254 733 140 697 c 1
 127 706 l 1
 113 753 l 1
 221 800 336 857 336 857 c 1
 349 852 l 1
 374 775 l 1
EndSplineSet
Validated: 1
EndChar

StartChar: Abreve
Encoding: 258 258 4
Width: 607
Flags: MW
HStem: -8 21G<294 294> 0 59<290 302> 209 76<268.5 292> 703 95<356.5 400.5 356.5 408.5> 837 20G<286 286 487 487>
LayerCount: 2
Back
Fore
SplineSet
522 131 m 0x78
 530 83 546 67 588 62 c 1
 592 55 l 1
 578 -3 l 1
 578 -3 501 0 459 0 c 0x78
 376 0 294 -8 294 -8 c 1xb8
 290 0 l 1
 302 59 l 1
 367 64 381 72 381 101 c 0
 381 108 380 119 379 130 c 2
 370 207 l 1
 357 208 301 209 283 209 c 0
 254 209 203 204 190 202 c 1
 158 125 l 2
 151 108 148 98 148 88 c 0
 148 70 160 62 187 62 c 2
 229 62 l 1
 232 56 l 1
 218 -6 l 1
 218 -6 139 0 78 0 c 0
 25 0 -39 -3 -39 -3 c 1
 -24 63 l 1
 6 68 26 85 47 130 c 2
 277 636 l 1
 434 653 l 1
 445 648 l 1
 445 648 491 303 522 131 c 0x78
321 512 m 1
 225 285 l 1
 292 285 l 2
 313 285 341 287 363 289 c 1
 335 512 l 1
 321 512 l 1
378 798 m 0
 423 798 464 817 487 857 c 1
 503 854 l 1
 526 819 l 1
 502 761 450 703 367 703 c 0
 284 703 246 761 236 819 c 1
 269 854 l 1
 286 857 l 1
 299 817 335 798 378 798 c 0
EndSplineSet
Validated: 1
EndChar

StartChar: breve.cap
Encoding: 65538 -1 5
Width: 384
Flags: MW
HStem: 684 95<238.5 282.5 238.5 290.5> 818 20G<168 168 369 369>
LayerCount: 2
Back
Fore
SplineSet
260 779 m 0
 305 779 346 798 369 838 c 1
 385 835 l 1
 408 800 l 1
 384 742 332 684 249 684 c 0
 166 684 128 742 118 800 c 1
 151 835 l 1
 168 838 l 1
 181 798 217 779 260 779 c 0
EndSplineSet
Validated: 1
EndChar

StartChar: Acircumflex
Encoding: 194 194 6
Width: 607
Flags: MW
HStem: -8 21G<294 294> 0 59<290 302> 209 76<268.5 292>
LayerCount: 2
Back
Fore
SplineSet
522 131 m 0x60
 530 83 546 67 588 62 c 1
 592 55 l 1
 578 -3 l 1
 578 -3 501 0 459 0 c 0x60
 376 0 294 -8 294 -8 c 1xa0
 290 0 l 1
 302 59 l 1
 367 64 381 72 381 101 c 0
 381 108 380 119 379 130 c 2
 370 207 l 1
 357 208 301 209 283 209 c 0
 254 209 203 204 190 202 c 1
 158 125 l 2
 151 108 148 98 148 88 c 0
 148 70 160 62 187 62 c 2
 229 62 l 1
 232 56 l 1
 218 -6 l 1
 218 -6 139 0 78 0 c 0
 25 0 -39 -3 -39 -3 c 1
 -24 63 l 1
 6 68 26 85 47 130 c 2
 277 636 l 1
 434 653 l 1
 445 648 l 1
 445 648 491 303 522 131 c 0x60
321 512 m 1
 225 285 l 1
 292 285 l 2
 313 285 341 287 363 289 c 1
 335 512 l 1
 321 512 l 1
231 711 m 1
 212 752 l 1
 255 781 380 876 380 876 c 1
 400 876 l 2
 400 879 502 782 537 752 c 1
 508 711 l 1
 491 707 l 1
 472 716 389 760 376 765 c 1
 361 760 269 716 246 707 c 1
 231 711 l 1
EndSplineSet
Validated: 33
EndChar

StartChar: circumflex.cap
Encoding: 65539 -1 7
Width: 384
Flags: MW
HStem: 707 21G<127 127 372 372>
LayerCount: 2
Back
Fore
SplineSet
112 711 m 1
 93 752 l 1
 136 781 261 876 261 876 c 1
 281 876 l 2
 281 879 383 782 418 752 c 1
 389 711 l 1
 372 707 l 1
 353 716 270 760 257 765 c 1
 242 760 150 716 127 707 c 1
 112 711 l 1
EndSplineSet
Validated: 33
EndChar

StartChar: Adieresis
Encoding: 196 196 8
Width: 607
Flags: MW
HStem: -8 21G<294 294> 0 59<290 302> 209 76<268.5 292> 711 128<280 301 453.5 474>
LayerCount: 2
Back
Fore
SplineSet
522 131 m 0x70
 530 83 546 67 588 62 c 1
 592 55 l 1
 578 -3 l 1
 578 -3 501 0 459 0 c 0x70
 376 0 294 -8 294 -8 c 1xb0
 290 0 l 1
 302 59 l 1
 367 64 381 72 381 101 c 0
 381 108 380 119 379 130 c 2
 370 207 l 1
 357 208 301 209 283 209 c 0
 254 209 203 204 190 202 c 1
 158 125 l 2
 151 108 148 98 148 88 c 0
 148 70 160 62 187 62 c 2
 229 62 l 1
 232 56 l 1
 218 -6 l 1
 218 -6 139 0 78 0 c 0
 25 0 -39 -3 -39 -3 c 1
 -24 63 l 1
 6 68 26 85 47 130 c 2
 277 636 l 1
 434 653 l 1
 445 648 l 1
 445 648 491 303 522 131 c 0x70
321 512 m 1
 225 285 l 1
 292 285 l 2
 313 285 341 287 363 289 c 1
 335 512 l 1
 321 512 l 1
452 711 m 0
 418 711 400 732 400 763 c 0
 400 807 432 839 475 839 c 0
 509 839 527 818 527 787 c 0
 527 744 496 711 452 711 c 0
279 711 m 0
 244 711 227 732 227 763 c 0
 227 807 258 839 302 839 c 0
 336 839 354 818 354 787 c 0
 354 744 323 711 279 711 c 0
EndSplineSet
Validated: 1
EndChar

StartChar: dieresis.cap
Encoding: 65540 -1 9
Width: 384
Flags: MW
HStem: 706 128<161 182 334.5 355>
LayerCount: 2
Back
Fore
SplineSet
333 706 m 0
 299 706 281 727 281 758 c 0
 281 802 313 834 356 834 c 0
 390 834 408 813 408 782 c 0
 408 739 377 706 333 706 c 0
160 706 m 0
 125 706 108 727 108 758 c 0
 108 802 139 834 183 834 c 0
 217 834 235 813 235 782 c 0
 235 739 204 706 160 706 c 0
EndSplineSet
Validated: 1
EndChar

StartChar: Agrave
Encoding: 192 192 10
Width: 607
Flags: MW
HStem: -8 21G<294 294> 0 59<290 302> 209 76<268.5 292> 837 20G<262 262>
LayerCount: 2
Back
Fore
SplineSet
522 131 m 0x70
 530 83 546 67 588 62 c 1
 592 55 l 1
 578 -3 l 1
 578 -3 501 0 459 0 c 0x70
 376 0 294 -8 294 -8 c 1xb0
 290 0 l 1
 302 59 l 1
 367 64 381 72 381 101 c 0
 381 108 380 119 379 130 c 2
 370 207 l 1
 357 208 301 209 283 209 c 0
 254 209 203 204 190 202 c 1
 158 125 l 2
 151 108 148 98 148 88 c 0
 148 70 160 62 187 62 c 2
 229 62 l 1
 232 56 l 1
 218 -6 l 1
 218 -6 139 0 78 0 c 0
 25 0 -39 -3 -39 -3 c 1
 -24 63 l 1
 6 68 26 85 47 130 c 2
 277 636 l 1
 434 653 l 1
 445 648 l 1
 445 648 491 303 522 131 c 0x70
321 512 m 1
 225 285 l 1
 292 285 l 2
 313 285 341 287 363 289 c 1
 335 512 l 1
 321 512 l 1
229 762 m 1
 224 775 l 1
 249 852 l 1
 262 857 l 1
 262 857 377 800 485 753 c 1
 472 706 l 1
 458 697 l 1
 344 733 229 762 229 762 c 1
EndSplineSet
Validated: 1
EndChar

StartChar: grave.cap
Encoding: 65541 -1 11
Width: 384
Flags: MW
HStem: 697 21G<292 292> 837 20G<96 96>
LayerCount: 2
Back
Fore
SplineSet
63 762 m 1
 58 775 l 1
 83 852 l 1
 96 857 l 1
 96 857 211 800 319 753 c 1
 306 706 l 1
 292 697 l 1
 178 733 63 762 63 762 c 1
EndSplineSet
Validated: 1
EndChar

StartChar: Amacron
Encoding: 256 256 12
Width: 607
Flags: MW
HStem: -8 21G<294 294> 0 59<290 302> 209 76<268.5 292> 713 86<341.5 422.5> 785 20G<521 521>
LayerCount: 2
Back
Fore
SplineSet
522 131 m 0x70
 530 83 546 67 588 62 c 1
 592 55 l 1
 578 -3 l 1
 578 -3 501 0 459 0 c 0x68
 376 0 294 -8 294 -8 c 1xb0
 290 0 l 1
 302 59 l 1
 367 64 381 72 381 101 c 0
 381 108 380 119 379 130 c 2
 370 207 l 1
 357 208 301 209 283 209 c 0
 254 209 203 204 190 202 c 1
 158 125 l 2
 151 108 148 98 148 88 c 0
 148 70 160 62 187 62 c 2
 229 62 l 1
 232 56 l 1
 218 -6 l 1
 218 -6 139 0 78 0 c 0
 25 0 -39 -3 -39 -3 c 1
 -24 63 l 1
 6 68 26 85 47 130 c 2
 277 636 l 1
 434 653 l 1
 445 648 l 1
 445 648 491 303 522 131 c 0x70
321 512 m 1
 225 285 l 1
 292 285 l 2
 313 285 341 287 363 289 c 1
 335 512 l 1
 321 512 l 1
521 805 m 1
 528 791 l 1
 506 714 l 1
 370 713 l 2
 313 713 236 712 236 712 c 1
 227 724 l 1
 250 800 l 1
 250 800 342 799 398 799 c 0x70
 447 799 521 805 521 805 c 1
EndSplineSet
Validated: 1
EndChar

StartChar: macron.cap
Encoding: 65542 -1 13
Width: 384
Flags: MW
HStem: 712 21G<118 118> 713 86<223.5 304.5> 785 20G<403 403>
LayerCount: 2
Back
Fore
SplineSet
403 805 m 1xa0
 410 791 l 1
 388 714 l 1
 252 713 l 2x40
 195 713 118 712 118 712 c 1xa0
 109 724 l 1
 132 800 l 1
 132 800 224 799 280 799 c 0x40
 329 799 403 805 403 805 c 1xa0
EndSplineSet
Validated: 1
EndChar

StartChar: Aogonek
Encoding: 260 260 14
Width: 607
Flags: MW
HStem: -242 72<438.5 507.5> 0 59<290 302> 209 76<268.5 292> 633 20G<434 434>
LayerCount: 2
Back
Fore
SplineSet
563 -146 m 1
 578 -175 l 1
 578 -175 521 -225 471 -242 c 1
 406 -242 365 -212 365 -161 c 0
 365 -113 400 -69 472 0 c 1
 459 0 l 2
 376 0 294 -8 294 -8 c 1
 290 0 l 1
 302 59 l 1
 367 64 381 72 381 101 c 0
 381 108 380 119 379 130 c 2
 370 207 l 1
 357 208 301 209 283 209 c 0
 254 209 203 204 190 202 c 1
 158 125 l 2
 151 108 148 98 148 88 c 0
 148 70 160 62 187 62 c 2
 229 62 l 1
 232 56 l 1
 218 -6 l 1
 218 -6 139 0 78 0 c 0
 25 0 -39 -3 -39 -3 c 1
 -24 63 l 1
 6 68 26 85 47 130 c 2
 277 636 l 1
 434 653 l 1
 445 648 l 1
 445 648 491 303 522 131 c 0
 530 83 546 67 588 62 c 1
 592 55 l 1
 578 -3 l 1
 578 -3 556 -2 531 -1 c 1
 468 -69 450 -95 450 -129 c 0
 450 -153 466 -170 491 -170 c 0
 524 -170 563 -146 563 -146 c 1
321 512 m 1
 225 285 l 1
 292 285 l 2
 313 285 341 287 363 289 c 1
 335 512 l 1
 321 512 l 1
EndSplineSet
Validated: 1
EndChar

StartChar: ogonek
Encoding: 731 731 15
Width: 385
Flags: MW
HStem: -241 72<107.5 176.5> 22 20G<186 240 240 240>
LayerCount: 2
Back
Fore
SplineSet
232 -145 m 1
 247 -174 l 1
 247 -174 190 -224 140 -241 c 1
 75 -241 34 -211 34 -160 c 0
 34 -103 83 -52 186 42 c 1
 240 42 l 1
 144 -59 119 -88 119 -128 c 0
 119 -152 135 -169 160 -169 c 0
 193 -169 232 -145 232 -145 c 1
EndSplineSet
Validated: 1
EndChar

StartChar: Aring
Encoding: 197 197 16
Width: 607
Flags: MW
HStem: -8 21G<294 294> 0 59<290 302> 209 76<268.5 292> 678 186<362 395.5> 711 20G<367 382.5> 809 55<365.5 392>
LayerCount: 2
Back
Fore
SplineSet
522 131 m 0x70
 530 83 546 67 588 62 c 1
 592 55 l 1
 578 -3 l 1
 578 -3 501 0 459 0 c 0x6c
 376 0 294 -8 294 -8 c 1xb0
 290 0 l 1
 302 59 l 1
 367 64 381 72 381 101 c 0
 381 108 380 119 379 130 c 2
 370 207 l 1
 357 208 301 209 283 209 c 0
 254 209 203 204 190 202 c 1
 158 125 l 2
 151 108 148 98 148 88 c 0
 148 70 160 62 187 62 c 2
 229 62 l 1
 232 56 l 1
 218 -6 l 1
 218 -6 139 0 78 0 c 0
 25 0 -39 -3 -39 -3 c 1
 -24 63 l 1
 6 68 26 85 47 130 c 2
 277 636 l 1
 434 653 l 1
 445 648 l 1
 445 648 491 303 522 131 c 0x70
321 512 m 1
 225 285 l 1
 292 285 l 2
 313 285 341 287 363 289 c 1
 335 512 l 1
 321 512 l 1
375 731 m 0
 390 731 419 737 419 773 c 0
 419 795 405 809 379 809 c 0
 352 809 337 792 337 768 c 0
 337 741 359 731 375 731 c 0
362 678 m 0x70
 312 678 286 710 286 756 c 0
 286 817 331 864 393 864 c 0
 449 864 470 828 470 789 c 0
 470 733 429 678 362 678 c 0x70
EndSplineSet
Validated: 1
EndChar

StartChar: ring.cap
Encoding: 65543 -1 17
Width: 384
Flags: MW
HStem: 678 186<243 276.5> 711 20G<248 263.5> 809 55<246.5 273>
LayerCount: 2
Back
Fore
SplineSet
256 731 m 0x60
 271 731 300 737 300 773 c 0
 300 795 286 809 260 809 c 0
 233 809 218 792 218 768 c 0
 218 741 240 731 256 731 c 0x60
243 678 m 0x80
 193 678 167 710 167 756 c 0
 167 817 212 864 274 864 c 0
 330 864 351 828 351 789 c 0
 351 733 310 678 243 678 c 0x80
EndSplineSet
Validated: 1
EndChar

StartChar: Atilde
Encoding: 195 195 18
Width: 607
Flags: MW
HStem: -8 21G<294 294> 0 59<290 302> 209 76<268.5 292> 705 96<437 453> 739 96<303 319.5 303 327> 833 20G<513 524 524 524>
LayerCount: 2
Back
Fore
SplineSet
522 131 m 0x74
 530 83 546 67 588 62 c 1
 592 55 l 1
 578 -3 l 1
 578 -3 501 0 459 0 c 0x68
 376 0 294 -8 294 -8 c 1xb4
 290 0 l 1
 302 59 l 1
 367 64 381 72 381 101 c 0
 381 108 380 119 379 130 c 2
 370 207 l 1
 357 208 301 209 283 209 c 0
 254 209 203 204 190 202 c 1
 158 125 l 2
 151 108 148 98 148 88 c 0
 148 70 160 62 187 62 c 2
 229 62 l 1
 232 56 l 1
 218 -6 l 1
 218 -6 139 0 78 0 c 0
 25 0 -39 -3 -39 -3 c 1
 -24 63 l 1
 6 68 26 85 47 130 c 2
 277 636 l 1
 434 653 l 1
 445 648 l 1
 445 648 491 303 522 131 c 0x74
321 512 m 1
 225 285 l 1
 292 285 l 2
 313 285 341 287 363 289 c 1
 335 512 l 1
 321 512 l 1
244 687 m 1
 233 687 l 1
 198 724 l 1
 199 735 l 1
 287 831 l 1
 303 835 l 1x68
 336 835 416 801 444 801 c 0
 467 801 513 853 513 853 c 1
 524 853 l 1
 559 816 l 1
 558 806 l 1
 470 709 l 1
 453 705 l 1x74
 421 705 341 739 313 739 c 0
 289 739 244 687 244 687 c 1
EndSplineSet
Validated: 1
EndChar

StartChar: tilde.cap
Encoding: 65544 -1 19
Width: 384
Flags: MW
HStem: 687 21G<114 125 114 114> 705 96<318 334> 739 96<184 200.5 184 208> 833 20G<394 405 405 405>
LayerCount: 2
Back
Fore
SplineSet
125 687 m 1xa0
 114 687 l 1
 79 724 l 1
 80 735 l 1
 168 831 l 1
 184 835 l 1xa0
 217 835 297 801 325 801 c 0
 348 801 394 853 394 853 c 1
 405 853 l 1
 440 816 l 1
 439 806 l 1
 351 709 l 1
 334 705 l 1x50
 302 705 222 739 194 739 c 0
 170 739 125 687 125 687 c 1xa0
EndSplineSet
Validated: 1
EndChar

StartChar: B
Encoding: 66 66 20
Width: 607
Flags: MW
HStem: -10 84<297 345 278 378.5> 0 21G<121 168.5> 566 81<305 438.5> 578 69
LayerCount: 2
Back
Fore
SplineSet
149 0 m 0x60
 93 0 5 -10 5 -10 c 1
 20 56 l 1
 77 67 95 84 101 136 c 2
 150 528 l 2
 154 565 148 578 125 578 c 0
 114 578 92 576 92 576 c 1
 86 584 l 1
 103 644 l 1
 103 644 203 641 237 641 c 0
 270 641 377 647 377 647 c 1
 500 647 574 598 574 511 c 0
 574 439 531 381 450 339 c 1
 526 315 569 266 569 203 c 0
 569 76 460 -10 297 -10 c 0x90
 263 -9 188 0 149 0 c 0x60
338 282 m 1
 250 281 l 1
 227 133 l 2
 221 91 245 74 311 74 c 0xa0
 379 74 422 118 422 187 c 0
 422 235 394 269 338 282 c 1
262 368 m 1
 262 368 335 359 352 359 c 1
 352 359 432 387 432 481 c 0
 432 539 394 566 312 566 c 0
 298 566 295 562 292 548 c 0
 281 492 269 414 262 368 c 1
EndSplineSet
Validated: 33
EndChar

StartChar: C
Encoding: 67 67 21
Width: 594
Flags: MW
HStem: -12 92<276.5 353.5 276.5 354> 425 228 559 94<311 400>
LayerCount: 2
Back
Fore
SplineSet
294 -12 m 0xa0
 132 -12 32 89 32 256 c 0
 32 498 177 653 402 653 c 0
 483 653 599 629 599 629 c 1
 603 616 l 1
 603 616 573 533 554 428 c 1
 457 422 l 1
 457 422 466 469 466 488 c 0
 466 535 433 559 367 559 c 0
 255 559 188 460 188 275 c 0
 188 149 234 80 319 80 c 0
 388 80 428 118 457 218 c 1
 554 225 l 1
 554 225 525 122 512 40 c 1
 502 28 l 1
 502 28 414 -12 294 -12 c 0xa0
EndSplineSet
Validated: 8388609
EndChar

StartChar: Cacute
Encoding: 262 262 22
Width: 594
Flags: MW
HStem: -12 92<276.5 353.5 276.5 354> 425 228 559 94<311 400> 837 20G<498 498>
LayerCount: 2
Back
Fore
SplineSet
294 -12 m 0xb0
 132 -12 32 89 32 256 c 0
 32 498 177 653 402 653 c 0
 483 653 599 629 599 629 c 1
 603 616 l 1
 603 616 573 533 554 428 c 1
 457 422 l 1
 457 422 466 469 466 488 c 0
 466 535 433 559 367 559 c 0
 255 559 188 460 188 275 c 0
 188 149 234 80 319 80 c 0
 388 80 428 118 457 218 c 1
 554 225 l 1
 554 225 525 122 512 40 c 1
 502 28 l 1
 502 28 414 -12 294 -12 c 0xb0
536 775 m 1
 531 762 l 1
 531 762 416 733 302 697 c 1
 289 706 l 1
 275 753 l 1
 383 800 498 857 498 857 c 1
 511 852 l 1
 536 775 l 1
EndSplineSet
Validated: 8388609
EndChar

StartChar: Ccaron
Encoding: 268 268 23
Width: 594
Flags: MW
HStem: -12 92<276.5 353.5 276.5 354> 425 228 559 94<311 400> 845 20G<291 291 536 536>
LayerCount: 2
Back
Fore
SplineSet
294 -12 m 0xb0
 132 -12 32 89 32 256 c 0
 32 498 177 653 402 653 c 0
 483 653 599 629 599 629 c 1
 603 616 l 1
 603 616 573 533 554 428 c 1
 457 422 l 1
 457 422 466 469 466 488 c 0
 466 535 433 559 367 559 c 0
 255 559 188 460 188 275 c 0
 188 149 234 80 319 80 c 0
 388 80 428 118 457 218 c 1
 554 225 l 1
 554 225 525 122 512 40 c 1
 502 28 l 1
 502 28 414 -12 294 -12 c 0xb0
551 861 m 1
 571 820 l 1
 528 791 402 696 402 696 c 1
 383 696 l 1
 383 696 281 791 246 820 c 1
 274 861 l 1
 291 865 l 1
 311 856 393 812 406 807 c 1
 421 812 513 856 536 865 c 1
 551 861 l 1
EndSplineSet
Validated: 8388609
EndChar

StartChar: caron.cap
Encoding: 65545 -1 24
Width: 384
Flags: MW
HStem: 696 21G<239 258 239 239> 845 20G<147 147 392 392>
LayerCount: 2
Back
Fore
SplineSet
407 861 m 1
 427 820 l 1
 384 791 258 696 258 696 c 1
 239 696 l 1
 239 696 137 791 102 820 c 1
 130 861 l 1
 147 865 l 1
 167 856 249 812 262 807 c 1
 277 812 369 856 392 865 c 1
 407 861 l 1
EndSplineSet
Validated: 1
EndChar

StartChar: Ccedilla
Encoding: 199 199 25
Width: 594
Flags: MW
HStem: -238 52<255 279.5> -150 20G<218 226 226 226> -11 91<265 353.5 317 317> 425 228 559 94<311 400>
LayerCount: 2
Back
Fore
SplineSet
236 -86 m 1xe8
 265 -11 l 1
 120 0 32 99 32 256 c 0
 32 498 177 653 402 653 c 0
 483 653 599 629 599 629 c 1
 603 616 l 1
 603 616 573 533 554 428 c 1
 457 422 l 1
 457 422 466 469 466 488 c 0
 466 535 433 559 367 559 c 0
 255 559 188 460 188 275 c 0
 188 149 234 80 319 80 c 0
 388 80 428 118 457 218 c 1
 554 225 l 1
 554 225 525 122 512 40 c 1
 502 28 l 1
 502 28 425 -7 317 -11 c 1
 304 -44 l 1
 337 -64 388 -98 388 -136 c 0
 388 -191 315 -238 244 -238 c 0
 212 -238 172 -222 172 -196 c 0
 172 -181 200 -149 218 -130 c 1
 226 -130 l 1
 223 -167 241 -186 269 -186 c 0
 293 -186 311 -173 311 -154 c 0
 311 -133 270 -106 236 -86 c 1xe8
EndSplineSet
Validated: 8388641
EndChar

StartChar: cedilla
Encoding: 184 184 26
Width: 387
Flags: MW
HStem: -238 52<116 140.5> -150 20G<79 87 87 87> 9 20G<142 194 194 194>
LayerCount: 2
Back
Fore
SplineSet
97 -86 m 1
 142 29 l 1
 194 29 l 1
 165 -44 l 1
 198 -64 249 -98 249 -136 c 0
 249 -191 176 -238 105 -238 c 0
 73 -238 33 -222 33 -196 c 0
 33 -181 61 -149 79 -130 c 1
 87 -130 l 1
 84 -167 102 -186 130 -186 c 0
 154 -186 172 -173 172 -154 c 0
 172 -133 131 -106 97 -86 c 1
EndSplineSet
Validated: 33
EndChar

StartChar: Cdotaccent
Encoding: 266 266 27
Width: 594
Flags: MW
HStem: -12 92<276.5 353.5 276.5 354> 425 228 559 94<311 400> 702 152<397 421.5>
LayerCount: 2
Back
Fore
SplineSet
294 -12 m 0xb0
 132 -12 32 89 32 256 c 0
 32 498 177 653 402 653 c 0
 483 653 599 629 599 629 c 1
 603 616 l 1
 603 616 573 533 554 428 c 1
 457 422 l 1
 457 422 466 469 466 488 c 0
 466 535 433 559 367 559 c 0
 255 559 188 460 188 275 c 0
 188 149 234 80 319 80 c 0
 388 80 428 118 457 218 c 1
 554 225 l 1
 554 225 525 122 512 40 c 1
 502 28 l 1
 502 28 414 -12 294 -12 c 0xb0
396 702 m 0
 354 702 333 727 333 764 c 0
 333 816 371 854 423 854 c 0
 463 854 484 829 484 792 c 0
 484 740 447 702 396 702 c 0
EndSplineSet
Validated: 8388609
EndChar

StartChar: dotaccent.cap
Encoding: 65546 -1 28
Width: 384
Flags: MW
HStem: 702 152<247 271.5>
LayerCount: 2
Back
Fore
SplineSet
246 702 m 0
 204 702 183 727 183 764 c 0
 183 816 221 854 273 854 c 0
 313 854 334 829 334 792 c 0
 334 740 297 702 246 702 c 0
EndSplineSet
Validated: 1
EndChar

StartChar: D
Encoding: 68 68 29
Width: 668
Flags: MW
HStem: -12 84<283 362.5 272 391> 0 72 562 84<372 381.5> 577 69
LayerCount: 2
Back
Fore
SplineSet
283 -12 m 1x90
 283 -12 188 0 133 0 c 0x60
 82 0 7 -10 7 -10 c 1
 22 57 l 1
 77 67 94 85 102 141 c 2
 149 523 l 2
 154 566 149 577 126 577 c 0
 113 577 93 575 93 575 c 1
 89 584 l 1
 104 644 l 1
 104 644 189 641 227 641 c 0
 272 641 372 646 372 646 c 1
 547 646 659 550 659 388 c 0
 659 159 499 -12 283 -12 c 1x90
320 562 m 0
 299 562 293 557 290 538 c 0
 264 379 227 149 227 125 c 0
 227 84 245 72 299 72 c 0
 426 72 504 188 504 376 c 0
 504 501 443 562 320 562 c 0
EndSplineSet
Validated: 33
EndChar

StartChar: Dcaron
Encoding: 270 270 30
Width: 667
Flags: MW
HStem: -12 84<283 362.5 272 391> 0 72 562 84<372 381.5> 577 69 845 20G<277 277 522 522>
LayerCount: 2
Back
Fore
SplineSet
283 -12 m 1x98
 283 -12 188 0 133 0 c 0x68
 82 0 7 -10 7 -10 c 1
 22 57 l 1
 77 67 94 85 102 141 c 2
 149 523 l 2
 154 566 149 577 126 577 c 0
 113 577 93 575 93 575 c 1
 89 584 l 1
 104 644 l 1
 104 644 189 641 227 641 c 0
 272 641 372 646 372 646 c 1
 547 646 659 550 659 388 c 0
 659 159 499 -12 283 -12 c 1x98
320 562 m 0
 299 562 293 557 290 538 c 0
 264 379 227 149 227 125 c 0
 227 84 245 72 299 72 c 0
 426 72 504 188 504 376 c 0
 504 501 443 562 320 562 c 0
537 861 m 1
 557 820 l 1
 514 791 388 696 388 696 c 1
 369 696 l 1
 369 696 267 791 232 820 c 1
 260 861 l 1
 277 865 l 1
 297 856 379 812 392 807 c 1
 407 812 499 856 522 865 c 1
 537 861 l 1
EndSplineSet
Validated: 33
EndChar

StartChar: E
Encoding: 69 69 31
Width: 576
Flags: MW
HStem: -10 21G<5 5> 0 77<132 341> 286 82<338 346> 459 182 560 81<320.5 351 246 389> 578 63 633 20G<578 578>
LayerCount: 2
Back
Fore
SplineSet
225 114 m 0x68
 225 81 238 77 282 77 c 0
 400 77 419 90 446 191 c 1
 529 198 l 1
 535 188 l 1
 535 188 506 99 485 3 c 1
 474 -7 l 1
 474 -7 295 0 175 0 c 0x70
 89 0 5 -10 5 -10 c 1
 21 57 l 1
 75 65 93 84 100 142 c 2
 148 524 l 2
 153 567 149 578 124 578 c 0
 113 578 94 576 94 576 c 1
 89 585 l 1
 104 644 l 1
 104 644 210 641 282 641 c 0xa4
 420 641 518 645 578 653 c 1x62
 584 643 l 1
 584 643 556 555 540 462 c 1
 450 456 l 1
 450 456 458 491 458 513 c 0
 458 554 435 560 343 560 c 0
 298 560 293 557 288 527 c 2
 262 369 l 1
 282 369 324 368 352 368 c 0
 383 368 465 376 465 376 c 1
 471 368 l 1
 447 283 l 1
 447 283 370 286 322 286 c 0
 294 286 265 282 248 280 c 1
 237 205 225 142 225 114 c 0x68
EndSplineSet
Validated: 33
EndChar

StartChar: Eacute
Encoding: 201 201 32
Width: 577
Flags: MW
HStem: -10 21G<5 5> 0 77<132 341> 286 82<338 346> 459 182 560 81<320.5 351 246 389> 578 63 837 20G<462 462>
LayerCount: 2
Back
Fore
SplineSet
225 114 m 0x6a
 225 81 238 77 282 77 c 0
 400 77 419 90 446 191 c 1
 529 198 l 1
 535 188 l 1
 535 188 506 99 485 3 c 1
 474 -7 l 1
 474 -7 295 0 175 0 c 0x72
 89 0 5 -10 5 -10 c 1
 21 57 l 1
 75 65 93 84 100 142 c 2
 148 524 l 2
 153 567 149 578 124 578 c 0xa6
 113 578 94 576 94 576 c 1
 89 585 l 1
 104 644 l 1
 104 644 210 641 282 641 c 0
 420 641 518 645 578 653 c 1
 584 643 l 1
 584 643 556 555 540 462 c 1
 450 456 l 1
 450 456 458 491 458 513 c 0
 458 554 435 560 343 560 c 0
 298 560 293 557 288 527 c 2
 262 369 l 1
 282 369 324 368 352 368 c 0
 383 368 465 376 465 376 c 1
 471 368 l 1
 447 283 l 1
 447 283 370 286 322 286 c 0
 294 286 265 282 248 280 c 1
 237 205 225 142 225 114 c 0x6a
500 775 m 1
 495 762 l 1
 495 762 380 733 266 697 c 1
 253 706 l 1
 239 753 l 1
 347 800 462 857 462 857 c 1
 475 852 l 1
 500 775 l 1
EndSplineSet
Validated: 33
EndChar

StartChar: Ecaron
Encoding: 282 282 33
Width: 577
Flags: MW
HStem: -10 21G<5 5> 0 77<132 341> 286 82<338 346> 459 182 560 81<320.5 351 246 389> 578 63 845 20G<266 266 511 511>
LayerCount: 2
Back
Fore
SplineSet
225 114 m 0x6a
 225 81 238 77 282 77 c 0
 400 77 419 90 446 191 c 1
 529 198 l 1
 535 188 l 1
 535 188 506 99 485 3 c 1
 474 -7 l 1
 474 -7 295 0 175 0 c 0x72
 89 0 5 -10 5 -10 c 1
 21 57 l 1
 75 65 93 84 100 142 c 2
 148 524 l 2
 153 567 149 578 124 578 c 0xa6
 113 578 94 576 94 576 c 1
 89 585 l 1
 104 644 l 1
 104 644 210 641 282 641 c 0
 420 641 518 645 578 653 c 1
 584 643 l 1
 584 643 556 555 540 462 c 1
 450 456 l 1
 450 456 458 491 458 513 c 0
 458 554 435 560 343 560 c 0
 298 560 293 557 288 527 c 2
 262 369 l 1
 282 369 324 368 352 368 c 0
 383 368 465 376 465 376 c 1
 471 368 l 1
 447 283 l 1
 447 283 370 286 322 286 c 0
 294 286 265 282 248 280 c 1
 237 205 225 142 225 114 c 0x6a
526 861 m 1
 546 820 l 1
 503 791 377 696 377 696 c 1
 358 696 l 1
 358 696 256 791 221 820 c 1
 249 861 l 1
 266 865 l 1
 286 856 368 812 381 807 c 1
 396 812 488 856 511 865 c 1
 526 861 l 1
EndSplineSet
Validated: 33
EndChar

StartChar: Ecircumflex
Encoding: 202 202 34
Width: 577
Flags: MW
HStem: -10 21G<5 5> 0 77<132 341> 286 82<338 346> 459 182 560 81<320.5 351 246 389> 578 63
LayerCount: 2
Back
Fore
SplineSet
225 114 m 0x68
 225 81 238 77 282 77 c 0
 400 77 419 90 446 191 c 1
 529 198 l 1
 535 188 l 1
 535 188 506 99 485 3 c 1
 474 -7 l 1
 474 -7 295 0 175 0 c 0x70
 89 0 5 -10 5 -10 c 1
 21 57 l 1
 75 65 93 84 100 142 c 2
 148 524 l 2
 153 567 149 578 124 578 c 0xa4
 113 578 94 576 94 576 c 1
 89 585 l 1
 104 644 l 1
 104 644 210 641 282 641 c 0
 420 641 518 645 578 653 c 1
 584 643 l 1
 584 643 556 555 540 462 c 1
 450 456 l 1
 450 456 458 491 458 513 c 0
 458 554 435 560 343 560 c 0
 298 560 293 557 288 527 c 2
 262 369 l 1
 282 369 324 368 352 368 c 0
 383 368 465 376 465 376 c 1
 471 368 l 1
 447 283 l 1
 447 283 370 286 322 286 c 0
 294 286 265 282 248 280 c 1
 237 205 225 142 225 114 c 0x68
232 711 m 1
 213 752 l 1
 256 781 381 876 381 876 c 1
 401 876 l 2
 401 879 503 782 538 752 c 1
 509 711 l 1
 492 707 l 1
 473 716 390 760 377 765 c 1
 362 760 270 716 247 707 c 1
 232 711 l 1
EndSplineSet
Validated: 33
EndChar

StartChar: Edieresis
Encoding: 203 203 35
Width: 577
Flags: MW
HStem: -10 21G<5 5> 0 77<132 341> 286 82<338 346> 459 182 560 81<320.5 351 246 389> 578 63 711 128<280 301 453.5 474>
LayerCount: 2
Back
Fore
SplineSet
225 114 m 0x6a
 225 81 238 77 282 77 c 0
 400 77 419 90 446 191 c 1
 529 198 l 1
 535 188 l 1
 535 188 506 99 485 3 c 1
 474 -7 l 1
 474 -7 295 0 175 0 c 0x72
 89 0 5 -10 5 -10 c 1
 21 57 l 1
 75 65 93 84 100 142 c 2
 148 524 l 2
 153 567 149 578 124 578 c 0xa6
 113 578 94 576 94 576 c 1
 89 585 l 1
 104 644 l 1
 104 644 210 641 282 641 c 0
 420 641 518 645 578 653 c 1
 584 643 l 1
 584 643 556 555 540 462 c 1
 450 456 l 1
 450 456 458 491 458 513 c 0
 458 554 435 560 343 560 c 0
 298 560 293 557 288 527 c 2
 262 369 l 1
 282 369 324 368 352 368 c 0
 383 368 465 376 465 376 c 1
 471 368 l 1
 447 283 l 1
 447 283 370 286 322 286 c 0
 294 286 265 282 248 280 c 1
 237 205 225 142 225 114 c 0x6a
452 711 m 0
 418 711 400 732 400 763 c 0
 400 807 432 839 475 839 c 0
 509 839 527 818 527 787 c 0
 527 744 496 711 452 711 c 0
279 711 m 0
 244 711 227 732 227 763 c 0
 227 807 258 839 302 839 c 0
 336 839 354 818 354 787 c 0
 354 744 323 711 279 711 c 0
EndSplineSet
Validated: 33
EndChar

StartChar: Edotaccent
Encoding: 278 278 36
Width: 577
Flags: MW
HStem: -10 21G<5 5> 0 77<132 341> 286 82<338 346> 459 182 560 81<320.5 351 246 389> 578 63 702 152<367 391.5>
LayerCount: 2
Back
Fore
SplineSet
225 114 m 0x6a
 225 81 238 77 282 77 c 0
 400 77 419 90 446 191 c 1
 529 198 l 1
 535 188 l 1
 535 188 506 99 485 3 c 1
 474 -7 l 1
 474 -7 295 0 175 0 c 0x72
 89 0 5 -10 5 -10 c 1
 21 57 l 1
 75 65 93 84 100 142 c 2
 148 524 l 2
 153 567 149 578 124 578 c 0xa6
 113 578 94 576 94 576 c 1
 89 585 l 1
 104 644 l 1
 104 644 210 641 282 641 c 0
 420 641 518 645 578 653 c 1
 584 643 l 1
 584 643 556 555 540 462 c 1
 450 456 l 1
 450 456 458 491 458 513 c 0
 458 554 435 560 343 560 c 0
 298 560 293 557 288 527 c 2
 262 369 l 1
 282 369 324 368 352 368 c 0
 383 368 465 376 465 376 c 1
 471 368 l 1
 447 283 l 1
 447 283 370 286 322 286 c 0
 294 286 265 282 248 280 c 1
 237 205 225 142 225 114 c 0x6a
366 702 m 0
 324 702 303 727 303 764 c 0
 303 816 341 854 393 854 c 0
 433 854 454 829 454 792 c 0
 454 740 417 702 366 702 c 0
EndSplineSet
Validated: 33
EndChar

StartChar: Egrave
Encoding: 200 200 37
Width: 577
Flags: MW
HStem: -10 21G<5 5> 0 77<132 341> 286 82<338 346> 459 182 560 81<320.5 351 246 389> 578 63 837 20G<255 255>
LayerCount: 2
Back
Fore
SplineSet
225 114 m 0x6a
 225 81 238 77 282 77 c 0
 400 77 419 90 446 191 c 1
 529 198 l 1
 535 188 l 1
 535 188 506 99 485 3 c 1
 474 -7 l 1
 474 -7 295 0 175 0 c 0x72
 89 0 5 -10 5 -10 c 1
 21 57 l 1
 75 65 93 84 100 142 c 2
 148 524 l 2
 153 567 149 578 124 578 c 0xa6
 113 578 94 576 94 576 c 1
 89 585 l 1
 104 644 l 1
 104 644 210 641 282 641 c 0
 420 641 518 645 578 653 c 1
 584 643 l 1
 584 643 556 555 540 462 c 1
 450 456 l 1
 450 456 458 491 458 513 c 0
 458 554 435 560 343 560 c 0
 298 560 293 557 288 527 c 2
 262 369 l 1
 282 369 324 368 352 368 c 0
 383 368 465 376 465 376 c 1
 471 368 l 1
 447 283 l 1
 447 283 370 286 322 286 c 0
 294 286 265 282 248 280 c 1
 237 205 225 142 225 114 c 0x6a
222 762 m 1
 217 775 l 1
 242 852 l 1
 255 857 l 1
 255 857 370 800 478 753 c 1
 465 706 l 1
 451 697 l 1
 337 733 222 762 222 762 c 1
EndSplineSet
Validated: 33
EndChar

StartChar: Emacron
Encoding: 274 274 38
Width: 577
Flags: MW
HStem: -10 21G<5 5> 0 77<132 341> 286 82<338 346> 459 182 560 81<320.5 351 246 389> 578 63 713 86<341.5 422.5> 785 20G<521 521>
LayerCount: 2
Back
Fore
SplineSet
225 114 m 0x6a
 225 81 238 77 282 77 c 0
 400 77 419 90 446 191 c 1
 529 198 l 1
 535 188 l 1
 535 188 506 99 485 3 c 1
 474 -7 l 1
 474 -7 295 0 175 0 c 0x71
 89 0 5 -10 5 -10 c 1
 21 57 l 1
 75 65 93 84 100 142 c 2
 148 524 l 2
 153 567 149 578 124 578 c 0xa6
 113 578 94 576 94 576 c 1
 89 585 l 1
 104 644 l 1
 104 644 210 641 282 641 c 0
 420 641 518 645 578 653 c 1
 584 643 l 1
 584 643 556 555 540 462 c 1
 450 456 l 1
 450 456 458 491 458 513 c 0
 458 554 435 560 343 560 c 0
 298 560 293 557 288 527 c 2
 262 369 l 1
 282 369 324 368 352 368 c 0
 383 368 465 376 465 376 c 1
 471 368 l 1
 447 283 l 1
 447 283 370 286 322 286 c 0
 294 286 265 282 248 280 c 1
 237 205 225 142 225 114 c 0x6a
521 805 m 1
 528 791 l 1
 506 714 l 1
 370 713 l 2
 313 713 236 712 236 712 c 1
 227 724 l 1
 250 800 l 1
 250 800 342 799 398 799 c 0x72
 447 799 521 805 521 805 c 1
EndSplineSet
Validated: 33
EndChar

StartChar: Eng
Encoding: 330 330 39
Width: 703
Flags: MW
HStem: -163 21G<360 360> 0 63 579 63 628 20G<738 738>
LayerCount: 2
Back
Fore
SplineSet
201 642 m 0xe0
 234 642 296 646 296 646 c 1
 384 450 502 228 502 228 c 1
 511 228 l 1
 548 536 l 2
 551 567 544 579 521 579 c 0
 509 579 487 578 487 578 c 1
 485 584 l 1
 499 646 l 1
 499 646 595 642 625 642 c 0xe0
 668 642 738 648 738 648 c 1xd0
 726 582 l 1
 681 576 663 559 657 519 c 2
 594 86 l 2
 573 -47 504 -120 360 -163 c 1
 336 -122 l 1
 340 -111 l 1
 402 -83 438 -47 460 4 c 1
 347 241 249 425 249 425 c 1
 240 425 l 1
 200 108 l 2
 196 74 203 63 228 63 c 0
 238 63 269 65 269 65 c 1
 274 59 l 1
 257 -4 l 1
 257 -4 176 0 115 0 c 0
 76 0 13 -8 13 -8 c 1
 29 57 l 1
 70 62 87 80 96 133 c 2
 154 519 l 2
 159 561 146 573 84 581 c 1
 78 591 l 1
 91 647 l 1
 91 647 165 642 201 642 c 0xe0
EndSplineSet
Validated: 33
EndChar

StartChar: Eogonek
Encoding: 280 280 40
Width: 577
Flags: MW
HStem: -241 72<347.5 416.5> 0 77<132 341> 286 82<338 346> 560 81<320.5 351 246 389> 578 63 633 20G<578 578>
LayerCount: 2
Back
Fore
SplineSet
472 -145 m 1xf0
 487 -174 l 1
 487 -174 430 -224 380 -241 c 1
 315 -241 274 -211 274 -160 c 0
 274 -113 307 -69 376 -3 c 1
 315 -1 237 0 175 0 c 0
 89 0 5 -10 5 -10 c 1
 21 57 l 1
 75 65 93 84 100 142 c 2
 148 524 l 2
 153 567 149 578 124 578 c 0
 113 578 94 576 94 576 c 1
 89 585 l 1
 104 644 l 1
 104 644 210 641 282 641 c 0xe8
 420 641 518 645 578 653 c 1xe4
 584 643 l 1
 584 643 556 555 540 462 c 1
 450 456 l 1
 450 456 458 491 458 513 c 0
 458 554 435 560 343 560 c 0
 298 560 293 557 288 527 c 2
 262 369 l 1
 282 369 324 368 352 368 c 0
 383 368 465 376 465 376 c 1
 471 368 l 1
 447 283 l 1
 447 283 370 286 322 286 c 0
 294 286 265 282 248 280 c 1
 237 205 225 142 225 114 c 0
 225 81 238 77 282 77 c 0
 400 77 419 90 446 191 c 1
 529 198 l 1
 535 188 l 1
 535 188 506 99 485 3 c 1
 474 -7 l 1
 474 -7 459 -6 435 -5 c 1
 376 -69 359 -95 359 -128 c 0
 359 -152 375 -169 400 -169 c 0
 433 -169 472 -145 472 -145 c 1xf0
EndSplineSet
Validated: 33
EndChar

StartChar: Eth
Encoding: 208 208 41
Width: 682
Flags: MW
HStem: -12 84<298 377.5 287 406> 0 72 286 68 562 84<387 396.5> 577 69
LayerCount: 2
Back
Fore
SplineSet
298 -12 m 1xa8
 298 -12 203 0 148 0 c 0x70
 97 0 22 -10 22 -10 c 1
 37 57 l 1
 92 67 109 85 117 141 c 2
 135 286 l 1
 23 286 l 1
 16 293 l 1
 33 353 l 1
 143 353 l 1
 164 523 l 2
 169 566 164 577 141 577 c 0
 128 577 108 575 108 575 c 1
 104 584 l 1
 119 644 l 1
 119 644 204 641 242 641 c 0
 287 641 387 646 387 646 c 1
 562 646 674 550 674 388 c 0
 674 159 514 -12 298 -12 c 1xa8
335 562 m 0
 314 562 308 557 305 538 c 0
 295 481 285 415 275 353 c 1
 392 355 l 1
 398 346 l 1
 384 286 l 1
 264 286 l 1
 251 203 242 137 242 125 c 0
 242 84 260 72 314 72 c 0
 441 72 519 188 519 376 c 0
 519 501 458 562 335 562 c 0
EndSplineSet
Validated: 33
EndChar

StartChar: F
Encoding: 70 70 42
Width: 514
Flags: MW
HStem: -11 21G<5 5> 0 76<126 274.5> 269 82<305.5 364.5> 458 183 560 81<320.5 342.5 246 380> 578 63 633 20G<555 555>
LayerCount: 2
Back
Fore
SplineSet
246 262 m 1x68
 228 140 l 2
 222 93 229 76 262 76 c 0
 287 76 325 81 325 81 c 1
 332 71 l 1
 313 -4 l 1
 313 -4 211 0 163 0 c 0x70
 89 0 5 -11 5 -11 c 1
 20 55 l 1
 76 66 93 85 100 142 c 2
 148 524 l 2
 153 567 149 578 124 578 c 0
 113 578 94 576 94 576 c 1
 89 585 l 1
 104 644 l 1
 104 644 210 641 282 641 c 0xa4
 403 641 499 645 555 653 c 1x62
 561 643 l 1
 561 643 535 553 519 461 c 1
 430 455 l 1
 430 455 438 491 438 514 c 0
 438 553 417 560 343 560 c 0
 298 560 293 557 288 527 c 2
 260 352 l 1
 350 351 l 2
 379 351 452 359 452 359 c 1
 458 351 l 1
 435 266 l 1
 435 266 364 269 320 269 c 0
 291 269 263 265 246 262 c 1x68
EndSplineSet
Validated: 33
EndChar

StartChar: G
Encoding: 71 71 43
Width: 629
Flags: MW
HStem: -12 92<276.5 347.5 276.5 363.5> 249 76<341 511> 431 222 559 94<311 400>
LayerCount: 2
Back
Fore
SplineSet
294 -12 m 0xd0
 132 -12 32 89 32 256 c 0
 32 498 177 653 402 653 c 0
 483 653 599 629 599 629 c 1
 603 616 l 1
 603 616 573 540 554 435 c 1
 457 428 l 1
 457 428 466 471 466 490 c 0
 466 536 433 559 367 559 c 0
 255 559 188 460 188 275 c 0
 188 149 234 80 319 80 c 0
 376 80 416 106 416 106 c 1
 427 201 l 2
 431 240 425 249 391 249 c 2
 341 249 l 1
 337 257 l 1
 356 327 l 2
 355 327 437 325 491 325 c 0
 531 325 586 329 586 330 c 2
 588 292 l 1
 564 277 550 252 544 210 c 0
 536 169 527 93 527 74 c 0
 527 60 528 41 528 41 c 1
 518 29 l 1
 518 29 433 -12 294 -12 c 0xd0
EndSplineSet
Validated: 8388645
EndChar

StartChar: Gbreve
Encoding: 286 286 44
Width: 629
Flags: MW
HStem: -12 92<276.5 347.5 276.5 363.5> 249 76<341 511> 431 222 559 94<311 400> 714 95<376.5 420.5 376.5 428.5> 848 20G<306 306 507 507>
LayerCount: 2
Back
Fore
SplineSet
294 -12 m 0xdc
 132 -12 32 89 32 256 c 0
 32 498 177 653 402 653 c 0
 483 653 599 629 599 629 c 1
 603 616 l 1
 603 616 573 540 554 435 c 1
 457 428 l 1
 457 428 466 471 466 490 c 0
 466 536 433 559 367 559 c 0
 255 559 188 460 188 275 c 0
 188 149 234 80 319 80 c 0
 376 80 416 106 416 106 c 1
 427 201 l 2
 431 240 425 249 391 249 c 2
 341 249 l 1
 337 257 l 1
 356 327 l 2
 355 327 437 325 491 325 c 0
 531 325 586 329 586 330 c 2
 588 292 l 1
 564 277 550 252 544 210 c 0
 536 169 527 93 527 74 c 0
 527 60 528 41 528 41 c 1
 518 29 l 1
 518 29 433 -12 294 -12 c 0xdc
398 809 m 0
 443 809 484 828 507 868 c 1
 523 865 l 1
 546 830 l 1
 522 772 470 714 387 714 c 0
 304 714 266 772 256 830 c 1
 289 865 l 1
 306 868 l 1
 319 828 355 809 398 809 c 0
EndSplineSet
Validated: 8388645
EndChar

StartChar: Gcommaaccent
Encoding: 290 290 45
Width: 629
Flags: MW
HStem: -318 21G<210 210> -12 92<276.5 347.5 276.5 363.5> 80 169<341 347.5> 249 76<341 511> 325 106 559 94<311 400>
LayerCount: 2
Back
Fore
SplineSet
294 -12 m 0xb4
 132 -12 32 89 32 256 c 0
 32 498 177 653 402 653 c 0
 483 653 599 629 599 629 c 1
 603 616 l 1
 603 616 573 540 554 435 c 1
 457 428 l 1
 457 428 466 471 466 490 c 0
 466 536 433 559 367 559 c 0
 255 559 188 460 188 275 c 0
 188 149 234 80 319 80 c 0
 376 80 416 106 416 106 c 1
 427 201 l 2
 431 240 425 249 391 249 c 2
 341 249 l 1
 337 257 l 1
 356 327 l 2
 355 327 437 325 491 325 c 0
 531 325 586 329 586 330 c 2
 588 292 l 1
 564 277 550 252 544 210 c 0
 536 169 527 93 527 74 c 0
 527 60 528 41 528 41 c 1
 518 29 l 1
 518 29 433 -12 294 -12 c 0xb4
206 -100 m 1
 209 -86 l 1
 233 -67 263 -51 288 -51 c 0
 328 -51 357 -84 357 -137 c 0
 357 -208 288 -275 210 -318 c 1
 173 -288 l 1
 173 -271 l 1
 212 -244 241 -203 241 -169 c 0
 241 -142 226 -116 206 -100 c 1
EndSplineSet
Validated: 8388645
EndChar

StartChar: commaaccent
Encoding: 65547 -1 46
Width: 384
Flags: MW
HStem: -318 21G<67 67> -71 20G<132.5 165>
LayerCount: 2
Back
Fore
SplineSet
63 -100 m 1
 66 -86 l 1
 90 -67 120 -51 145 -51 c 0
 185 -51 214 -84 214 -137 c 0
 214 -208 145 -275 67 -318 c 1
 30 -288 l 1
 30 -271 l 1
 69 -244 98 -203 98 -169 c 0
 98 -142 83 -116 63 -100 c 1
EndSplineSet
Validated: 1
EndChar

StartChar: Gdotaccent
Encoding: 288 288 47
Width: 629
Flags: MW
HStem: -12 92<276.5 347.5 276.5 363.5> 249 76<341 511> 431 222 559 94<311 400> 702 152<394 418.5>
LayerCount: 2
Back
Fore
SplineSet
294 -12 m 0xd8
 132 -12 32 89 32 256 c 0
 32 498 177 653 402 653 c 0
 483 653 599 629 599 629 c 1
 603 616 l 1
 603 616 573 540 554 435 c 1
 457 428 l 1
 457 428 466 471 466 490 c 0
 466 536 433 559 367 559 c 0
 255 559 188 460 188 275 c 0
 188 149 234 80 319 80 c 0
 376 80 416 106 416 106 c 1
 427 201 l 2
 431 240 425 249 391 249 c 2
 341 249 l 1
 337 257 l 1
 356 327 l 2
 355 327 437 325 491 325 c 0
 531 325 586 329 586 330 c 2
 588 292 l 1
 564 277 550 252 544 210 c 0
 536 169 527 93 527 74 c 0
 527 60 528 41 528 41 c 1
 518 29 l 1
 518 29 433 -12 294 -12 c 0xd8
393 702 m 0
 351 702 330 727 330 764 c 0
 330 816 368 854 420 854 c 0
 460 854 481 829 481 792 c 0
 481 740 444 702 393 702 c 0
EndSplineSet
Validated: 8388645
EndChar

StartChar: H
Encoding: 72 72 48
Width: 720
Flags: MW
HStem: -9 21G<6 6> 0 64 285 80<383 400.5> 578 63 623 20G<101 101 468.5 469> 629 20G<364 364 735 735>
LayerCount: 2
Back
Fore
SplineSet
656 529 m 0x64
 632 395 594 147 594 108 c 0
 594 75 603 64 627 64 c 0
 644 64 663 67 663 67 c 2
 664 65 666 63 667 60 c 2
 651 -3 l 1
 651 -3 584 0 532 0 c 2
 492 0 l 2
 452 0 374 -2 374 -2 c 1
 390 63 l 1
 443 64 461 83 470 155 c 2
 486 284 l 1
 486 284 418 285 383 285 c 0
 358 285 247 275 247 275 c 1
 233 165 l 2
 229 138 224 108 226 92 c 0
 227 70 235 64 256 64 c 0
 275 64 291 67 291 67 c 1
 295 60 l 1
 279 -3 l 1
 279 -3 197 0 161 0 c 0x70
 103 0 7 -6 6 -9 c 2
 21 55 l 1
 84 68 95 86 103 156 c 2
 148 526 l 2
 153 568 148 578 120 578 c 0xb0
 109 578 91 577 91 577 c 1
 87 585 l 1
 101 643 l 1x68
 101 643 177 641 217 641 c 0x70
 265 641 364 649 364 649 c 1x64
 351 583 l 1
 301 575 293 565 285 511 c 2
 261 367 l 1
 302 367 343 366 383 365 c 0
 430 365 458 367 496 372 c 1
 516 526 l 2
 522 567 515 578 488 578 c 0x70
 476 578 458 577 458 577 c 1
 454 585 l 1
 469 643 l 2x68
 468 643 574 641 605 641 c 0x70
 654 642 735 649 735 649 c 1
 723 584 l 1
 675 577 663 567 656 529 c 0x64
EndSplineSet
Validated: 37
EndChar

StartChar: I
Encoding: 73 73 49
Width: 352
Flags: MW
HStem: -9 21G<5 5> 0 64 578 63 623 20G<97 110> 629 20G<371 371>
LayerCount: 2
Back
Fore
SplineSet
288 529 m 0x48
 264 390 225 145 225 104 c 0
 225 73 234 64 256 64 c 0
 278 64 298 67 298 67 c 1
 301 60 l 1
 285 -3 l 1
 285 -3 185 0 142 0 c 0x60
 87 0 5 -9 5 -9 c 1
 20 55 l 1
 78 67 94 84 101 139 c 2
 148 526 l 2
 153 567 148 578 120 578 c 0xa0
 108 578 87 577 87 577 c 1
 83 585 l 1
 97 643 l 1x50
 123 643 186 641 232 641 c 0x60
 275 641 371 649 371 649 c 1
 357 583 l 1
 307 576 295 566 288 529 c 0x48
EndSplineSet
Validated: 33
EndChar

StartChar: J
Encoding: 74 74 50
Width: 321
Flags: MW
HStem: -153 21G<-19 -19> 578 63<82 126> 622 20G<202 235.5> 630 20G<350 350>
LayerCount: 2
Back
Fore
SplineSet
89 123 m 2x90
 139 526 l 2
 144 568 139 578 113 578 c 0
 99 578 71 575 71 575 c 1
 68 583 l 1
 82 641 l 1xc0
 202 642 l 2xa0
 269 642 350 650 350 650 c 1
 336 583 l 1
 294 575 286 568 279 529 c 0
 263 438 228 209 215 102 c 0
 197 -31 126 -108 -19 -153 c 1
 -42 -113 l 1
 -38 -102 l 1
 47 -47 73 -2 89 123 c 2x90
EndSplineSet
Validated: 33
EndChar

StartChar: Iacute
Encoding: 205 205 51
Width: 353
Flags: MW
HStem: -9 21G<5 5> 0 64 578 63 623 20G<97 110> 837 20G<356 356>
LayerCount: 2
Back
Fore
SplineSet
288 529 m 0x68
 264 390 225 145 225 104 c 0
 225 73 234 64 256 64 c 0
 278 64 298 67 298 67 c 1
 301 60 l 1
 285 -3 l 1
 285 -3 185 0 142 0 c 0x68
 87 0 5 -9 5 -9 c 1
 20 55 l 1
 78 67 94 84 101 139 c 2
 148 526 l 2
 153 567 148 578 120 578 c 0xa8
 108 578 87 577 87 577 c 1
 83 585 l 1
 97 643 l 1x58
 123 643 186 641 232 641 c 0
 275 641 371 649 371 649 c 1
 357 583 l 1
 307 576 295 566 288 529 c 0x68
394 775 m 1
 389 762 l 1
 389 762 274 733 160 697 c 1
 147 706 l 1
 133 753 l 1
 241 800 356 857 356 857 c 1
 369 852 l 1
 394 775 l 1
EndSplineSet
Validated: 33
EndChar

StartChar: Icircumflex
Encoding: 206 206 52
Width: 353
Flags: MW
HStem: -9 21G<5 5> 0 64 578 63 623 20G<97 110>
LayerCount: 2
Back
Fore
SplineSet
288 529 m 0x60
 264 390 225 145 225 104 c 0
 225 73 234 64 256 64 c 0
 278 64 298 67 298 67 c 1
 301 60 l 1
 285 -3 l 1
 285 -3 185 0 142 0 c 0x60
 87 0 5 -9 5 -9 c 1
 20 55 l 1
 78 67 94 84 101 139 c 2
 148 526 l 2
 153 567 148 578 120 578 c 0xa0
 108 578 87 577 87 577 c 1
 83 585 l 1
 97 643 l 1x50
 123 643 186 641 232 641 c 0
 275 641 371 649 371 649 c 1
 357 583 l 1
 307 576 295 566 288 529 c 0x60
99 711 m 1
 80 752 l 1
 123 781 248 876 248 876 c 1
 268 876 l 2
 268 879 370 782 405 752 c 1
 376 711 l 1
 359 707 l 1
 340 716 257 760 244 765 c 1
 229 760 137 716 114 707 c 1
 99 711 l 1
EndSplineSet
Validated: 33
EndChar

StartChar: Idieresis
Encoding: 207 207 53
Width: 353
Flags: MW
HStem: -9 21G<5 5> 0 64 578 63 623 20G<97 110> 711 128<148 169 321.5 342>
LayerCount: 2
Back
Fore
SplineSet
288 529 m 0x68
 264 390 225 145 225 104 c 0
 225 73 234 64 256 64 c 0
 278 64 298 67 298 67 c 1
 301 60 l 1
 285 -3 l 1
 285 -3 185 0 142 0 c 0x68
 87 0 5 -9 5 -9 c 1
 20 55 l 1
 78 67 94 84 101 139 c 2
 148 526 l 2
 153 567 148 578 120 578 c 0xa8
 108 578 87 577 87 577 c 1
 83 585 l 1
 97 643 l 1x58
 123 643 186 641 232 641 c 0
 275 641 371 649 371 649 c 1
 357 583 l 1
 307 576 295 566 288 529 c 0x68
320 711 m 0
 286 711 268 732 268 763 c 0
 268 807 300 839 343 839 c 0
 377 839 395 818 395 787 c 0
 395 744 364 711 320 711 c 0
147 711 m 0
 112 711 95 732 95 763 c 0
 95 807 126 839 170 839 c 0
 204 839 222 818 222 787 c 0
 222 744 191 711 147 711 c 0
EndSplineSet
Validated: 33
EndChar

StartChar: Idotaccent
Encoding: 304 304 54
Width: 353
Flags: MW
HStem: -9 21G<5 5> 0 64 578 63 623 20G<97 110> 702 152<235 259.5>
LayerCount: 2
Back
Fore
SplineSet
288 529 m 0x68
 264 390 225 145 225 104 c 0
 225 73 234 64 256 64 c 0
 278 64 298 67 298 67 c 1
 301 60 l 1
 285 -3 l 1
 285 -3 185 0 142 0 c 0x68
 87 0 5 -9 5 -9 c 1
 20 55 l 1
 78 67 94 84 101 139 c 2
 148 526 l 2
 153 567 148 578 120 578 c 0xa8
 108 578 87 577 87 577 c 1
 83 585 l 1
 97 643 l 1x58
 123 643 186 641 232 641 c 0
 275 641 371 649 371 649 c 1
 357 583 l 1
 307 576 295 566 288 529 c 0x68
234 702 m 0
 192 702 171 727 171 764 c 0
 171 816 209 854 261 854 c 0
 301 854 322 829 322 792 c 0
 322 740 285 702 234 702 c 0
EndSplineSet
Validated: 33
EndChar

StartChar: Igrave
Encoding: 204 204 55
Width: 353
Flags: MW
HStem: -9 21G<5 5> 0 64 578 63 623 20G<97 110> 837 20G<126 126>
LayerCount: 2
Back
Fore
SplineSet
288 529 m 0x68
 264 390 225 145 225 104 c 0
 225 73 234 64 256 64 c 0
 278 64 298 67 298 67 c 1
 301 60 l 1
 285 -3 l 1
 285 -3 185 0 142 0 c 0x68
 87 0 5 -9 5 -9 c 1
 20 55 l 1
 78 67 94 84 101 139 c 2
 148 526 l 2
 153 567 148 578 120 578 c 0xa8
 108 578 87 577 87 577 c 1
 83 585 l 1
 97 643 l 1x58
 123 643 186 641 232 641 c 0
 275 641 371 649 371 649 c 1
 357 583 l 1
 307 576 295 566 288 529 c 0x68
93 762 m 1
 88 775 l 1
 113 852 l 1
 126 857 l 1
 126 857 241 800 349 753 c 1
 336 706 l 1
 322 697 l 1
 208 733 93 762 93 762 c 1
EndSplineSet
Validated: 33
EndChar

StartChar: Imacron
Encoding: 298 298 56
Width: 353
Flags: MW
HStem: -9 21G<5 5> 0 64 578 63 623 20G<97 110> 713 86<209.5 290.5> 785 20G<389 389>
LayerCount: 2
Back
Fore
SplineSet
288 529 m 0x68
 264 390 225 145 225 104 c 0
 225 73 234 64 256 64 c 0
 278 64 298 67 298 67 c 1
 301 60 l 1
 285 -3 l 1
 285 -3 185 0 142 0 c 0x64
 87 0 5 -9 5 -9 c 1
 20 55 l 1
 78 67 94 84 101 139 c 2
 148 526 l 2
 153 567 148 578 120 578 c 0xa8
 108 578 87 577 87 577 c 1
 83 585 l 1
 97 643 l 1x58
 123 643 186 641 232 641 c 0
 275 641 371 649 371 649 c 1
 357 583 l 1
 307 576 295 566 288 529 c 0x68
389 805 m 1
 396 791 l 1
 374 714 l 1
 238 713 l 2
 181 713 104 712 104 712 c 1
 95 724 l 1
 118 800 l 1
 118 800 210 799 266 799 c 0x68
 315 799 389 805 389 805 c 1
EndSplineSet
Validated: 33
EndChar

StartChar: Iogonek
Encoding: 302 302 57
Width: 353
Flags: MW
HStem: -242 72<149.5 218.5> 0 64<142 267> 578 63 623 20G<97 110> 629 20G<371 371>
LayerCount: 2
Back
Fore
SplineSet
274 -146 m 1xc8
 289 -175 l 1
 289 -175 232 -225 182 -242 c 1
 117 -242 76 -212 76 -161 c 0
 76 -113 111 -69 183 0 c 1
 142 0 l 2
 87 0 5 -9 5 -9 c 1
 20 55 l 1
 78 67 94 84 101 139 c 2
 148 526 l 2
 153 567 148 578 120 578 c 0xe0
 108 578 87 577 87 577 c 1
 83 585 l 1
 97 643 l 1xd0
 123 643 186 641 232 641 c 0xe0
 275 641 371 649 371 649 c 1
 357 583 l 1
 307 576 295 566 288 529 c 0
 264 390 225 145 225 104 c 0
 225 73 234 64 256 64 c 0
 278 64 298 67 298 67 c 1
 301 60 l 1
 285 -3 l 1
 285 -3 265 -2 241 -1 c 1
 178 -69 161 -95 161 -129 c 0
 161 -153 177 -170 202 -170 c 0
 235 -170 274 -146 274 -146 c 1xc8
EndSplineSet
Validated: 33
EndChar

StartChar: K
Encoding: 75 75 58
Width: 637
Flags: MW
HStem: -15 21G<460.5 489.5> 0 64 578 63 629 20G<367 367>
LayerCount: 2
Back
Fore
SplineSet
101 139 m 2x50
 148 526 l 2
 153 568 148 578 120 578 c 0
 109 578 91 577 91 577 c 1
 87 585 l 1
 102 644 l 1
 102 644 205 641 232 641 c 0xa0
 273 641 367 649 367 649 c 1
 354 583 l 1
 304 573 290 561 285 525 c 2
 227 132 l 2
 220 78 226 64 256 64 c 0
 276 64 294 67 294 67 c 1
 298 60 l 1
 281 -3 l 1
 281 -3 184 0 142 0 c 0
 88 0 6 -3 6 -3 c 1
 23 60 l 1
 80 69 94 83 101 139 c 2x50
269 316 m 1
 274 337 l 1
 431 495 l 2
 454 518 466 538 466 552 c 0
 466 569 453 577 420 579 c 1
 417 586 l 1
 432 647 l 1
 432 647 513 641 553 641 c 0
 589 641 667 646 667 646 c 1
 672 635 l 1
 658 579 l 1
 612 561 583 537 526 476 c 2
 404 347 l 1
 506 145 l 2
 537 84 563 60 604 57 c 1
 610 49 l 1
 596 -3 l 1
 596 -3 498 -15 481 -15 c 0
 440 -15 411 12 384 69 c 2
 269 316 l 1
EndSplineSet
Validated: 33
EndChar

StartChar: Kcommaaccent
Encoding: 310 310 59
Width: 639
Flags: MW
HStem: -318 21G<222 222> 0 64 578 63 629 20G<367 367>
LayerCount: 2
Back
Fore
SplineSet
101 139 m 2xd0
 148 526 l 2
 153 568 148 578 120 578 c 0
 109 578 91 577 91 577 c 1
 87 585 l 1
 102 644 l 1
 102 644 205 641 232 641 c 0xe0
 273 641 367 649 367 649 c 1
 354 583 l 1
 304 573 290 561 285 525 c 2
 227 132 l 2
 220 78 226 64 256 64 c 0
 276 64 294 67 294 67 c 1
 298 60 l 1
 281 -3 l 1
 281 -3 184 0 142 0 c 0
 88 0 6 -3 6 -3 c 1
 23 60 l 1
 80 69 94 83 101 139 c 2xd0
269 316 m 1
 274 337 l 1
 431 495 l 2
 454 518 466 538 466 552 c 0
 466 569 453 577 420 579 c 1
 417 586 l 1
 432 647 l 1
 432 647 513 641 553 641 c 0
 589 641 667 646 667 646 c 1
 672 635 l 1
 658 579 l 1
 612 561 583 537 526 476 c 2
 404 347 l 1
 506 145 l 2
 537 84 563 60 604 57 c 1
 610 49 l 1
 596 -3 l 1
 596 -3 498 -15 481 -15 c 0
 440 -15 411 12 384 69 c 2
 269 316 l 1
218 -100 m 1
 221 -86 l 1
 245 -67 275 -51 300 -51 c 0
 340 -51 369 -84 369 -137 c 0
 369 -208 300 -275 222 -318 c 1
 185 -288 l 1
 185 -271 l 1
 224 -244 253 -203 253 -169 c 0
 253 -142 238 -116 218 -100 c 1
EndSplineSet
Validated: 33
EndChar

StartChar: L
Encoding: 76 76 60
Width: 513
Flags: MW
HStem: -10 21G<10 10> 0 77<135 325.5> 578 63 623 20G<101 113.5> 629 20G<383 383>
LayerCount: 2
Back
Fore
SplineSet
178 0 m 0x48
 92 0 10 -10 10 -10 c 1
 26 57 l 1
 76 65 93 84 100 142 c 2
 148 526 l 2
 153 568 146 578 119 578 c 0xa0
 109 578 90 577 90 577 c 1
 86 585 l 1
 101 643 l 1x50
 126 643 188 641 232 641 c 0x60
 276 641 383 649 383 649 c 1
 368 580 l 1
 306 572 295 565 284 505 c 0
 265 404 227 154 227 118 c 0
 227 86 238 77 280 77 c 0
 371 77 393 100 422 228 c 1
 506 236 l 1
 512 227 l 1
 512 227 483 119 458 2 c 1
 447 -8 l 1
 447 -8 292 0 178 0 c 0x48
EndSplineSet
Validated: 33
EndChar

StartChar: Lacute
Encoding: 313 313 61
Width: 514
Flags: MW
HStem: -10 21G<10 10> 0 77<135 325.5> 578 63 623 20G<101 113.5> 837 20G<366 366>
LayerCount: 2
Back
Fore
SplineSet
178 0 m 0x68
 92 0 10 -10 10 -10 c 1
 26 57 l 1
 76 65 93 84 100 142 c 2
 148 526 l 2
 153 568 146 578 119 578 c 0xa8
 109 578 90 577 90 577 c 1
 86 585 l 1
 101 643 l 1x58
 126 643 188 641 232 641 c 0
 276 641 383 649 383 649 c 1
 368 580 l 1
 306 572 295 565 284 505 c 0
 265 404 227 154 227 118 c 0
 227 86 238 77 280 77 c 0
 371 77 393 100 422 228 c 1
 506 236 l 1
 512 227 l 1
 512 227 483 119 458 2 c 1
 447 -8 l 1
 447 -8 292 0 178 0 c 0x68
404 775 m 1
 399 762 l 1
 399 762 284 733 170 697 c 1
 157 706 l 1
 143 753 l 1
 251 800 366 857 366 857 c 1
 379 852 l 1
 404 775 l 1
EndSplineSet
Validated: 33
EndChar

StartChar: Lcaron
Encoding: 317 317 62
Width: 533
Flags: MW
HStem: -10 21G<10 10> 0 77<135 325.5> 578 63 623 20G<101 113.5> 629 20G<383 383>
LayerCount: 2
Back
Fore
SplineSet
547 640 m 1x48
 555 630 l 1
 555 630 540 521 517 414 c 1
 469 395 l 1
 454 399 l 1
 457 513 447 626 447 626 c 1
 547 640 l 1x48
178 0 m 0
 92 0 10 -10 10 -10 c 1
 26 57 l 1
 76 65 93 84 100 142 c 2
 148 526 l 2
 153 568 146 578 119 578 c 0xa0
 109 578 90 577 90 577 c 1
 86 585 l 1
 101 643 l 1x50
 126 643 188 641 232 641 c 0x60
 276 641 383 649 383 649 c 1
 368 580 l 1
 306 572 295 565 284 505 c 0
 265 404 227 154 227 118 c 0
 227 86 238 77 280 77 c 0
 371 77 393 100 422 228 c 1
 506 236 l 1
 512 227 l 1
 512 227 483 119 458 2 c 1
 447 -8 l 1
 447 -8 292 0 178 0 c 0
EndSplineSet
Validated: 33
EndChar

StartChar: Lcommaaccent
Encoding: 315 315 63
Width: 514
Flags: MW
HStem: -318 21G<166 166> -51 51<231.5 235 135 264> 0 77<135 325.5> 578 63 623 20G<101 113.5> 629 20G<383 383>
LayerCount: 2
Back
Fore
SplineSet
178 0 m 0xa4
 92 0 10 -10 10 -10 c 1
 26 57 l 1
 76 65 93 84 100 142 c 2
 148 526 l 2
 153 568 146 578 119 578 c 0xb0
 109 578 90 577 90 577 c 1
 86 585 l 1
 101 643 l 1xc8
 126 643 188 641 232 641 c 0xd0
 276 641 383 649 383 649 c 1
 368 580 l 1
 306 572 295 565 284 505 c 0
 265 404 227 154 227 118 c 0
 227 86 238 77 280 77 c 0
 371 77 393 100 422 228 c 1
 506 236 l 1
 512 227 l 1
 512 227 483 119 458 2 c 1
 447 -8 l 1
 447 -8 292 0 178 0 c 0xa4
162 -100 m 1
 165 -86 l 1
 189 -67 219 -51 244 -51 c 0xd0
 284 -51 313 -84 313 -137 c 0
 313 -208 244 -275 166 -318 c 1
 129 -288 l 1
 129 -271 l 1
 168 -244 197 -203 197 -169 c 0
 197 -142 182 -116 162 -100 c 1
EndSplineSet
Validated: 33
EndChar

StartChar: Ldot
Encoding: 319 319 64
Width: 543
Flags: MW
HStem: -10 21G<10 10> 0 77<135 325.5> 396 158<464 492> 578 63 623 20G<101 113.5> 629 20G<383 383>
LayerCount: 2
Back
Fore
SplineSet
178 0 m 0x64
 92 0 10 -10 10 -10 c 1
 26 57 l 1
 76 65 93 84 100 142 c 2
 148 526 l 2
 153 568 146 578 119 578 c 0xb0
 109 578 90 577 90 577 c 1
 86 585 l 1
 101 643 l 1x68
 126 643 188 641 232 641 c 0x70
 276 641 383 649 383 649 c 1
 368 580 l 1
 306 572 295 565 284 505 c 0
 265 404 227 154 227 118 c 0
 227 86 238 77 280 77 c 0
 371 77 393 100 422 228 c 1
 506 236 l 1
 512 227 l 1
 512 227 483 119 458 2 c 1
 447 -8 l 1
 447 -8 292 0 178 0 c 0x64
465 396 m 0
 421 396 401 423 401 461 c 0
 401 514 437 554 491 554 c 0
 533 554 556 528 556 489 c 0
 556 435 519 396 465 396 c 0
EndSplineSet
Validated: 33
EndChar

StartChar: periodcentered
Encoding: 183 183 65
Width: 230
Flags: MW
HStem: 161 158<102 130>
LayerCount: 2
Back
Fore
SplineSet
103 161 m 0
 59 161 39 188 39 226 c 0
 39 279 75 319 129 319 c 0
 171 319 194 293 194 254 c 0
 194 200 157 161 103 161 c 0
EndSplineSet
Validated: 1
EndChar

StartChar: Lslash
Encoding: 321 321 66
Width: 514
Flags: MW
HStem: -10 21G<10 10> 0 77<135 325.5> 578 63 623 20G<101 113.5> 629 20G<383 383>
LayerCount: 2
Back
Fore
SplineSet
178 0 m 0x48
 92 0 10 -10 10 -10 c 1
 26 57 l 1
 76 65 93 84 100 142 c 2
 116 269 l 1
 46 235 l 1
 37 237 l 1
 19 299 l 1
 126 352 l 1
 148 526 l 2
 153 568 146 578 119 578 c 0xa0
 109 578 90 577 90 577 c 1
 86 585 l 1
 101 643 l 1x50
 126 643 188 641 232 641 c 0x60
 276 641 383 649 383 649 c 1
 368 580 l 1
 306 572 295 565 284 505 c 0
 279 480 273 446 267 409 c 1
 378 464 l 1
 386 460 l 1
 404 399 l 1
 254 324 l 1
 239 230 227 139 227 118 c 0
 227 86 238 77 280 77 c 0
 371 77 393 100 422 228 c 1
 506 236 l 1
 512 227 l 1
 512 227 483 119 458 2 c 1
 447 -8 l 1
 447 -8 292 0 178 0 c 0x48
EndSplineSet
Validated: 33
EndChar

StartChar: M
Encoding: 77 77 67
Width: 811
Flags: MW
HStem: -16 21G<324 324> 0 64 583 59 627 20G<805 805>
LayerCount: 2
Back
Fore
SplineSet
397 -8 m 1x60
 324 -16 l 1xa0
 289 179 260 326 235 449 c 1
 227 449 l 1
 227 449 164 106 164 90 c 0
 164 72 172 64 191 64 c 0
 200 64 224 65 224 65 c 1
 229 60 l 1
 210 -4 l 1
 210 -4 127 0 95 0 c 0
 57 0 -3 -8 -3 -8 c 1
 12 58 l 1
 50 63 67 81 78 130 c 0
 90 185 163 518 163 543 c 0
 163 567 148 578 96 582 c 1
 91 588 l 1
 107 646 l 1
 107 646 194 641 229 641 c 0
 270 641 336 645 336 645 c 1
 367 418 407 230 407 230 c 1
 415 230 l 1
 415 230 499 419 587 643 c 1
 617 644 668 640 707 642 c 0x60
 745 643 805 647 805 647 c 1x50
 809 643 l 1
 795 583 l 1
 740 579 724 567 720 530 c 0
 715 487 704 275 701 156 c 0
 698 83 706 64 736 64 c 0
 749 64 764 66 764 66 c 1
 767 61 l 1
 751 -3 l 1
 751 -3 693 0 652 0 c 0
 622 0 516 -6 509 -8 c 1
 525 58 l 1
 563 63 580 77 584 108 c 0
 589 147 608 449 608 449 c 1
 599 449 l 1
 553 348 476 178 397 -8 c 1x60
EndSplineSet
Validated: 33
EndChar

StartChar: N
Encoding: 78 78 68
Width: 703
Flags: MW
HStem: -28 21G<473 473> 0 63<106 233.5> 578 63 627 20G<738 738>
LayerCount: 2
Back
Fore
SplineSet
501 230 m 1xe0
 511 230 l 1
 546 535 l 2
 549 566 541 578 520 578 c 0
 506 578 491 577 487 577 c 2
 484 585 l 1
 498 645 l 1
 498 645 580 641 623 641 c 0xe0
 670 641 738 647 738 647 c 1xd0
 725 581 l 1
 682 575 663 558 657 518 c 2
 579 -15 l 1
 473 -28 l 1
 355 223 249 423 249 423 c 1
 240 423 l 1
 200 108 l 2
 196 74 203 63 228 63 c 0
 239 63 269 65 269 65 c 1
 274 59 l 1
 257 -4 l 1
 257 -4 174 0 132 0 c 0
 80 0 12 -8 12 -8 c 1
 28 58 l 1
 67 63 87 80 93 121 c 2
 154 518 l 2
 159 561 145 573 83 580 c 1
 77 590 l 1
 90 646 l 1
 90 646 154 641 203 641 c 0
 245 641 296 645 296 645 c 1
 395 431 501 230 501 230 c 1xe0
EndSplineSet
Validated: 33
EndChar

StartChar: Nacute
Encoding: 323 323 69
Width: 704
Flags: MW
HStem: -28 21G<473 473> 0 63<106 233.5> 578 63 837 20G<528 528>
LayerCount: 2
Back
Fore
SplineSet
501 230 m 1
 511 230 l 1
 546 535 l 2
 549 566 541 578 520 578 c 0
 506 578 491 577 487 577 c 2
 484 585 l 1
 498 645 l 1
 498 645 580 641 623 641 c 0
 670 641 738 647 738 647 c 1
 725 581 l 1
 682 575 663 558 657 518 c 2
 579 -15 l 1
 473 -28 l 1
 355 223 249 423 249 423 c 1
 240 423 l 1
 200 108 l 2
 196 74 203 63 228 63 c 0
 239 63 269 65 269 65 c 1
 274 59 l 1
 257 -4 l 1
 257 -4 174 0 132 0 c 0
 80 0 12 -8 12 -8 c 1
 28 58 l 1
 67 63 87 80 93 121 c 2
 154 518 l 2
 159 561 145 573 83 580 c 1
 77 590 l 1
 90 646 l 1
 90 646 154 641 203 641 c 0
 245 641 296 645 296 645 c 1
 395 431 501 230 501 230 c 1
566 775 m 1
 561 762 l 1
 561 762 446 733 332 697 c 1
 319 706 l 1
 305 753 l 1
 413 800 528 857 528 857 c 1
 541 852 l 1
 566 775 l 1
EndSplineSet
Validated: 33
EndChar

StartChar: Ncaron
Encoding: 327 327 70
Width: 704
Flags: MW
HStem: -28 21G<473 473> 0 63<106 233.5> 578 63 845 20G<315 315 560 560>
LayerCount: 2
Back
Fore
SplineSet
501 230 m 1
 511 230 l 1
 546 535 l 2
 549 566 541 578 520 578 c 0
 506 578 491 577 487 577 c 2
 484 585 l 1
 498 645 l 1
 498 645 580 641 623 641 c 0
 670 641 738 647 738 647 c 1
 725 581 l 1
 682 575 663 558 657 518 c 2
 579 -15 l 1
 473 -28 l 1
 355 223 249 423 249 423 c 1
 240 423 l 1
 200 108 l 2
 196 74 203 63 228 63 c 0
 239 63 269 65 269 65 c 1
 274 59 l 1
 257 -4 l 1
 257 -4 174 0 132 0 c 0
 80 0 12 -8 12 -8 c 1
 28 58 l 1
 67 63 87 80 93 121 c 2
 154 518 l 2
 159 561 145 573 83 580 c 1
 77 590 l 1
 90 646 l 1
 90 646 154 641 203 641 c 0
 245 641 296 645 296 645 c 1
 395 431 501 230 501 230 c 1
575 861 m 1
 595 820 l 1
 552 791 426 696 426 696 c 1
 407 696 l 1
 407 696 305 791 270 820 c 1
 298 861 l 1
 315 865 l 1
 335 856 417 812 430 807 c 1
 445 812 537 856 560 865 c 1
 575 861 l 1
EndSplineSet
Validated: 33
EndChar

StartChar: Ncommaaccent
Encoding: 325 325 71
Width: 704
Flags: MW
HStem: -318 21G<246 246> 0 63<106 233.5> 578 63 627 20G<738 738>
LayerCount: 2
Back
Fore
SplineSet
501 230 m 1xe0
 511 230 l 1
 546 535 l 2
 549 566 541 578 520 578 c 0
 506 578 491 577 487 577 c 2
 484 585 l 1
 498 645 l 1
 498 645 580 641 623 641 c 0xe0
 670 641 738 647 738 647 c 1xd0
 725 581 l 1
 682 575 663 558 657 518 c 2
 579 -15 l 1
 473 -28 l 1
 355 223 249 423 249 423 c 1
 240 423 l 1
 200 108 l 2
 196 74 203 63 228 63 c 0
 239 63 269 65 269 65 c 1
 274 59 l 1
 257 -4 l 1
 257 -4 174 0 132 0 c 0
 80 0 12 -8 12 -8 c 1
 28 58 l 1
 67 63 87 80 93 121 c 2
 154 518 l 2
 159 561 145 573 83 580 c 1
 77 590 l 1
 90 646 l 1
 90 646 154 641 203 641 c 0
 245 641 296 645 296 645 c 1
 395 431 501 230 501 230 c 1xe0
242 -100 m 1
 245 -86 l 1
 269 -67 299 -51 324 -51 c 0
 364 -51 393 -84 393 -137 c 0
 393 -208 324 -275 246 -318 c 1
 209 -288 l 1
 209 -271 l 1
 248 -244 277 -203 277 -169 c 0
 277 -142 262 -116 242 -100 c 1
EndSplineSet
Validated: 33
EndChar

StartChar: Ntilde
Encoding: 209 209 72
Width: 704
Flags: MW
HStem: -28 21G<473 473> 0 63<106 233.5> 578 63 705 96<487 503> 739 96<353 369.5 353 377> 833 20G<563 574 574 574>
LayerCount: 2
Back
Fore
SplineSet
501 230 m 1xe8
 511 230 l 1
 546 535 l 2
 549 566 541 578 520 578 c 0
 506 578 491 577 487 577 c 2
 484 585 l 1
 498 645 l 1
 498 645 580 641 623 641 c 0
 670 641 738 647 738 647 c 1
 725 581 l 1
 682 575 663 558 657 518 c 2
 579 -15 l 1
 473 -28 l 1
 355 223 249 423 249 423 c 1
 240 423 l 1
 200 108 l 2
 196 74 203 63 228 63 c 0
 239 63 269 65 269 65 c 1
 274 59 l 1
 257 -4 l 1
 257 -4 174 0 132 0 c 0
 80 0 12 -8 12 -8 c 1
 28 58 l 1
 67 63 87 80 93 121 c 2
 154 518 l 2
 159 561 145 573 83 580 c 1
 77 590 l 1
 90 646 l 1
 90 646 154 641 203 641 c 0
 245 641 296 645 296 645 c 1
 395 431 501 230 501 230 c 1xe8
294 687 m 1
 283 687 l 1
 248 724 l 1
 249 735 l 1
 337 831 l 1
 353 835 l 1xe8
 386 835 466 801 494 801 c 0
 517 801 563 853 563 853 c 1
 574 853 l 1
 609 816 l 1
 608 806 l 1
 520 709 l 1
 503 705 l 1xf4
 471 705 391 739 363 739 c 0
 339 739 294 687 294 687 c 1
EndSplineSet
Validated: 33
EndChar

StartChar: O
Encoding: 79 79 73
Width: 650
Flags: MW
HStem: -12 85<271.5 364 271.5 390.5> 559 94<304 396>
LayerCount: 2
Back
Fore
SplineSet
311 73 m 0
 417 73 485 181 485 371 c 0
 485 489 436 559 356 559 c 0
 252 559 185 449 185 261 c 0
 185 143 232 73 311 73 c 0
285 -12 m 0
 132 -12 32 90 32 255 c 0
 32 491 173 653 385 653 c 0
 542 653 641 554 641 390 c 0
 641 153 496 -12 285 -12 c 0
EndSplineSet
Validated: 1
EndChar

StartChar: OE
Encoding: 338 338 74
Width: 905
Flags: MW
HStem: -11 90 2 77<459 669.5> 282 87<680 776> 458 178 558 78<648.5 660 562 717> 558 91 634 20G<907 907>
LayerCount: 2
Back
Fore
SplineSet
558 139 m 2xa8
 551 86 557 79 612 79 c 0
 727 79 747 93 773 193 c 1
 858 200 l 1
 864 190 l 1
 864 190 836 100 815 4 c 1
 804 -7 l 1
 804 -7 623 2 502 2 c 0x70
 416 2 345 -11 284 -11 c 0
 131 -11 32 91 32 256 c 0
 32 492 168 649 378 649 c 0xa4
 443 649 520 636 604 636 c 0xb0
 716 636 826 643 907 654 c 1xa2
 914 643 l 1
 914 643 886 554 869 461 c 1
 777 455 l 1
 777 455 785 490 785 511 c 0
 785 551 763 558 671 558 c 0
 626 558 622 555 618 525 c 2
 592 370 l 1
 680 369 l 2
 713 369 794 377 794 377 c 1
 801 368 l 1
 776 282 l 1
 776 282 699 285 652 285 c 2
 577 279 l 1
 558 139 l 2xa8
307 73 m 0
 390 73 428 110 440 202 c 2
 472 454 l 2
 481 533 453 561 358 561 c 0
 258 561 188 446 188 258 c 0
 188 140 230 73 307 73 c 0
EndSplineSet
Validated: 33
EndChar

StartChar: Oacute
Encoding: 211 211 75
Width: 649
Flags: MW
HStem: -12 85<271.5 364 271.5 390.5> 559 94<304 396> 837 20G<490 490>
LayerCount: 2
Back
Fore
SplineSet
311 73 m 0
 417 73 485 181 485 371 c 0
 485 489 436 559 356 559 c 0
 252 559 185 449 185 261 c 0
 185 143 232 73 311 73 c 0
285 -12 m 0
 132 -12 32 90 32 255 c 0
 32 491 173 653 385 653 c 0
 542 653 641 554 641 390 c 0
 641 153 496 -12 285 -12 c 0
528 775 m 1
 523 762 l 1
 523 762 408 733 294 697 c 1
 281 706 l 1
 267 753 l 1
 375 800 490 857 490 857 c 1
 503 852 l 1
 528 775 l 1
EndSplineSet
Validated: 1
EndChar

StartChar: Ocircumflex
Encoding: 212 212 76
Width: 649
Flags: MW
HStem: -12 85<271.5 364 271.5 390.5> 559 94<304 396>
LayerCount: 2
Back
Fore
SplineSet
311 73 m 0
 417 73 485 181 485 371 c 0
 485 489 436 559 356 559 c 0
 252 559 185 449 185 261 c 0
 185 143 232 73 311 73 c 0
285 -12 m 0
 132 -12 32 90 32 255 c 0
 32 491 173 653 385 653 c 0
 542 653 641 554 641 390 c 0
 641 153 496 -12 285 -12 c 0
242 711 m 1
 223 752 l 1
 266 781 391 876 391 876 c 1
 411 876 l 2
 411 879 513 782 548 752 c 1
 519 711 l 1
 502 707 l 1
 483 716 400 760 387 765 c 1
 372 760 280 716 257 707 c 1
 242 711 l 1
EndSplineSet
Validated: 33
EndChar

StartChar: Odieresis
Encoding: 214 214 77
Width: 649
Flags: MW
HStem: -12 85<271.5 364 271.5 390.5> 559 94<304 396> 711 128<291 312 464.5 485>
LayerCount: 2
Back
Fore
SplineSet
311 73 m 0
 417 73 485 181 485 371 c 0
 485 489 436 559 356 559 c 0
 252 559 185 449 185 261 c 0
 185 143 232 73 311 73 c 0
285 -12 m 0
 132 -12 32 90 32 255 c 0
 32 491 173 653 385 653 c 0
 542 653 641 554 641 390 c 0
 641 153 496 -12 285 -12 c 0
463 711 m 0
 429 711 411 732 411 763 c 0
 411 807 443 839 486 839 c 0
 520 839 538 818 538 787 c 0
 538 744 507 711 463 711 c 0
290 711 m 0
 255 711 238 732 238 763 c 0
 238 807 269 839 313 839 c 0
 347 839 365 818 365 787 c 0
 365 744 334 711 290 711 c 0
EndSplineSet
Validated: 1
EndChar

StartChar: Ograve
Encoding: 210 210 78
Width: 649
Flags: MW
HStem: -12 85<271.5 364 271.5 390.5> 559 94<304 396> 837 20G<279 279>
LayerCount: 2
Back
Fore
SplineSet
311 73 m 0
 417 73 485 181 485 371 c 0
 485 489 436 559 356 559 c 0
 252 559 185 449 185 261 c 0
 185 143 232 73 311 73 c 0
285 -12 m 0
 132 -12 32 90 32 255 c 0
 32 491 173 653 385 653 c 0
 542 653 641 554 641 390 c 0
 641 153 496 -12 285 -12 c 0
246 762 m 1
 241 775 l 1
 266 852 l 1
 279 857 l 1
 279 857 394 800 502 753 c 1
 489 706 l 1
 475 697 l 1
 361 733 246 762 246 762 c 1
EndSplineSet
Validated: 1
EndChar

StartChar: Ohungarumlaut
Encoding: 336 336 79
Width: 649
Flags: MW
HStem: -12 85<271.5 364 271.5 390.5> 559 94<304 396> 837 20G<365 365>
LayerCount: 2
Back
Fore
SplineSet
311 73 m 0
 417 73 485 181 485 371 c 0
 485 489 436 559 356 559 c 0
 252 559 185 449 185 261 c 0
 185 143 232 73 311 73 c 0
285 -12 m 0
 132 -12 32 90 32 255 c 0
 32 491 173 653 385 653 c 0
 542 653 641 554 641 390 c 0
 641 153 496 -12 285 -12 c 0
420 794 m 1
 419 782 l 1
 419 782 334 736 250 684 c 1
 237 689 l 1
 214 723 l 1
 288 787 365 857 365 857 c 1
 377 856 l 1
 420 794 l 1
588 790 m 1
 586 778 l 1
 586 778 502 732 418 680 c 1
 405 684 l 1
 382 718 l 1
 456 782 533 852 533 852 c 1
 545 850 l 1
 588 790 l 1
EndSplineSet
Validated: 1
EndChar

StartChar: hungarumlaut.cap
Encoding: 65548 -1 80
Width: 384
Flags: MW
HStem: 680 21G<274 274> 837 20G<221 221>
LayerCount: 2
Back
Fore
SplineSet
276 794 m 1
 275 782 l 1
 275 782 190 736 106 684 c 1
 93 689 l 1
 70 723 l 1
 144 787 221 857 221 857 c 1
 233 856 l 1
 276 794 l 1
444 790 m 1
 442 778 l 1
 442 778 358 732 274 680 c 1
 261 684 l 1
 238 718 l 1
 312 782 389 852 389 852 c 1
 401 850 l 1
 444 790 l 1
EndSplineSet
Validated: 1
EndChar

StartChar: Omacron
Encoding: 332 332 81
Width: 649
Flags: MW
HStem: -12 85<271.5 364 271.5 390.5> 559 94<304 396> 713 86<357.5 438.5> 785 20G<537 537>
LayerCount: 2
Back
Fore
SplineSet
311 73 m 0xd0
 417 73 485 181 485 371 c 0
 485 489 436 559 356 559 c 0
 252 559 185 449 185 261 c 0
 185 143 232 73 311 73 c 0xd0
285 -12 m 0
 132 -12 32 90 32 255 c 0
 32 491 173 653 385 653 c 0
 542 653 641 554 641 390 c 0
 641 153 496 -12 285 -12 c 0
537 805 m 1
 544 791 l 1
 522 714 l 1
 386 713 l 2
 329 713 252 712 252 712 c 1
 243 724 l 1
 266 800 l 1
 266 800 358 799 414 799 c 0xe0
 463 799 537 805 537 805 c 1
EndSplineSet
Validated: 1
EndChar

StartChar: Oslash
Encoding: 216 216 82
Width: 649
Flags: MW
HStem: -107 21G<123 123> -12 85<298 364 298 390.5> 559 94<304 368> 709 20G<532 532>
LayerCount: 2
Back
Fore
SplineSet
60 -68 m 1
 125 38 l 1
 66 83 32 158 32 255 c 0
 32 491 173 653 385 653 c 0
 419 653 450 648 478 639 c 1
 532 729 l 1
 593 700 l 1
 596 687 l 1
 546 605 l 1
 606 561 641 487 641 390 c 0
 641 153 496 -12 285 -12 c 0
 250 -12 219 -7 190 3 c 1
 123 -107 l 1
 63 -78 l 1
 60 -68 l 1
311 73 m 0
 417 73 485 181 485 371 c 0
 485 412 479 447 468 476 c 1
 245 94 l 1
 263 80 285 73 311 73 c 0
185 261 m 0
 185 222 190 189 199 161 c 1
 419 540 l 1
 401 552 380 559 356 559 c 0
 252 559 185 449 185 261 c 0
EndSplineSet
Validated: 1
EndChar

StartChar: Otilde
Encoding: 213 213 83
Width: 649
Flags: MW
HStem: -12 85<271.5 364 271.5 390.5> 559 94<304 396> 705 96<453 469> 739 96<319 335.5 319 343> 833 20G<529 540 540 540>
LayerCount: 2
Back
Fore
SplineSet
311 73 m 0xd0
 417 73 485 181 485 371 c 0
 485 489 436 559 356 559 c 0
 252 559 185 449 185 261 c 0
 185 143 232 73 311 73 c 0xd0
285 -12 m 0
 132 -12 32 90 32 255 c 0
 32 491 173 653 385 653 c 0
 542 653 641 554 641 390 c 0
 641 153 496 -12 285 -12 c 0
260 687 m 1
 249 687 l 1
 214 724 l 1
 215 735 l 1
 303 831 l 1
 319 835 l 1xd0
 352 835 432 801 460 801 c 0
 483 801 529 853 529 853 c 1
 540 853 l 1
 575 816 l 1
 574 806 l 1
 486 709 l 1
 469 705 l 1xe8
 437 705 357 739 329 739 c 0
 305 739 260 687 260 687 c 1
EndSplineSet
Validated: 1
EndChar

StartChar: P
Encoding: 80 80 84
Width: 558
Flags: MW
HStem: -8 21G<9 9> 0 64<146.5 273> 563 83<304.5 442> 578 68 623 20G<102 113>
LayerCount: 2
Back
Fore
SplineSet
86 584 m 1x90
 102 643 l 1x48
 124 643 182 641 223 641 c 0
 258 641 362 646 362 646 c 1
 522 646 583 568 583 481 c 0
 583 348 459 228 328 228 c 2
 241 228 l 1
 226 125 l 2
 219 79 228 64 265 64 c 0
 281 64 307 67 307 67 c 1
 310 61 l 1
 293 -3 l 1
 293 -3 207 0 171 0 c 0x60
 122 0 10 -7 9 -8 c 2
 24 58 l 1
 78 68 94 85 101 141 c 2
 148 524 l 2
 153 566 148 578 125 578 c 0
 112 578 91 576 91 576 c 1
 86 584 l 1x90
254 315 m 1
 336 303 l 1
 407 319 443 376 443 461 c 0
 443 532 402 563 314 563 c 0x60
 295 563 294 561 292 546 c 0
 279 477 265 395 254 315 c 1
EndSplineSet
Validated: 33
EndChar

StartChar: Q
Encoding: 81 81 85
Width: 654
Flags: MW
HStem: -227 119<615.5 620.5> -12 85 559 94<304 396>
LayerCount: 2
Back
Fore
SplineSet
280 -12 m 1
 130 -10 32 92 32 255 c 0
 32 491 173 653 385 653 c 0
 542 653 641 554 641 390 c 0
 641 202 550 60 408 9 c 1
 408 6 l 1
 502 -72 580 -108 651 -108 c 0
 695 -108 734 -98 734 -98 c 1
 741 -104 l 1
 747 -145 l 1
 747 -145 634 -227 607 -227 c 0
 522 -227 471 -195 280 -12 c 1
311 73 m 0
 417 73 485 181 485 371 c 0
 485 489 436 559 356 559 c 0
 252 559 185 449 185 261 c 0
 185 143 232 73 311 73 c 0
EndSplineSet
Validated: 1
EndChar

StartChar: R
Encoding: 82 82 86
Width: 621
Flags: MW
HStem: -16 21G<450.5 472> -1 21G<145 166.5> 566 80<303.5 431> 578 68
LayerCount: 2
Back
Fore
SplineSet
317 253 m 1x90
 244 253 l 1
 229 140 l 2
 220 73 226 64 288 63 c 1
 291 57 l 1
 274 -4 l 1
 274 -4 188 -1 145 -1 c 0x60
 85 0 5 -6 5 -6 c 1
 22 60 l 1
 77 68 94 84 101 141 c 2
 149 529 l 2
 153 567 148 578 125 578 c 0
 112 578 91 576 91 576 c 1
 86 584 l 1
 102 644 l 1
 102 644 185 641 223 641 c 0
 263 641 363 646 363 646 c 1
 499 646 582 592 582 496 c 0
 582 408 533 334 434 285 c 1
 499 142 l 2
 528 82 555 56 596 56 c 1
 602 47 l 1
 589 -5 l 1
 472 -16 l 1
 429 -16 398 16 377 77 c 2
 317 253 l 1x90
257 340 m 1
 343 330 l 1
 365 339 441 373 441 473 c 0
 441 535 398 566 310 566 c 0
 297 566 294 562 290 544 c 0
 271 444 265 395 257 340 c 1
EndSplineSet
Validated: 33
EndChar

StartChar: Racute
Encoding: 340 340 87
Width: 624
Flags: MW
HStem: -16 21G<450.5 472> -1 21G<145 166.5> 566 80<303.5 431> 578 68 837 20G<474 474>
LayerCount: 2
Back
Fore
SplineSet
317 253 m 1x98
 244 253 l 1
 229 140 l 2
 220 73 226 64 288 63 c 1
 291 57 l 1
 274 -4 l 1
 274 -4 188 -1 145 -1 c 0x68
 85 0 5 -6 5 -6 c 1
 22 60 l 1
 77 68 94 84 101 141 c 2
 149 529 l 2
 153 567 148 578 125 578 c 0
 112 578 91 576 91 576 c 1
 86 584 l 1
 102 644 l 1
 102 644 185 641 223 641 c 0
 263 641 363 646 363 646 c 1
 499 646 582 592 582 496 c 0
 582 408 533 334 434 285 c 1
 499 142 l 2
 528 82 555 56 596 56 c 1
 602 47 l 1
 589 -5 l 1
 472 -16 l 1
 429 -16 398 16 377 77 c 2
 317 253 l 1x98
257 340 m 1
 343 330 l 1
 365 339 441 373 441 473 c 0
 441 535 398 566 310 566 c 0
 297 566 294 562 290 544 c 0
 271 444 265 395 257 340 c 1
512 775 m 1
 507 762 l 1
 507 762 392 733 278 697 c 1
 265 706 l 1
 251 753 l 1
 359 800 474 857 474 857 c 1
 487 852 l 1
 512 775 l 1
EndSplineSet
Validated: 33
EndChar

StartChar: Rcaron
Encoding: 344 344 88
Width: 624
Flags: MW
HStem: -16 21G<450.5 472> -1 21G<145 166.5> 566 80<303.5 431> 578 68 845 20G<261 261 506 506>
LayerCount: 2
Back
Fore
SplineSet
317 253 m 1x98
 244 253 l 1
 229 140 l 2
 220 73 226 64 288 63 c 1
 291 57 l 1
 274 -4 l 1
 274 -4 188 -1 145 -1 c 0x68
 85 0 5 -6 5 -6 c 1
 22 60 l 1
 77 68 94 84 101 141 c 2
 149 529 l 2
 153 567 148 578 125 578 c 0
 112 578 91 576 91 576 c 1
 86 584 l 1
 102 644 l 1
 102 644 185 641 223 641 c 0
 263 641 363 646 363 646 c 1
 499 646 582 592 582 496 c 0
 582 408 533 334 434 285 c 1
 499 142 l 2
 528 82 555 56 596 56 c 1
 602 47 l 1
 589 -5 l 1
 472 -16 l 1
 429 -16 398 16 377 77 c 2
 317 253 l 1x98
257 340 m 1
 343 330 l 1
 365 339 441 373 441 473 c 0
 441 535 398 566 310 566 c 0
 297 566 294 562 290 544 c 0
 271 444 265 395 257 340 c 1
521 861 m 1
 541 820 l 1
 498 791 372 696 372 696 c 1
 353 696 l 1
 353 696 251 791 216 820 c 1
 244 861 l 1
 261 865 l 1
 281 856 363 812 376 807 c 1
 391 812 483 856 506 865 c 1
 521 861 l 1
EndSplineSet
Validated: 33
EndChar

StartChar: Rcommaaccent
Encoding: 342 342 89
Width: 624
Flags: MW
HStem: -318 21G<206 206> -1 21G<145 166.5> 63 190<288 288> 578 68
LayerCount: 2
Back
Fore
SplineSet
317 253 m 1
 244 253 l 1
 229 140 l 2
 220 73 226 64 288 63 c 1
 291 57 l 1
 274 -4 l 1
 274 -4 188 -1 145 -1 c 0
 85 0 5 -6 5 -6 c 1
 22 60 l 1
 77 68 94 84 101 141 c 2
 149 529 l 2
 153 567 148 578 125 578 c 0
 112 578 91 576 91 576 c 1
 86 584 l 1
 102 644 l 1
 102 644 185 641 223 641 c 0
 263 641 363 646 363 646 c 1
 499 646 582 592 582 496 c 0
 582 408 533 334 434 285 c 1
 499 142 l 2
 528 82 555 56 596 56 c 1
 602 47 l 1
 589 -5 l 1
 472 -16 l 1
 429 -16 398 16 377 77 c 2
 317 253 l 1
257 340 m 1
 343 330 l 1
 365 339 441 373 441 473 c 0
 441 535 398 566 310 566 c 0
 297 566 294 562 290 544 c 0
 271 444 265 395 257 340 c 1
202 -100 m 1
 205 -86 l 1
 229 -67 259 -51 284 -51 c 0
 324 -51 353 -84 353 -137 c 0
 353 -208 284 -275 206 -318 c 1
 169 -288 l 1
 169 -271 l 1
 208 -244 237 -203 237 -169 c 0
 237 -142 222 -116 202 -100 c 1
EndSplineSet
Validated: 33
EndChar

StartChar: S
Encoding: 83 83 90
Width: 521
Flags: MW
HStem: -12 87<178.5 251 178.5 280> 440 213 562 91<288 346>
LayerCount: 2
Back
Fore
SplineSet
193 -12 m 0xa0
 91 -12 17 26 17 26 c 1
 10 40 l 1
 10 40 37 126 48 209 c 1
 131 216 l 1
 118 109 138 75 219 75 c 0
 283 75 328 109 328 160 c 0
 328 204 280 232 224 262 c 0
 152 301 69 344 69 438 c 0
 69 562 182 653 343 653 c 0
 439 653 515 627 515 627 c 1
 521 614 l 1
 521 614 494 534 477 443 c 1
 402 437 l 1
 394 443 l 1
 394 443 401 477 401 495 c 0
 401 543 375 562 317 562 c 0
 259 562 216 528 216 482 c 0
 216 447 246 422 286 398 c 0
 364 353 479 312 479 205 c 0
 479 76 367 -12 193 -12 c 0xa0
EndSplineSet
Validated: 8388641
EndChar

StartChar: Sacute
Encoding: 346 346 91
Width: 522
Flags: MW
HStem: -12 87<178.5 251 178.5 280> 440 213 562 91<288 346> 837 20G<445 445>
LayerCount: 2
Back
Fore
SplineSet
193 -12 m 0xb0
 91 -12 17 26 17 26 c 1
 10 40 l 1
 10 40 37 126 48 209 c 1
 131 216 l 1
 118 109 138 75 219 75 c 0
 283 75 328 109 328 160 c 0
 328 204 280 232 224 262 c 0
 152 301 69 344 69 438 c 0
 69 562 182 653 343 653 c 0
 439 653 515 627 515 627 c 1
 521 614 l 1
 521 614 494 534 477 443 c 1
 402 437 l 1
 394 443 l 1
 394 443 401 477 401 495 c 0
 401 543 375 562 317 562 c 0
 259 562 216 528 216 482 c 0
 216 447 246 422 286 398 c 0
 364 353 479 312 479 205 c 0
 479 76 367 -12 193 -12 c 0xb0
483 775 m 1
 478 762 l 1
 478 762 363 733 249 697 c 1
 236 706 l 1
 222 753 l 1
 330 800 445 857 445 857 c 1
 458 852 l 1
 483 775 l 1
EndSplineSet
Validated: 8388641
EndChar

StartChar: Scaron
Encoding: 352 352 92
Width: 522
Flags: MW
HStem: -12 87<178.5 251 178.5 280> 440 213 562 91<288 346> 845 20G<232 232 477 477>
LayerCount: 2
Back
Fore
SplineSet
193 -12 m 0xb0
 91 -12 17 26 17 26 c 1
 10 40 l 1
 10 40 37 126 48 209 c 1
 131 216 l 1
 118 109 138 75 219 75 c 0
 283 75 328 109 328 160 c 0
 328 204 280 232 224 262 c 0
 152 301 69 344 69 438 c 0
 69 562 182 653 343 653 c 0
 439 653 515 627 515 627 c 1
 521 614 l 1
 521 614 494 534 477 443 c 1
 402 437 l 1
 394 443 l 1
 394 443 401 477 401 495 c 0
 401 543 375 562 317 562 c 0
 259 562 216 528 216 482 c 0
 216 447 246 422 286 398 c 0
 364 353 479 312 479 205 c 0
 479 76 367 -12 193 -12 c 0xb0
492 861 m 1
 512 820 l 1
 469 791 343 696 343 696 c 1
 324 696 l 1
 324 696 222 791 187 820 c 1
 215 861 l 1
 232 865 l 1
 252 856 334 812 347 807 c 1
 362 812 454 856 477 865 c 1
 492 861 l 1
EndSplineSet
Validated: 8388641
EndChar

StartChar: Scedilla
Encoding: 350 350 93
Width: 522
Flags: MW
HStem: -238 52<177 201.5> -150 20G<140 148 148 148> -12 87<187 187> 440 213 562 91<288 346>
LayerCount: 2
Back
Fore
SplineSet
158 -86 m 1xe8
 187 -12 l 1
 88 -10 17 26 17 26 c 1
 10 40 l 1
 10 40 37 126 48 209 c 1
 131 216 l 1
 118 109 138 75 219 75 c 0
 283 75 328 109 328 160 c 0
 328 204 280 232 224 262 c 0
 152 301 69 344 69 438 c 0
 69 562 182 653 343 653 c 0
 439 653 515 627 515 627 c 1
 521 614 l 1
 521 614 494 534 477 443 c 1
 402 437 l 1
 394 443 l 1
 394 443 401 477 401 495 c 0
 401 543 375 562 317 562 c 0
 259 562 216 528 216 482 c 0
 216 447 246 422 286 398 c 0
 364 353 479 312 479 205 c 0
 479 88 387 4 239 -10 c 1
 226 -44 l 1
 259 -64 310 -98 310 -136 c 0
 310 -191 237 -238 166 -238 c 0
 134 -238 94 -222 94 -196 c 0
 94 -181 122 -149 140 -130 c 1
 148 -130 l 1
 145 -167 163 -186 191 -186 c 0
 215 -186 233 -173 233 -154 c 0
 233 -133 192 -106 158 -86 c 1xe8
EndSplineSet
Validated: 8388641
EndChar

StartChar: Scommaaccent
Encoding: 536 536 94
Width: 522
Flags: MW
HStem: -318 21G<130 130> -12 87<178.5 251 178.5 280> 562 91<288 346>
LayerCount: 2
Back
Fore
SplineSet
193 -12 m 0
 91 -12 17 26 17 26 c 1
 10 40 l 1
 10 40 37 126 48 209 c 1
 131 216 l 1
 118 109 138 75 219 75 c 0
 283 75 328 109 328 160 c 0
 328 204 280 232 224 262 c 0
 152 301 69 344 69 438 c 0
 69 562 182 653 343 653 c 0
 439 653 515 627 515 627 c 1
 521 614 l 1
 521 614 494 534 477 443 c 1
 402 437 l 1
 394 443 l 1
 394 443 401 477 401 495 c 0
 401 543 375 562 317 562 c 0
 259 562 216 528 216 482 c 0
 216 447 246 422 286 398 c 0
 364 353 479 312 479 205 c 0
 479 76 367 -12 193 -12 c 0
126 -100 m 1
 129 -86 l 1
 153 -67 183 -51 208 -51 c 0
 248 -51 277 -84 277 -137 c 0
 277 -208 208 -275 130 -318 c 1
 93 -288 l 1
 93 -271 l 1
 132 -244 161 -203 161 -169 c 0
 161 -142 146 -116 126 -100 c 1
EndSplineSet
Validated: 33
EndChar

StartChar: T
Encoding: 84 84 95
Width: 549
Flags: MW
HStem: -6 21G<75 75> 0 65 566 76<249 249> 633 20G<79 79 576 576>
LayerCount: 2
Back
Fore
SplineSet
200 165 m 2xa0
 249 566 l 1
 145 562 138 549 112 435 c 1
 29 429 l 1
 29 429 52 545 66 642 c 1x60
 79 653 l 1x50
 173 642 l 1
 475 642 l 1x60
 576 653 l 1x50
 585 642 l 1
 574 543 569 435 569 435 c 1
 486 429 l 1
 487 551 485 562 388 566 c 1
 370 469 323 153 323 116 c 0
 323 80 336 65 368 65 c 0
 398 65 421 68 421 68 c 1
 424 63 l 1
 407 -4 l 1
 407 -4 289 0 238 0 c 0x60
 184 0 75 -6 75 -6 c 1
 91 59 l 1
 176 67 189 79 200 165 c 2xa0
EndSplineSet
Validated: 33
EndChar

StartChar: Tbar
Encoding: 358 358 96
Width: 551
Flags: MW
HStem: -6 21G<75 75> 0 65 277 55 566 76<249 249> 633 20G<79 79 576 576>
LayerCount: 2
Back
Fore
SplineSet
200 165 m 2xb0
 213 276 l 1
 130 276 l 1
 120 285 l 1
 127 333 l 1
 220 332 l 1
 249 566 l 1
 145 562 138 549 112 435 c 1
 29 429 l 1
 29 429 52 545 66 642 c 1x70
 79 653 l 1x68
 173 642 l 1
 475 642 l 1x70
 576 653 l 1x68
 585 642 l 1
 574 543 569 435 569 435 c 1
 486 429 l 1
 487 551 485 562 388 566 c 1
 379 520 364 425 351 334 c 1
 427 337 l 1
 441 323 l 1
 437 277 l 1
 342 277 l 1
 331 198 323 132 323 116 c 0
 323 80 336 65 368 65 c 0
 398 65 421 68 421 68 c 1
 424 63 l 1
 407 -4 l 1
 407 -4 289 0 238 0 c 0x70
 184 0 75 -6 75 -6 c 1
 91 59 l 1
 176 67 189 79 200 165 c 2xb0
EndSplineSet
Validated: 33
EndChar

StartChar: Tcaron
Encoding: 356 356 97
Width: 551
Flags: MW
HStem: -6 21G<75 75> 0 65 566 76<249 249> 845 20G<236 236 481 481>
LayerCount: 2
Back
Fore
SplineSet
200 165 m 2xb0
 249 566 l 1
 145 562 138 549 112 435 c 1
 29 429 l 1
 29 429 52 545 66 642 c 1
 79 653 l 1
 173 642 l 1
 475 642 l 1
 576 653 l 1
 585 642 l 1
 574 543 569 435 569 435 c 1
 486 429 l 1
 487 551 485 562 388 566 c 1
 370 469 323 153 323 116 c 0
 323 80 336 65 368 65 c 0
 398 65 421 68 421 68 c 1
 424 63 l 1
 407 -4 l 1
 407 -4 289 0 238 0 c 0x70
 184 0 75 -6 75 -6 c 1
 91 59 l 1
 176 67 189 79 200 165 c 2xb0
496 861 m 1
 516 820 l 1
 473 791 347 696 347 696 c 1
 328 696 l 1
 328 696 226 791 191 820 c 1
 219 861 l 1
 236 865 l 1
 256 856 338 812 351 807 c 1
 366 812 458 856 481 865 c 1
 496 861 l 1
EndSplineSet
Validated: 33
EndChar

StartChar: Tcedilla
Encoding: 354 354 98
Width: 551
Flags: MW
HStem: -238 52<207 231.5> -150 20G<170 178 178 178> 0 65 566 76<249 249> 633 20G<79 79 576 576>
LayerCount: 2
Back
Fore
SplineSet
188 -86 m 1xf0
 221 0 l 1
 164 -1 75 -6 75 -6 c 1
 91 59 l 1
 176 67 189 79 200 165 c 2
 249 566 l 1
 145 562 138 549 112 435 c 1
 29 429 l 1
 29 429 52 545 66 642 c 1xf0
 79 653 l 1xe8
 173 642 l 1
 475 642 l 1xf0
 576 653 l 1xe8
 585 642 l 1
 574 543 569 435 569 435 c 1
 486 429 l 1
 487 551 485 562 388 566 c 1
 370 469 323 153 323 116 c 0
 323 80 336 65 368 65 c 0
 398 65 421 68 421 68 c 1
 424 63 l 1
 407 -4 l 1
 407 -4 330 -1 273 0 c 1
 256 -44 l 1
 289 -64 340 -98 340 -136 c 0
 340 -191 267 -238 196 -238 c 0
 164 -238 124 -222 124 -196 c 0
 124 -181 152 -149 170 -130 c 1
 178 -130 l 1
 175 -167 193 -186 221 -186 c 0
 245 -186 263 -173 263 -154 c 0
 263 -133 222 -106 188 -86 c 1xf0
EndSplineSet
Validated: 33
EndChar

StartChar: Thorn
Encoding: 222 222 99
Width: 555
Flags: MW
HStem: -9 21G<4 4> 0 65 431 81<287 336.5> 577 65 623 20G<96 109.5> 629 20G<372 372>
LayerCount: 2
Back
Fore
SplineSet
291 536 m 2x64
 287 512 l 1
 359 512 l 2
 493 512 560 460 560 360 c 0
 560 236 442 144 300 144 c 2
 232 144 l 1
 228 114 l 2
 223 74 229 65 258 65 c 0
 284 65 304 68 304 68 c 1
 308 61 l 1
 292 -3 l 1
 292 -3 187 0 142 0 c 0x70
 88 0 4 -9 4 -9 c 1
 19 56 l 1
 76 68 92 84 99 140 c 2
 147 525 l 2
 152 566 146 577 118 577 c 0xb0
 106 577 86 576 86 576 c 1
 81 584 l 1
 96 643 l 1x68
 123 643 186 642 232 642 c 0x70
 275 642 372 649 372 649 c 1
 359 582 l 1
 307 574 296 566 291 536 c 2x64
271 417 m 2
 243 232 l 1
 267 225 302 218 321 218 c 0
 385 229 416 274 416 342 c 0
 416 404 378 431 295 431 c 0
 278 431 273 428 271 417 c 2
EndSplineSet
Validated: 33
EndChar

StartChar: U
Encoding: 85 85 100
Width: 631
Flags: MW
HStem: -12 89<278.5 350.5 278.5 359.5> 578 63 628 20G<331 331 667 667>
LayerCount: 2
Back
Fore
SplineSet
256 528 m 2xa0
 213 237 l 2
 212 223 211 208 211 197 c 0
 210 119 245 77 312 77 c 0
 389 77 433 120 444 209 c 0
 453 275 480 524 480 524 c 2
 484 568 480 578 456 578 c 0
 446 578 424 576 424 576 c 1
 422 580 l 1
 438 644 l 1
 438 644 514 641 550 641 c 0xc0
 600 641 667 648 667 648 c 1xa0
 653 582 l 1
 603 572 595 565 591 532 c 2
 552 219 l 2
 533 68 439 -12 280 -12 c 0
 143 -12 75 49 75 165 c 0
 75 178 76 191 78 205 c 2
 118 524 l 2
 123 568 119 578 92 578 c 0
 81 578 62 576 62 576 c 1
 60 580 l 1
 77 644 l 1
 77 644 159 641 215 641 c 0xc0
 255 641 331 648 331 648 c 1
 316 581 l 1
 275 576 261 563 256 528 c 2xa0
EndSplineSet
Validated: 33
EndChar

StartChar: Uacute
Encoding: 218 218 101
Width: 629
Flags: MW
HStem: -12 89<278.5 350.5 278.5 359.5> 578 63 837 20G<506 506>
LayerCount: 2
Back
Fore
SplineSet
256 528 m 2
 213 237 l 2
 212 223 211 208 211 197 c 0
 210 119 245 77 312 77 c 0
 389 77 433 120 444 209 c 0
 453 275 480 524 480 524 c 2
 484 568 480 578 456 578 c 0
 446 578 424 576 424 576 c 1
 422 580 l 1
 438 644 l 1
 438 644 514 641 550 641 c 0
 600 641 667 648 667 648 c 1
 653 582 l 1
 603 572 595 565 591 532 c 2
 552 219 l 2
 533 68 439 -12 280 -12 c 0
 143 -12 75 49 75 165 c 0
 75 178 76 191 78 205 c 2
 118 524 l 2
 123 568 119 578 92 578 c 0
 81 578 62 576 62 576 c 1
 60 580 l 1
 77 644 l 1
 77 644 159 641 215 641 c 0
 255 641 331 648 331 648 c 1
 316 581 l 1
 275 576 261 563 256 528 c 2
544 775 m 1
 539 762 l 1
 539 762 424 733 310 697 c 1
 297 706 l 1
 283 753 l 1
 391 800 506 857 506 857 c 1
 519 852 l 1
 544 775 l 1
EndSplineSet
Validated: 33
EndChar

StartChar: Ucircumflex
Encoding: 219 219 102
Width: 629
Flags: MW
HStem: -12 89<278.5 350.5 278.5 359.5> 578 63
LayerCount: 2
Back
Fore
SplineSet
256 528 m 2
 213 237 l 2
 212 223 211 208 211 197 c 0
 210 119 245 77 312 77 c 0
 389 77 433 120 444 209 c 0
 453 275 480 524 480 524 c 2
 484 568 480 578 456 578 c 0
 446 578 424 576 424 576 c 1
 422 580 l 1
 438 644 l 1
 438 644 514 641 550 641 c 0
 600 641 667 648 667 648 c 1
 653 582 l 1
 603 572 595 565 591 532 c 2
 552 219 l 2
 533 68 439 -12 280 -12 c 0
 143 -12 75 49 75 165 c 0
 75 178 76 191 78 205 c 2
 118 524 l 2
 123 568 119 578 92 578 c 0
 81 578 62 576 62 576 c 1
 60 580 l 1
 77 644 l 1
 77 644 159 641 215 641 c 0
 255 641 331 648 331 648 c 1
 316 581 l 1
 275 576 261 563 256 528 c 2
254 711 m 1
 235 752 l 1
 278 781 403 876 403 876 c 1
 423 876 l 2
 423 879 525 782 560 752 c 1
 531 711 l 1
 514 707 l 1
 495 716 412 760 399 765 c 1
 384 760 292 716 269 707 c 1
 254 711 l 1
EndSplineSet
Validated: 33
EndChar

StartChar: Udieresis
Encoding: 220 220 103
Width: 629
Flags: MW
HStem: -12 89<278.5 350.5 278.5 359.5> 578 63 711 128<302 323 475.5 496>
LayerCount: 2
Back
Fore
SplineSet
256 528 m 2
 213 237 l 2
 212 223 211 208 211 197 c 0
 210 119 245 77 312 77 c 0
 389 77 433 120 444 209 c 0
 453 275 480 524 480 524 c 2
 484 568 480 578 456 578 c 0
 446 578 424 576 424 576 c 1
 422 580 l 1
 438 644 l 1
 438 644 514 641 550 641 c 0
 600 641 667 648 667 648 c 1
 653 582 l 1
 603 572 595 565 591 532 c 2
 552 219 l 2
 533 68 439 -12 280 -12 c 0
 143 -12 75 49 75 165 c 0
 75 178 76 191 78 205 c 2
 118 524 l 2
 123 568 119 578 92 578 c 0
 81 578 62 576 62 576 c 1
 60 580 l 1
 77 644 l 1
 77 644 159 641 215 641 c 0
 255 641 331 648 331 648 c 1
 316 581 l 1
 275 576 261 563 256 528 c 2
474 711 m 0
 440 711 422 732 422 763 c 0
 422 807 454 839 497 839 c 0
 531 839 549 818 549 787 c 0
 549 744 518 711 474 711 c 0
301 711 m 0
 266 711 249 732 249 763 c 0
 249 807 280 839 324 839 c 0
 358 839 376 818 376 787 c 0
 376 744 345 711 301 711 c 0
EndSplineSet
Validated: 33
EndChar

StartChar: Ugrave
Encoding: 217 217 104
Width: 629
Flags: MW
HStem: -12 89<278.5 350.5 278.5 359.5> 578 63 837 20G<277 277>
LayerCount: 2
Back
Fore
SplineSet
256 528 m 2
 213 237 l 2
 212 223 211 208 211 197 c 0
 210 119 245 77 312 77 c 0
 389 77 433 120 444 209 c 0
 453 275 480 524 480 524 c 2
 484 568 480 578 456 578 c 0
 446 578 424 576 424 576 c 1
 422 580 l 1
 438 644 l 1
 438 644 514 641 550 641 c 0
 600 641 667 648 667 648 c 1
 653 582 l 1
 603 572 595 565 591 532 c 2
 552 219 l 2
 533 68 439 -12 280 -12 c 0
 143 -12 75 49 75 165 c 0
 75 178 76 191 78 205 c 2
 118 524 l 2
 123 568 119 578 92 578 c 0
 81 578 62 576 62 576 c 1
 60 580 l 1
 77 644 l 1
 77 644 159 641 215 641 c 0
 255 641 331 648 331 648 c 1
 316 581 l 1
 275 576 261 563 256 528 c 2
244 762 m 1
 239 775 l 1
 264 852 l 1
 277 857 l 1
 277 857 392 800 500 753 c 1
 487 706 l 1
 473 697 l 1
 359 733 244 762 244 762 c 1
EndSplineSet
Validated: 33
EndChar

StartChar: Uhungarumlaut
Encoding: 368 368 105
Width: 629
Flags: MW
HStem: -12 89<278.5 350.5 278.5 359.5> 578 63 837 20G<387 387>
LayerCount: 2
Back
Fore
SplineSet
256 528 m 2
 213 237 l 2
 212 223 211 208 211 197 c 0
 210 119 245 77 312 77 c 0
 389 77 433 120 444 209 c 0
 453 275 480 524 480 524 c 2
 484 568 480 578 456 578 c 0
 446 578 424 576 424 576 c 1
 422 580 l 1
 438 644 l 1
 438 644 514 641 550 641 c 0
 600 641 667 648 667 648 c 1
 653 582 l 1
 603 572 595 565 591 532 c 2
 552 219 l 2
 533 68 439 -12 280 -12 c 0
 143 -12 75 49 75 165 c 0
 75 178 76 191 78 205 c 2
 118 524 l 2
 123 568 119 578 92 578 c 0
 81 578 62 576 62 576 c 1
 60 580 l 1
 77 644 l 1
 77 644 159 641 215 641 c 0
 255 641 331 648 331 648 c 1
 316 581 l 1
 275 576 261 563 256 528 c 2
442 794 m 1
 441 782 l 1
 441 782 356 736 272 684 c 1
 259 689 l 1
 236 723 l 1
 310 787 387 857 387 857 c 1
 399 856 l 1
 442 794 l 1
610 790 m 1
 608 778 l 1
 608 778 524 732 440 680 c 1
 427 684 l 1
 404 718 l 1
 478 782 555 852 555 852 c 1
 567 850 l 1
 610 790 l 1
EndSplineSet
Validated: 33
EndChar

StartChar: Umacron
Encoding: 362 362 106
Width: 629
Flags: MW
HStem: -12 89<278.5 350.5 278.5 359.5> 578 63 713 86<363.5 444.5> 785 20G<543 543>
LayerCount: 2
Back
Fore
SplineSet
256 528 m 2xd0
 213 237 l 2
 212 223 211 208 211 197 c 0
 210 119 245 77 312 77 c 0
 389 77 433 120 444 209 c 0
 453 275 480 524 480 524 c 2
 484 568 480 578 456 578 c 0
 446 578 424 576 424 576 c 1
 422 580 l 1
 438 644 l 1
 438 644 514 641 550 641 c 0
 600 641 667 648 667 648 c 1
 653 582 l 1
 603 572 595 565 591 532 c 2
 552 219 l 2
 533 68 439 -12 280 -12 c 0
 143 -12 75 49 75 165 c 0
 75 178 76 191 78 205 c 2
 118 524 l 2
 123 568 119 578 92 578 c 0
 81 578 62 576 62 576 c 1
 60 580 l 1
 77 644 l 1
 77 644 159 641 215 641 c 0
 255 641 331 648 331 648 c 1
 316 581 l 1
 275 576 261 563 256 528 c 2xd0
543 805 m 1
 550 791 l 1
 528 714 l 1
 392 713 l 2
 335 713 258 712 258 712 c 1
 249 724 l 1
 272 800 l 1
 272 800 364 799 420 799 c 0xe0
 469 799 543 805 543 805 c 1
EndSplineSet
Validated: 33
EndChar

StartChar: Uogonek
Encoding: 370 370 107
Width: 629
Flags: MW
HStem: -241 72<339.5 408.5> -12 89<278.5 294.5> 578 63 628 20G<331 331 667 667>
LayerCount: 2
Back
Fore
SplineSet
464 -145 m 1xd0
 479 -174 l 1
 479 -174 422 -224 373 -241 c 1
 306 -241 266 -210 266 -160 c 0
 266 -117 292 -74 362 -3 c 1
 338 -9 309 -12 280 -12 c 0
 144 -12 75 48 75 165 c 0
 75 178 76 191 78 205 c 2
 118 524 l 2
 123 569 118 578 92 578 c 0
 81 578 62 576 62 576 c 1
 60 580 l 1
 77 644 l 1
 77 644 159 641 215 641 c 0xe0
 255 641 331 648 331 648 c 1xd0
 316 581 l 1
 275 576 261 563 256 528 c 2
 213 237 l 2
 212 222 211 207 211 197 c 0
 210 118 245 77 312 77 c 0
 389 77 433 119 444 209 c 0
 453 275 480 524 480 524 c 2
 484 569 480 578 456 578 c 0
 446 578 424 576 424 576 c 1
 422 580 l 1
 438 644 l 1
 438 644 514 641 550 641 c 0xe0
 600 641 667 648 667 648 c 1
 653 582 l 1
 602 571 594 563 591 532 c 2
 552 219 l 2
 543 150 514 91 467 40 c 0
 377 -56 351 -94 351 -128 c 0
 351 -152 368 -169 392 -169 c 0
 425 -169 464 -145 464 -145 c 1xd0
EndSplineSet
Validated: 33
EndChar

StartChar: Uring
Encoding: 366 366 108
Width: 629
Flags: MW
HStem: -12 89<278.5 350.5 278.5 359.5> 578 63 678 186<384 417.5> 711 20G<389 404.5> 809 55<387.5 414>
LayerCount: 2
Back
Fore
SplineSet
256 528 m 2xd8
 213 237 l 2
 212 223 211 208 211 197 c 0
 210 119 245 77 312 77 c 0
 389 77 433 120 444 209 c 0
 453 275 480 524 480 524 c 2
 484 568 480 578 456 578 c 0
 446 578 424 576 424 576 c 1
 422 580 l 1
 438 644 l 1
 438 644 514 641 550 641 c 0
 600 641 667 648 667 648 c 1
 653 582 l 1
 603 572 595 565 591 532 c 2
 552 219 l 2
 533 68 439 -12 280 -12 c 0
 143 -12 75 49 75 165 c 0
 75 178 76 191 78 205 c 2
 118 524 l 2
 123 568 119 578 92 578 c 0
 81 578 62 576 62 576 c 1
 60 580 l 1
 77 644 l 1
 77 644 159 641 215 641 c 0
 255 641 331 648 331 648 c 1
 316 581 l 1
 275 576 261 563 256 528 c 2xd8
397 731 m 0
 412 731 441 737 441 773 c 0
 441 795 427 809 401 809 c 0
 374 809 359 792 359 768 c 0
 359 741 381 731 397 731 c 0
384 678 m 0xe0
 334 678 308 710 308 756 c 0
 308 817 353 864 415 864 c 0
 471 864 492 828 492 789 c 0
 492 733 451 678 384 678 c 0xe0
EndSplineSet
Validated: 33
EndChar

StartChar: V
Encoding: 86 86 109
Width: 603
Flags: MW
HStem: -15 21G<184 184> 579 62 630 20G<339 339>
LayerCount: 2
Back
Fore
SplineSet
104 516 m 0xc0
 98 558 79 576 40 578 c 1
 37 585 l 1
 52 644 l 1
 52 644 131 641 173 641 c 0xc0
 244 641 339 650 339 650 c 1xa0
 342 642 l 1
 330 582 l 1
 263 576 251 566 251 535 c 0
 251 470 288 129 288 129 c 1
 303 129 l 1
 348 229 475 520 475 551 c 0
 475 570 462 579 430 579 c 2
 392 579 l 1
 388 586 l 1
 402 647 l 1
 402 647 484 641 545 641 c 0
 596 641 658 644 658 644 c 1
 643 579 l 1
 611 574 602 566 584 527 c 2
 349 5 l 1
 184 -15 l 1
 184 -15 137 325 104 516 c 0xc0
EndSplineSet
Validated: 1
EndChar

StartChar: W
Encoding: 87 87 110
Width: 930
Flags: MW
HStem: -15 21G<174 174 522 522> 579 62 630 20G<329 329 676 676>
LayerCount: 2
Back
Fore
SplineSet
681 5 m 1xc0
 522 -15 l 1
 484 346 l 1
 474 346 l 1
 334 5 l 1
 174 -15 l 1
 174 -15 133 325 103 516 c 0
 95 559 78 575 42 578 c 1
 38 585 l 1
 53 644 l 1
 53 644 129 641 169 641 c 0xc0
 248 641 329 650 329 650 c 1xa0
 333 642 l 1
 321 582 l 1
 257 576 243 566 243 535 c 0
 243 464 278 129 278 129 c 1
 292 129 l 1
 338 240 400 392 442 491 c 1
 445 524 442 525 439 533 c 0
 436 566 419 577 374 578 c 1
 370 585 l 1
 386 644 l 1
 386 644 473 641 517 641 c 0xc0
 590 641 676 650 676 650 c 1xa0
 680 642 l 1
 668 582 l 1
 602 576 589 567 589 535 c 0
 589 469 625 129 625 129 c 1
 639 129 l 1
 693 255 807 529 807 555 c 0
 807 573 795 579 763 579 c 2
 727 579 l 1
 723 586 l 1
 738 647 l 1
 738 647 817 641 876 641 c 0
 924 641 983 644 983 644 c 1
 969 579 l 1
 939 574 929 565 912 527 c 2
 681 5 l 1xc0
EndSplineSet
Validated: 33
EndChar

StartChar: Wacute
Encoding: 7810 7810 111
Width: 933
Flags: MW
HStem: -15 21G<174 174 522 522> 579 62 837 20G<661 661>
LayerCount: 2
Back
Fore
SplineSet
681 5 m 1
 522 -15 l 1
 484 346 l 1
 474 346 l 1
 334 5 l 1
 174 -15 l 1
 174 -15 133 325 103 516 c 0
 95 559 78 575 42 578 c 1
 38 585 l 1
 53 644 l 1
 53 644 129 641 169 641 c 0
 248 641 329 650 329 650 c 1
 333 642 l 1
 321 582 l 1
 257 576 243 566 243 535 c 0
 243 464 278 129 278 129 c 1
 292 129 l 1
 338 240 400 392 442 491 c 1
 445 524 442 525 439 533 c 0
 436 566 419 577 374 578 c 1
 370 585 l 1
 386 644 l 1
 386 644 473 641 517 641 c 0
 590 641 676 650 676 650 c 1
 680 642 l 1
 668 582 l 1
 602 576 589 567 589 535 c 0
 589 469 625 129 625 129 c 1
 639 129 l 1
 693 255 807 529 807 555 c 0
 807 573 795 579 763 579 c 2
 727 579 l 1
 723 586 l 1
 738 647 l 1
 738 647 817 641 876 641 c 0
 924 641 983 644 983 644 c 1
 969 579 l 1
 939 574 929 565 912 527 c 2
 681 5 l 1
699 775 m 1
 694 762 l 1
 694 762 579 733 465 697 c 1
 452 706 l 1
 438 753 l 1
 546 800 661 857 661 857 c 1
 674 852 l 1
 699 775 l 1
EndSplineSet
Validated: 33
EndChar

StartChar: Wcircumflex
Encoding: 372 372 112
Width: 933
Flags: MW
HStem: -15 21G<174 174 522 522> 579 62
LayerCount: 2
Back
Fore
SplineSet
681 5 m 1
 522 -15 l 1
 484 346 l 1
 474 346 l 1
 334 5 l 1
 174 -15 l 1
 174 -15 133 325 103 516 c 0
 95 559 78 575 42 578 c 1
 38 585 l 1
 53 644 l 1
 53 644 129 641 169 641 c 0
 248 641 329 650 329 650 c 1
 333 642 l 1
 321 582 l 1
 257 576 243 566 243 535 c 0
 243 464 278 129 278 129 c 1
 292 129 l 1
 338 240 400 392 442 491 c 1
 445 524 442 525 439 533 c 0
 436 566 419 577 374 578 c 1
 370 585 l 1
 386 644 l 1
 386 644 473 641 517 641 c 0
 590 641 676 650 676 650 c 1
 680 642 l 1
 668 582 l 1
 602 576 589 567 589 535 c 0
 589 469 625 129 625 129 c 1
 639 129 l 1
 693 255 807 529 807 555 c 0
 807 573 795 579 763 579 c 2
 727 579 l 1
 723 586 l 1
 738 647 l 1
 738 647 817 641 876 641 c 0
 924 641 983 644 983 644 c 1
 969 579 l 1
 939 574 929 565 912 527 c 2
 681 5 l 1
405 711 m 1
 386 752 l 1
 429 781 554 876 554 876 c 1
 574 876 l 2
 574 879 676 782 711 752 c 1
 682 711 l 1
 665 707 l 1
 646 716 563 760 550 765 c 1
 535 760 443 716 420 707 c 1
 405 711 l 1
EndSplineSet
Validated: 33
EndChar

StartChar: Wdieresis
Encoding: 7812 7812 113
Width: 933
Flags: MW
HStem: -15 21G<174 174 522 522> 579 62 706 128<453 474 626.5 647>
LayerCount: 2
Back
Fore
SplineSet
681 5 m 1
 522 -15 l 1
 484 346 l 1
 474 346 l 1
 334 5 l 1
 174 -15 l 1
 174 -15 133 325 103 516 c 0
 95 559 78 575 42 578 c 1
 38 585 l 1
 53 644 l 1
 53 644 129 641 169 641 c 0
 248 641 329 650 329 650 c 1
 333 642 l 1
 321 582 l 1
 257 576 243 566 243 535 c 0
 243 464 278 129 278 129 c 1
 292 129 l 1
 338 240 400 392 442 491 c 1
 445 524 442 525 439 533 c 0
 436 566 419 577 374 578 c 1
 370 585 l 1
 386 644 l 1
 386 644 473 641 517 641 c 0
 590 641 676 650 676 650 c 1
 680 642 l 1
 668 582 l 1
 602 576 589 567 589 535 c 0
 589 469 625 129 625 129 c 1
 639 129 l 1
 693 255 807 529 807 555 c 0
 807 573 795 579 763 579 c 2
 727 579 l 1
 723 586 l 1
 738 647 l 1
 738 647 817 641 876 641 c 0
 924 641 983 644 983 644 c 1
 969 579 l 1
 939 574 929 565 912 527 c 2
 681 5 l 1
625 706 m 0
 591 706 573 727 573 758 c 0
 573 802 605 834 648 834 c 0
 682 834 700 813 700 782 c 0
 700 739 669 706 625 706 c 0
452 706 m 0
 417 706 400 727 400 758 c 0
 400 802 431 834 475 834 c 0
 509 834 527 813 527 782 c 0
 527 739 496 706 452 706 c 0
EndSplineSet
Validated: 33
EndChar

StartChar: Wgrave
Encoding: 7808 7808 114
Width: 933
Flags: MW
HStem: -15 21G<174 174 522 522> 579 62 837 20G<429 429>
LayerCount: 2
Back
Fore
SplineSet
681 5 m 1
 522 -15 l 1
 484 346 l 1
 474 346 l 1
 334 5 l 1
 174 -15 l 1
 174 -15 133 325 103 516 c 0
 95 559 78 575 42 578 c 1
 38 585 l 1
 53 644 l 1
 53 644 129 641 169 641 c 0
 248 641 329 650 329 650 c 1
 333 642 l 1
 321 582 l 1
 257 576 243 566 243 535 c 0
 243 464 278 129 278 129 c 1
 292 129 l 1
 338 240 400 392 442 491 c 1
 445 524 442 525 439 533 c 0
 436 566 419 577 374 578 c 1
 370 585 l 1
 386 644 l 1
 386 644 473 641 517 641 c 0
 590 641 676 650 676 650 c 1
 680 642 l 1
 668 582 l 1
 602 576 589 567 589 535 c 0
 589 469 625 129 625 129 c 1
 639 129 l 1
 693 255 807 529 807 555 c 0
 807 573 795 579 763 579 c 2
 727 579 l 1
 723 586 l 1
 738 647 l 1
 738 647 817 641 876 641 c 0
 924 641 983 644 983 644 c 1
 969 579 l 1
 939 574 929 565 912 527 c 2
 681 5 l 1
396 762 m 1
 391 775 l 1
 416 852 l 1
 429 857 l 1
 429 857 544 800 652 753 c 1
 639 706 l 1
 625 697 l 1
 511 733 396 762 396 762 c 1
EndSplineSet
Validated: 33
EndChar

StartChar: X
Encoding: 88 88 115
Width: 659
Flags: MW
HStem: -7 21G<316 316> 1 58 583 58 625 20G<456 468.5 693 693> 629 20G<379 379>
LayerCount: 2
Back
Fore
SplineSet
148 199 m 2x60
 260 330 l 1
 177 493 l 2
 148 549 115 567 63 576 c 1
 61 581 l 1
 76 644 l 1
 76 644 157 641 229 641 c 0x60
 289 641 379 649 379 649 c 1x48
 382 640 l 1
 370 583 l 1
 328 581 309 571 309 551 c 0
 309 529 337 474 375 398 c 1
 416 453 489 537 489 561 c 0
 489 575 476 581 445 583 c 0x60
 445 584 444 586 444 588 c 2
 456 645 l 1x50
 481 645 541 641 584 641 c 0x60
 631 641 693 645 693 645 c 1
 696 638 l 1
 683 578 l 1
 621 558 594 533 543 472 c 2
 421 322 l 1
 513 150 l 2
 543 95 575 70 629 66 c 1
 615 -2 l 1
 615 -2 531 1 491 1 c 0x50
 441 1 316 -7 316 -7 c 1xa0
 312 0 l 1
 324 59 l 1
 362 62 380 71 380 91 c 0
 380 100 376 111 369 124 c 2
 304 254 l 1
 228 159 l 2
 196 120 187 104 187 88 c 0
 187 71 200 63 230 61 c 1
 233 55 l 1
 220 -6 l 1
 220 -6 128 1 94 1 c 0
 57 1 -17 -4 -17 -4 c 1
 -20 6 l 1
 -8 65 l 1
 37 81 93 134 148 199 c 2x60
EndSplineSet
Validated: 1
EndChar

StartChar: Y
Encoding: 89 89 116
Width: 578
Flags: MW
HStem: -11 21G<101 101> 0 65 583 58 625 20G<408 420.5 636 636> 629 20G<330 330>
LayerCount: 2
Back
Fore
SplineSet
261 551 m 0x60
 261 523 310 366 317 344 c 1
 325 344 l 1
 422 512 l 2
 434 532 441 550 441 562 c 0
 441 575 428 581 395 583 c 1x60
 393 588 l 1
 408 645 l 1x50
 433 645 493 641 536 641 c 0x60
 580 641 636 645 636 645 c 1
 639 638 l 1
 624 578 l 1
 568 560 541 527 492 450 c 2
 378 271 l 2
 355 235 353 206 343 131 c 0
 336 82 344 65 380 65 c 0
 402 65 428 68 428 68 c 1
 431 63 l 1
 414 -4 l 1
 414 -4 303 0 255 0 c 0x50
 199 0 101 -11 101 -11 c 1
 116 56 l 1
 193 67 208 84 215 151 c 2
 219 182 l 2
 223 217 221 241 204 285 c 2
 133 475 l 2
 111 537 95 564 37 576 c 1
 34 581 l 1
 50 644 l 1
 50 644 136 641 174 641 c 0xa0
 224 641 330 649 330 649 c 1x48
 334 640 l 1
 321 583 l 1
 273 580 261 572 261 551 c 0x60
EndSplineSet
Validated: 33
EndChar

StartChar: Yacute
Encoding: 221 221 117
Width: 582
Flags: MW
HStem: -11 21G<101 101> 0 65 583 58 625 20G<408 420.5 636 636> 837 20G<489 489>
LayerCount: 2
Back
Fore
SplineSet
261 551 m 0xa8
 261 523 310 366 317 344 c 1
 325 344 l 1
 422 512 l 2
 434 532 441 550 441 562 c 0
 441 575 428 581 395 583 c 1x68
 393 588 l 1
 408 645 l 1x58
 433 645 493 641 536 641 c 0x68
 580 641 636 645 636 645 c 1
 639 638 l 1
 624 578 l 1
 568 560 541 527 492 450 c 2
 378 271 l 2
 355 235 353 206 343 131 c 0
 336 82 344 65 380 65 c 0
 402 65 428 68 428 68 c 1
 431 63 l 1
 414 -4 l 1
 414 -4 303 0 255 0 c 0x58
 199 0 101 -11 101 -11 c 1
 116 56 l 1
 193 67 208 84 215 151 c 2
 219 182 l 2
 223 217 221 241 204 285 c 2
 133 475 l 2
 111 537 95 564 37 576 c 1
 34 581 l 1
 50 644 l 1
 50 644 136 641 174 641 c 0
 224 641 330 649 330 649 c 1
 334 640 l 1
 321 583 l 1
 273 580 261 572 261 551 c 0xa8
527 775 m 1
 522 762 l 1
 522 762 407 733 293 697 c 1
 280 706 l 1
 266 753 l 1
 374 800 489 857 489 857 c 1
 502 852 l 1
 527 775 l 1
EndSplineSet
Validated: 33
EndChar

StartChar: Ycircumflex
Encoding: 374 374 118
Width: 582
Flags: MW
HStem: -11 21G<101 101> 0 65 583 58 625 20G<408 420.5 636 636>
LayerCount: 2
Back
Fore
SplineSet
261 551 m 0xa0
 261 523 310 366 317 344 c 1
 325 344 l 1
 422 512 l 2
 434 532 441 550 441 562 c 0
 441 575 428 581 395 583 c 1x60
 393 588 l 1
 408 645 l 1x50
 433 645 493 641 536 641 c 0x60
 580 641 636 645 636 645 c 1
 639 638 l 1
 624 578 l 1
 568 560 541 527 492 450 c 2
 378 271 l 2
 355 235 353 206 343 131 c 0
 336 82 344 65 380 65 c 0
 402 65 428 68 428 68 c 1
 431 63 l 1
 414 -4 l 1
 414 -4 303 0 255 0 c 0x50
 199 0 101 -11 101 -11 c 1
 116 56 l 1
 193 67 208 84 215 151 c 2
 219 182 l 2
 223 217 221 241 204 285 c 2
 133 475 l 2
 111 537 95 564 37 576 c 1
 34 581 l 1
 50 644 l 1
 50 644 136 641 174 641 c 0
 224 641 330 649 330 649 c 1
 334 640 l 1
 321 583 l 1
 273 580 261 572 261 551 c 0xa0
232 711 m 1
 213 752 l 1
 256 781 381 876 381 876 c 1
 401 876 l 2
 401 879 503 782 538 752 c 1
 509 711 l 1
 492 707 l 1
 473 716 390 760 377 765 c 1
 362 760 270 716 247 707 c 1
 232 711 l 1
EndSplineSet
Validated: 33
EndChar

StartChar: Ydieresis
Encoding: 376 376 119
Width: 582
Flags: MW
HStem: -11 21G<101 101> 0 65 583 58 625 20G<408 420.5 636 636> 706 128<281 302 454.5 475>
LayerCount: 2
Back
Fore
SplineSet
261 551 m 0xa8
 261 523 310 366 317 344 c 1
 325 344 l 1
 422 512 l 2
 434 532 441 550 441 562 c 0
 441 575 428 581 395 583 c 1x68
 393 588 l 1
 408 645 l 1x58
 433 645 493 641 536 641 c 0x68
 580 641 636 645 636 645 c 1
 639 638 l 1
 624 578 l 1
 568 560 541 527 492 450 c 2
 378 271 l 2
 355 235 353 206 343 131 c 0
 336 82 344 65 380 65 c 0
 402 65 428 68 428 68 c 1
 431 63 l 1
 414 -4 l 1
 414 -4 303 0 255 0 c 0x58
 199 0 101 -11 101 -11 c 1
 116 56 l 1
 193 67 208 84 215 151 c 2
 219 182 l 2
 223 217 221 241 204 285 c 2
 133 475 l 2
 111 537 95 564 37 576 c 1
 34 581 l 1
 50 644 l 1
 50 644 136 641 174 641 c 0
 224 641 330 649 330 649 c 1
 334 640 l 1
 321 583 l 1
 273 580 261 572 261 551 c 0xa8
453 706 m 0
 419 706 401 727 401 758 c 0
 401 802 433 834 476 834 c 0
 510 834 528 813 528 782 c 0
 528 739 497 706 453 706 c 0
280 706 m 0
 245 706 228 727 228 758 c 0
 228 802 259 834 303 834 c 0
 337 834 355 813 355 782 c 0
 355 739 324 706 280 706 c 0
EndSplineSet
Validated: 33
EndChar

StartChar: Ygrave
Encoding: 7922 7922 120
Width: 582
Flags: MW
HStem: -11 21G<101 101> 0 65 583 58 625 20G<408 420.5 636 636> 837 20G<251 251>
LayerCount: 2
Back
Fore
SplineSet
261 551 m 0xa8
 261 523 310 366 317 344 c 1
 325 344 l 1
 422 512 l 2
 434 532 441 550 441 562 c 0
 441 575 428 581 395 583 c 1x68
 393 588 l 1
 408 645 l 1x58
 433 645 493 641 536 641 c 0x68
 580 641 636 645 636 645 c 1
 639 638 l 1
 624 578 l 1
 568 560 541 527 492 450 c 2
 378 271 l 2
 355 235 353 206 343 131 c 0
 336 82 344 65 380 65 c 0
 402 65 428 68 428 68 c 1
 431 63 l 1
 414 -4 l 1
 414 -4 303 0 255 0 c 0x58
 199 0 101 -11 101 -11 c 1
 116 56 l 1
 193 67 208 84 215 151 c 2
 219 182 l 2
 223 217 221 241 204 285 c 2
 133 475 l 2
 111 537 95 564 37 576 c 1
 34 581 l 1
 50 644 l 1
 50 644 136 641 174 641 c 0
 224 641 330 649 330 649 c 1
 334 640 l 1
 321 583 l 1
 273 580 261 572 261 551 c 0xa8
218 762 m 1
 213 775 l 1
 238 852 l 1
 251 857 l 1
 251 857 366 800 474 753 c 1
 461 706 l 1
 447 697 l 1
 333 733 218 762 218 762 c 1
EndSplineSet
Validated: 33
EndChar

StartChar: Z
Encoding: 90 90 121
Width: 560
Flags: MW
HStem: -5 21G 0 76 432 209 634 20G<120 120>
LayerCount: 2
Back
Fore
SplineSet
487 16 m 1xa0
 468 -3 l 1
 88 3 l 1
 13 -5 l 1xa0
 -5 39 l 1
 398 570 l 1
 275 562 l 2
 193 556 169 529 150 435 c 1
 66 429 l 1
 66 429 95 552 108 644 c 1
 120 654 l 1x50
 291 643 l 1
 574 639 l 1
 586 599 l 1
 394 371 230 147 174 71 c 1
 325 82 l 2
 389 87 427 132 455 237 c 1
 539 244 l 1
 539 244 502 113 487 16 c 1xa0
EndSplineSet
Validated: 1
EndChar

StartChar: Zacute
Encoding: 377 377 122
Width: 561
Flags: MW
HStem: -5 21G 0 76 432 209 566 75 837 20G<476 476>
LayerCount: 2
Back
Fore
SplineSet
487 16 m 1x88
 468 -3 l 1
 88 3 l 1
 13 -5 l 1
 -5 39 l 1
 398 570 l 1
 275 562 l 2
 193 556 169 529 150 435 c 1
 66 429 l 1
 66 429 95 552 108 644 c 1
 120 654 l 1
 291 643 l 1
 574 639 l 1
 586 599 l 1
 394 371 230 147 174 71 c 1
 325 82 l 2
 389 87 427 132 455 237 c 1
 539 244 l 1
 539 244 502 113 487 16 c 1x88
514 775 m 1
 509 762 l 1
 509 762 394 733 280 697 c 1
 267 706 l 1
 253 753 l 1
 361 800 476 857 476 857 c 1
 489 852 l 1
 514 775 l 1
EndSplineSet
Validated: 8388609
EndChar

StartChar: Zcaron
Encoding: 381 381 123
Width: 561
Flags: MW
HStem: -5 21G 0 76 432 209 566 75 845 20G<259 259 504 504>
LayerCount: 2
Back
Fore
SplineSet
487 16 m 1x88
 468 -3 l 1
 88 3 l 1
 13 -5 l 1
 -5 39 l 1
 398 570 l 1
 275 562 l 2
 193 556 169 529 150 435 c 1
 66 429 l 1
 66 429 95 552 108 644 c 1
 120 654 l 1
 291 643 l 1
 574 639 l 1
 586 599 l 1
 394 371 230 147 174 71 c 1
 325 82 l 2
 389 87 427 132 455 237 c 1
 539 244 l 1
 539 244 502 113 487 16 c 1x88
519 861 m 1
 539 820 l 1
 496 791 370 696 370 696 c 1
 351 696 l 1
 351 696 249 791 214 820 c 1
 242 861 l 1
 259 865 l 1
 279 856 361 812 374 807 c 1
 389 812 481 856 504 865 c 1
 519 861 l 1
EndSplineSet
Validated: 8388609
EndChar

StartChar: Zdotaccent
Encoding: 379 379 124
Width: 561
Flags: MW
HStem: -5 21G 0 76 432 209 566 75 702 152<360 384.5>
LayerCount: 2
Back
Fore
SplineSet
487 16 m 1x88
 468 -3 l 1
 88 3 l 1
 13 -5 l 1
 -5 39 l 1
 398 570 l 1
 275 562 l 2
 193 556 169 529 150 435 c 1
 66 429 l 1
 66 429 95 552 108 644 c 1
 120 654 l 1
 291 643 l 1
 574 639 l 1
 586 599 l 1
 394 371 230 147 174 71 c 1
 325 82 l 2
 389 87 427 132 455 237 c 1
 539 244 l 1
 539 244 502 113 487 16 c 1x88
359 702 m 0
 317 702 296 727 296 764 c 0
 296 816 334 854 386 854 c 0
 426 854 447 829 447 792 c 0
 447 740 410 702 359 702 c 0
EndSplineSet
Validated: 8388609
EndChar

StartChar: a
Encoding: 97 97 125
Width: 493
Flags: MW
HStem: -12 117<99 182 161 332> 387 79<210 243.5> 457 20G<367 367>
LayerCount: 2
Back
Fore
SplineSet
384 109 m 1xa0
 388 105 l 1
 396 105 406 113 454 155 c 1
 471 153 l 1
 487 118 l 1
 393 19 351 -12 313 -12 c 0
 284 -12 270 1 270 26 c 0
 270 45 294 153 304 193 c 1
 296 194 l 1
 236 86 188 25 135 -12 c 1
 63 -12 21 42 21 134 c 0
 21 295 145 466 262 466 c 1xc0
 349 448 l 1
 356 470 l 1
 367 477 l 1
 448 463 l 1
 456 446 l 1
 456 446 408 267 384 109 c 1xa0
167 105 m 0
 197 105 269 225 319 358 c 1
 289 376 256 387 231 387 c 0
 189 387 145 287 145 190 c 0
 145 141 155 105 167 105 c 0
EndSplineSet
Validated: 1
EndChar

StartChar: aacute
Encoding: 225 225 126
Width: 493
Flags: MW
HStem: -12 117<99 182 161 332> 387 79<210 243.5> 717 20G<365 365>
LayerCount: 2
Back
Fore
SplineSet
384 109 m 1
 388 105 l 1
 396 105 406 113 454 155 c 1
 471 153 l 1
 487 118 l 1
 393 19 351 -12 313 -12 c 0
 284 -12 270 1 270 26 c 0
 270 45 294 153 304 193 c 1
 296 194 l 1
 236 86 188 25 135 -12 c 1
 63 -12 21 42 21 134 c 0
 21 295 145 466 262 466 c 1
 349 448 l 1
 356 470 l 1
 367 477 l 1
 448 463 l 1
 456 446 l 1
 456 446 408 267 384 109 c 1
167 105 m 0
 197 105 269 225 319 358 c 1
 289 376 256 387 231 387 c 0
 189 387 145 287 145 190 c 0
 145 141 155 105 167 105 c 0
432 666 m 1
 431 652 l 1
 431 652 335 592 242 523 c 1
 227 527 l 1
 197 566 l 1
 280 646 365 737 365 737 c 1
 378 736 l 1
 432 666 l 1
EndSplineSet
Validated: 1
EndChar

StartChar: acute
Encoding: 180 180 127
Width: 384
Flags: MW
HStem: 523 21G<166 166> 717 20G<289 289>
LayerCount: 2
Back
Fore
SplineSet
356 666 m 1
 355 652 l 1
 355 652 259 592 166 523 c 1
 151 527 l 1
 121 566 l 1
 204 646 289 737 289 737 c 1
 302 736 l 1
 356 666 l 1
EndSplineSet
Validated: 1
EndChar

StartChar: abreve
Encoding: 259 259 128
Width: 493
Flags: MW
HStem: -12 117<99 182 161 332> 387 79<210 243.5> 543 95<279 323 279 331> 686 20G<209 209 409 409>
LayerCount: 2
Back
Fore
SplineSet
384 109 m 1
 388 105 l 1
 396 105 406 113 454 155 c 1
 471 153 l 1
 487 118 l 1
 393 19 351 -12 313 -12 c 0
 284 -12 270 1 270 26 c 0
 270 45 294 153 304 193 c 1
 296 194 l 1
 236 86 188 25 135 -12 c 1
 63 -12 21 42 21 134 c 0
 21 295 145 466 262 466 c 1
 349 448 l 1
 356 470 l 1
 367 477 l 1
 448 463 l 1
 456 446 l 1
 456 446 408 267 384 109 c 1
167 105 m 0
 197 105 269 225 319 358 c 1
 289 376 256 387 231 387 c 0
 189 387 145 287 145 190 c 0
 145 141 155 105 167 105 c 0
301 638 m 0
 345 638 386 660 409 706 c 1
 427 702 l 1
 449 668 l 1
 425 605 372 543 290 543 c 0
 206 543 169 605 160 668 c 1
 191 702 l 1
 209 706 l 1
 221 660 257 638 301 638 c 0
EndSplineSet
Validated: 1
EndChar

StartChar: breve
Encoding: 728 728 129
Width: 384
Flags: MW
HStem: 547 95<221 265 221 273> 690 20G<151 151 351 351>
LayerCount: 2
Back
Fore
SplineSet
243 642 m 0
 287 642 328 664 351 710 c 1
 369 706 l 1
 391 672 l 1
 367 609 314 547 232 547 c 0
 148 547 111 609 102 672 c 1
 133 706 l 1
 151 710 l 1
 163 664 199 642 243 642 c 0
EndSplineSet
Validated: 1
EndChar

StartChar: acircumflex
Encoding: 226 226 130
Width: 493
Flags: MW
HStem: -12 117<99 182 161 332> 387 79<210 243.5> 710 20G<303 323 323 323>
LayerCount: 2
Back
Fore
SplineSet
384 109 m 1
 388 105 l 1
 396 105 406 113 454 155 c 1
 471 153 l 1
 487 118 l 1
 393 19 351 -12 313 -12 c 0
 284 -12 270 1 270 26 c 0
 270 45 294 153 304 193 c 1
 296 194 l 1
 236 86 188 25 135 -12 c 1
 63 -12 21 42 21 134 c 0
 21 295 145 466 262 466 c 1
 349 448 l 1
 356 470 l 1
 367 477 l 1
 448 463 l 1
 456 446 l 1
 456 446 408 267 384 109 c 1
167 105 m 0
 197 105 269 225 319 358 c 1
 289 376 256 387 231 387 c 0
 189 387 145 287 145 190 c 0
 145 141 155 105 167 105 c 0
161 535 m 1
 137 576 l 1
 178 609 303 730 303 730 c 1
 323 730 l 1
 323 730 420 609 452 576 c 1
 418 535 l 1
 402 531 l 1
 385 544 310 607 299 614 c 1
 286 607 196 544 177 531 c 1
 161 535 l 1
EndSplineSet
Validated: 1
EndChar

StartChar: circumflex
Encoding: 710 710 131
Width: 384
Flags: MW
HStem: 531 21G<117 117 342 342> 710 20G<243 263 263 263>
LayerCount: 2
Back
Fore
SplineSet
101 535 m 1
 77 576 l 1
 118 609 243 730 243 730 c 1
 263 730 l 1
 263 730 360 609 392 576 c 1
 358 535 l 1
 342 531 l 1
 325 544 250 607 239 614 c 1
 226 607 136 544 117 531 c 1
 101 535 l 1
EndSplineSet
Validated: 1
EndChar

StartChar: adieresis
Encoding: 228 228 132
Width: 493
Flags: MW
HStem: -12 117<99 182 161 332> 387 79<210 243.5> 564 128<212 232 385 406>
LayerCount: 2
Back
Fore
SplineSet
384 109 m 1
 388 105 l 1
 396 105 406 113 454 155 c 1
 471 153 l 1
 487 118 l 1
 393 19 351 -12 313 -12 c 0
 284 -12 270 1 270 26 c 0
 270 45 294 153 304 193 c 1
 296 194 l 1
 236 86 188 25 135 -12 c 1
 63 -12 21 42 21 134 c 0
 21 295 145 466 262 466 c 1
 349 448 l 1
 356 470 l 1
 367 477 l 1
 448 463 l 1
 456 446 l 1
 456 446 408 267 384 109 c 1
167 105 m 0
 197 105 269 225 319 358 c 1
 289 376 256 387 231 387 c 0
 189 387 145 287 145 190 c 0
 145 141 155 105 167 105 c 0
384 564 m 0
 349 564 331 585 331 616 c 0
 331 659 363 692 407 692 c 0
 441 692 459 671 459 640 c 0
 459 596 428 564 384 564 c 0
210 564 m 0
 176 564 158 585 158 616 c 0
 158 659 190 692 234 692 c 0
 268 692 285 671 285 640 c 0
 285 596 254 564 210 564 c 0
EndSplineSet
Validated: 1
EndChar

StartChar: dieresis
Encoding: 168 168 133
Width: 384
Flags: MW
HStem: 563 128<144 164 317 338>
LayerCount: 2
Back
Fore
SplineSet
316 563 m 0
 281 563 263 584 263 615 c 0
 263 658 295 691 339 691 c 0
 373 691 391 670 391 639 c 0
 391 595 360 563 316 563 c 0
142 563 m 0
 108 563 90 584 90 615 c 0
 90 658 122 691 166 691 c 0
 200 691 217 670 217 639 c 0
 217 595 186 563 142 563 c 0
EndSplineSet
Validated: 1
EndChar

StartChar: agrave
Encoding: 224 224 134
Width: 493
Flags: MW
HStem: -12 117<99 182 161 332> 387 79<210 243.5> 717 20G<226 226>
LayerCount: 2
Back
Fore
SplineSet
384 109 m 1
 388 105 l 1
 396 105 406 113 454 155 c 1
 471 153 l 1
 487 118 l 1
 393 19 351 -12 313 -12 c 0
 284 -12 270 1 270 26 c 0
 270 45 294 153 304 193 c 1
 296 194 l 1
 236 86 188 25 135 -12 c 1
 63 -12 21 42 21 134 c 0
 21 295 145 466 262 466 c 1
 349 448 l 1
 356 470 l 1
 367 477 l 1
 448 463 l 1
 456 446 l 1
 456 446 408 267 384 109 c 1
167 105 m 0
 197 105 269 225 319 358 c 1
 289 376 256 387 231 387 c 0
 189 387 145 287 145 190 c 0
 145 141 155 105 167 105 c 0
160 652 m 1
 158 666 l 1
 213 736 l 1
 226 737 l 1
 226 737 311 647 394 567 c 1
 364 528 l 1
 348 524 l 1
 255 593 160 652 160 652 c 1
EndSplineSet
Validated: 1
EndChar

StartChar: grave
Encoding: 96 96 135
Width: 384
Flags: MW
HStem: 523 21G<263 263> 716 20G<141 141>
LayerCount: 2
Back
Fore
SplineSet
75 651 m 1
 73 665 l 1
 128 735 l 1
 141 736 l 1
 141 736 226 646 309 566 c 1
 279 527 l 1
 263 523 l 1
 170 592 75 651 75 651 c 1
EndSplineSet
Validated: 1
EndChar

StartChar: amacron
Encoding: 257 257 136
Width: 493
Flags: MW
HStem: -12 117<99 182 161 332> 387 79<210 243.5> 582 85<258.5 340> 653 20G<439 439>
LayerCount: 2
Back
Fore
SplineSet
384 109 m 1xd0
 388 105 l 1
 396 105 406 113 454 155 c 1
 471 153 l 1
 487 118 l 1
 393 19 351 -12 313 -12 c 0
 284 -12 270 1 270 26 c 0
 270 45 294 153 304 193 c 1
 296 194 l 1
 236 86 188 25 135 -12 c 1
 63 -12 21 42 21 134 c 0
 21 295 145 466 262 466 c 1
 349 448 l 1
 356 470 l 1
 367 477 l 1
 448 463 l 1
 456 446 l 1
 456 446 408 267 384 109 c 1xd0
167 105 m 0
 197 105 269 225 319 358 c 1
 289 376 256 387 231 387 c 0
 189 387 145 287 145 190 c 0
 145 141 155 105 167 105 c 0
439 673 m 1
 445 659 l 1
 423 583 l 1
 287 582 l 2
 230 582 153 581 153 581 c 1
 144 592 l 1
 167 668 l 1
 167 668 259 667 316 667 c 0xe0
 364 667 439 673 439 673 c 1
EndSplineSet
Validated: 1
EndChar

StartChar: macron
Encoding: 175 175 137
Width: 384
Flags: MW
HStem: 580 21G<102 102> 581 85<207.5 289> 652 20G<388 388>
LayerCount: 2
Back
Fore
SplineSet
388 672 m 1xa0
 394 658 l 1
 372 582 l 1
 236 581 l 2x40
 179 581 102 580 102 580 c 1xa0
 93 591 l 1
 116 667 l 1
 116 667 208 666 265 666 c 0x40
 313 666 388 672 388 672 c 1xa0
EndSplineSet
Validated: 1
EndChar

StartChar: aogonek
Encoding: 261 261 138
Width: 493
Flags: MW
HStem: -241 72<282.5 351.5> -12 21G<99 135> 387 79<210 243.5> 457 20G<367 367>
LayerCount: 2
Back
Fore
SplineSet
407 -145 m 1xd0
 422 -174 l 1
 422 -174 365 -224 315 -241 c 1
 250 -241 209 -211 209 -159 c 0
 209 -115 241 -73 301 -11 c 1
 280 -8 270 4 270 26 c 0
 270 45 294 153 304 193 c 1
 296 194 l 1
 236 86 188 25 135 -12 c 1
 63 -12 21 42 21 134 c 0
 21 295 145 466 262 466 c 1xe0
 349 448 l 1
 356 470 l 1
 367 477 l 1
 448 463 l 1
 456 446 l 1
 456 446 408 267 384 109 c 1
 388 105 l 1
 396 105 406 114 454 155 c 1
 471 153 l 1
 489 115 l 1
 342 -22 294 -76 294 -127 c 0
 294 -151 310 -169 335 -169 c 0
 368 -169 407 -145 407 -145 c 1xd0
167 105 m 0
 197 105 269 225 319 358 c 1
 289 376 256 387 231 387 c 0
 189 387 145 287 145 190 c 0
 145 142 155 105 167 105 c 0
EndSplineSet
Validated: 1
EndChar

StartChar: aring
Encoding: 229 229 139
Width: 493
Flags: MW
HStem: -12 117<99 182 161 332> 387 79<210 243.5> 543 186<266 299> 576 20G<271 286.5> 674 55<269 296>
LayerCount: 2
Back
Fore
SplineSet
384 109 m 1xd8
 388 105 l 1
 396 105 406 113 454 155 c 1
 471 153 l 1
 487 118 l 1
 393 19 351 -12 313 -12 c 0
 284 -12 270 1 270 26 c 0
 270 45 294 153 304 193 c 1
 296 194 l 1
 236 86 188 25 135 -12 c 1
 63 -12 21 42 21 134 c 0
 21 295 145 466 262 466 c 1
 349 448 l 1
 356 470 l 1
 367 477 l 1
 448 463 l 1
 456 446 l 1
 456 446 408 267 384 109 c 1xd8
167 105 m 0
 197 105 269 225 319 358 c 1
 289 376 256 387 231 387 c 0
 189 387 145 287 145 190 c 0
 145 141 155 105 167 105 c 0
279 596 m 0
 294 596 322 602 322 638 c 0
 322 660 309 674 283 674 c 0
 255 674 241 657 241 633 c 0
 241 606 263 596 279 596 c 0
266 543 m 0xe0
 216 543 190 575 190 621 c 0
 190 682 235 729 297 729 c 0
 353 729 374 693 374 654 c 0
 374 598 332 543 266 543 c 0xe0
EndSplineSet
Validated: 1
EndChar

StartChar: ring
Encoding: 730 730 140
Width: 384
Flags: MW
HStem: 543 186<226 259> 576 20G<231 246.5> 674 55<229 256>
LayerCount: 2
Back
Fore
SplineSet
239 596 m 0x60
 254 596 282 602 282 638 c 0
 282 660 269 674 243 674 c 0
 215 674 201 657 201 633 c 0
 201 606 223 596 239 596 c 0x60
226 543 m 0x80
 176 543 150 575 150 621 c 0
 150 682 195 729 257 729 c 0
 313 729 334 693 334 654 c 0
 334 598 292 543 226 543 c 0x80
EndSplineSet
Validated: 1
EndChar

StartChar: atilde
Encoding: 227 227 141
Width: 493
Flags: MW
HStem: -12 117<99 182 161 332> 387 79<210 243.5> 562 97<356.5 373> 596 96<221 237.5 221 246> 695 20G<432 443 443 443>
LayerCount: 2
Back
Fore
SplineSet
384 109 m 1xd8
 388 105 l 1
 396 105 406 113 454 155 c 1
 471 153 l 1
 487 118 l 1
 393 19 351 -12 313 -12 c 0
 284 -12 270 1 270 26 c 0
 270 45 294 153 304 193 c 1
 296 194 l 1
 236 86 188 25 135 -12 c 1
 63 -12 21 42 21 134 c 0
 21 295 145 466 262 466 c 1
 349 448 l 1
 356 470 l 1
 367 477 l 1
 448 463 l 1
 456 446 l 1
 456 446 408 267 384 109 c 1xd8
167 105 m 0
 197 105 269 225 319 358 c 1
 289 376 256 387 231 387 c 0
 189 387 145 287 145 190 c 0
 145 141 155 105 167 105 c 0
162 540 m 1
 151 540 l 1
 116 576 l 1
 117 587 l 1
 205 688 l 1
 221 692 l 1xd8
 254 692 335 659 363 659 c 0
 385 659 432 715 432 715 c 1
 443 715 l 1
 479 678 l 1
 477 668 l 1
 389 566 l 1
 373 562 l 1xe8
 340 562 260 596 232 596 c 0
 208 596 162 540 162 540 c 1
EndSplineSet
Validated: 1
EndChar

StartChar: tilde
Encoding: 732 732 142
Width: 384
Flags: MW
HStem: 539 21G<95 106 95 95> 561 97<300.5 317> 595 96<165 181.5 165 190> 694 20G<376 387 387 387>
LayerCount: 2
Back
Fore
SplineSet
106 539 m 1xb0
 95 539 l 1
 60 575 l 1
 61 586 l 1
 149 687 l 1
 165 691 l 1xb0
 198 691 279 658 307 658 c 0
 329 658 376 714 376 714 c 1
 387 714 l 1
 423 677 l 1
 421 667 l 1
 333 565 l 1
 317 561 l 1xd0
 284 561 204 595 176 595 c 0
 152 595 106 539 106 539 c 1xb0
EndSplineSet
Validated: 1
EndChar

StartChar: b
Encoding: 98 98 143
Width: 488
Flags: MW
HStem: -10 87<240.5 277 240.5 281.5> 448 20G<335 375> 669 59<62 88 54 100> 717 20G<255 255>
LayerCount: 2
Back
Fore
SplineSet
37 54 m 1xd0
 37 54 126 597 126 633 c 0
 126 658 115 669 88 669 c 2
 54 669 l 1
 62 728 l 1xe0
 138 728 255 737 255 737 c 1
 267 721 l 1
 267 721 211 467 176 250 c 1
 182 249 l 1
 242 368 284 428 335 468 c 1
 415 468 465 405 465 307 c 0
 465 141 347 -10 216 -10 c 0
 116 -10 49 31 49 31 c 1
 37 54 l 1xd0
312 358 m 0
 285 358 223 245 168 101 c 1
 185 95 227 77 254 77 c 0
 300 77 342 163 342 262 c 0
 342 314 329 358 312 358 c 0
EndSplineSet
Validated: 1
EndChar

StartChar: c
Encoding: 99 99 144
Width: 368
Flags: MW
HStem: -12 98<185 196.5> 385 88<215.5 254>
LayerCount: 2
Back
Fore
SplineSet
241 385 m 0
 190 385 144 296 144 194 c 0
 144 126 167 86 203 86 c 0
 237 86 273 117 296 167 c 1
 313 165 l 1
 346 124 l 1
 311 47 231 -12 162 -12 c 0
 77 -12 24 54 24 160 c 0
 24 325 143 473 276 473 c 0
 313 473 350 465 373 451 c 1
 377 436 l 1
 335 340 l 1
 307 338 l 1
 288 370 267 385 241 385 c 0
EndSplineSet
Validated: 1
EndChar

StartChar: cacute
Encoding: 263 263 145
Width: 368
Flags: MW
HStem: -12 98<185 196.5> 385 88<215.5 254> 717 20G<343 343>
LayerCount: 2
Back
Fore
SplineSet
241 385 m 0
 190 385 144 296 144 194 c 0
 144 126 167 86 203 86 c 0
 237 86 273 117 296 167 c 1
 313 165 l 1
 346 124 l 1
 311 47 231 -12 162 -12 c 0
 77 -12 24 54 24 160 c 0
 24 325 143 473 276 473 c 0
 313 473 350 465 373 451 c 1
 377 436 l 1
 335 340 l 1
 307 338 l 1
 288 370 267 385 241 385 c 0
410 666 m 1
 409 652 l 1
 409 652 313 592 220 523 c 1
 205 527 l 1
 175 566 l 1
 258 646 343 737 343 737 c 1
 356 736 l 1
 410 666 l 1
EndSplineSet
Validated: 1
EndChar

StartChar: ccaron
Encoding: 269 269 146
Width: 368
Flags: MW
HStem: -12 98<185 196.5> 385 88<215.5 254> 704 20G<172 172 403 403>
LayerCount: 2
Back
Fore
SplineSet
241 385 m 0
 190 385 144 296 144 194 c 0
 144 126 167 86 203 86 c 0
 237 86 273 117 296 167 c 1
 313 165 l 1
 346 124 l 1
 311 47 231 -12 162 -12 c 0
 77 -12 24 54 24 160 c 0
 24 325 143 473 276 473 c 0
 313 473 350 465 373 451 c 1
 377 436 l 1
 335 340 l 1
 307 338 l 1
 288 370 267 385 241 385 c 0
121 679 m 1
 156 721 l 1
 172 724 l 1
 211 689 253 657 277 639 c 1
 305 657 356 689 403 724 c 1
 417 721 l 1
 442 679 l 1
 363 609 272 521 272 521 c 1
 252 521 l 1
 252 521 183 609 121 679 c 1
EndSplineSet
Validated: 1
EndChar

StartChar: caron
Encoding: 711 711 147
Width: 384
Flags: MW
HStem: 521 21G<217 237 217 217> 704 20G<137 137 368 368>
LayerCount: 2
Back
Fore
SplineSet
86 679 m 1
 121 721 l 1
 137 724 l 1
 176 689 218 657 242 639 c 1
 270 657 321 689 368 724 c 1
 382 721 l 1
 407 679 l 1
 328 609 237 521 237 521 c 1
 217 521 l 1
 217 521 148 609 86 679 c 1
EndSplineSet
Validated: 1
EndChar

StartChar: ccedilla
Encoding: 231 231 148
Width: 368
Flags: MW
HStem: -238 52<137 161.5> -150 20G<100 108 108 108> 385 88<215.5 254>
LayerCount: 2
Back
Fore
SplineSet
118 -86 m 1
 147 -11 l 1
 71 -4 24 60 24 160 c 0
 24 325 143 473 276 473 c 0
 313 473 350 465 373 451 c 1
 377 436 l 1
 335 340 l 1
 307 338 l 1
 288 370 267 385 241 385 c 0
 190 385 144 296 144 194 c 0
 144 126 167 86 203 86 c 0
 237 86 273 117 296 167 c 1
 313 165 l 1
 346 124 l 1
 317 61 259 10 201 -6 c 1
 186 -44 l 1
 219 -64 270 -98 270 -136 c 0
 270 -191 197 -238 126 -238 c 0
 94 -238 54 -222 54 -196 c 0
 54 -181 82 -149 100 -130 c 1
 108 -130 l 1
 105 -167 123 -186 151 -186 c 0
 175 -186 193 -173 193 -154 c 0
 193 -133 152 -106 118 -86 c 1
EndSplineSet
Validated: 33
EndChar

StartChar: cdotaccent
Encoding: 267 267 149
Width: 368
Flags: MW
HStem: -12 98<185 196.5> 385 88<215.5 254> 574 152<259.5 283.5>
LayerCount: 2
Back
Fore
SplineSet
241 385 m 0
 190 385 144 296 144 194 c 0
 144 126 167 86 203 86 c 0
 237 86 273 117 296 167 c 1
 313 165 l 1
 346 124 l 1
 311 47 231 -12 162 -12 c 0
 77 -12 24 54 24 160 c 0
 24 325 143 473 276 473 c 0
 313 473 350 465 373 451 c 1
 377 436 l 1
 335 340 l 1
 307 338 l 1
 288 370 267 385 241 385 c 0
258 574 m 0
 217 574 196 599 196 635 c 0
 196 688 234 726 285 726 c 0
 326 726 347 701 347 664 c 0
 347 612 309 574 258 574 c 0
EndSplineSet
Validated: 1
EndChar

StartChar: dotaccent
Encoding: 729 729 150
Width: 384
Flags: MW
HStem: 574 152<231.5 255.5>
LayerCount: 2
Back
Fore
SplineSet
230 574 m 0
 189 574 168 599 168 635 c 0
 168 688 206 726 257 726 c 0
 298 726 319 701 319 664 c 0
 319 612 281 574 230 574 c 0
EndSplineSet
Validated: 1
EndChar

StartChar: d
Encoding: 100 100 151
Width: 495
Flags: MW
HStem: -12 117<99 182 161 332> 387 79<210 246.5> 669 59<293 319 284 330.5> 717 20G<486 486>
LayerCount: 2
Back
Fore
SplineSet
384 109 m 1xd0
 388 105 l 1
 395 105 396 106 454 155 c 1
 471 153 l 1
 487 118 l 1
 391 18 351 -12 313 -12 c 0
 284 -12 270 1 270 26 c 0
 270 43 294 151 304 193 c 1
 296 194 l 1
 237 87 188 26 135 -12 c 1
 63 -12 21 42 21 134 c 0
 21 295 145 466 262 466 c 1
 332 450 l 1
 356 626 l 2
 360 657 349 669 319 669 c 2
 284 669 l 1
 293 728 l 1xe0
 368 728 486 737 486 737 c 1
 498 721 l 1
 498 721 416 315 384 109 c 1xd0
167 105 m 0
 197 105 267 223 318 358 c 1
 301 368 262 387 231 387 c 0
 189 387 145 287 145 190 c 0
 145 141 155 105 167 105 c 0
EndSplineSet
Validated: 33
EndChar

StartChar: dotlessi
Encoding: 305 305 152
Width: 283
Flags: MW
HStem: -12 21G<82.5 118> 394 59<37 62 27 74> 442 20G<228 228>
LayerCount: 2
Back
Fore
SplineSet
169 109 m 1xa0
 173 105 l 1
 181 105 189 111 239 155 c 1
 256 153 l 1
 273 118 l 1
 186 24 137 -12 99 -12 c 0
 66 -12 52 5 52 38 c 1
 52 38 100 324 100 356 c 0
 100 383 89 394 62 394 c 2
 27 394 l 1
 37 453 l 1xc0
 111 453 228 462 228 462 c 1
 240 446 l 1
 240 446 193 278 169 109 c 1xa0
EndSplineSet
Validated: 1
EndChar

StartChar: e
Encoding: 101 101 153
Width: 393
Flags: MW
HStem: -12 97<185 200.5> 385 88<221 253.5>
LayerCount: 2
Back
Fore
SplineSet
385 379 m 0
 385 290 317 238 142 183 c 1
 142 123 165 85 205 85 c 0
 242 85 278 114 306 164 c 1
 323 162 l 1
 356 122 l 1
 320 45 238 -12 163 -12 c 0
 78 -12 24 56 24 163 c 0
 24 324 146 473 278 473 c 0
 345 473 385 438 385 379 c 0
243 385 m 0
 199 385 158 327 145 244 c 1
 236 274 276 307 276 350 c 0
 276 373 264 385 243 385 c 0
EndSplineSet
Validated: 1
EndChar

StartChar: ecaron
Encoding: 283 283 154
Width: 393
Flags: MW
HStem: -12 97<185 200.5> 385 88<221 253.5> 704 20G<173 173 404 404>
LayerCount: 2
Back
Fore
SplineSet
385 379 m 0
 385 290 317 238 142 183 c 1
 142 123 165 85 205 85 c 0
 242 85 278 114 306 164 c 1
 323 162 l 1
 356 122 l 1
 320 45 238 -12 163 -12 c 0
 78 -12 24 56 24 163 c 0
 24 324 146 473 278 473 c 0
 345 473 385 438 385 379 c 0
243 385 m 0
 199 385 158 327 145 244 c 1
 236 274 276 307 276 350 c 0
 276 373 264 385 243 385 c 0
122 679 m 1
 157 721 l 1
 173 724 l 1
 212 689 254 657 278 639 c 1
 306 657 357 689 404 724 c 1
 418 721 l 1
 443 679 l 1
 364 609 273 521 273 521 c 1
 253 521 l 1
 253 521 184 609 122 679 c 1
EndSplineSet
Validated: 1
EndChar

StartChar: ecircumflex
Encoding: 234 234 155
Width: 393
Flags: MW
HStem: -12 97<185 200.5> 385 88<221 253.5> 710 20G<280 300 300 300>
LayerCount: 2
Back
Fore
SplineSet
385 379 m 0
 385 290 317 238 142 183 c 1
 142 123 165 85 205 85 c 0
 242 85 278 114 306 164 c 1
 323 162 l 1
 356 122 l 1
 320 45 238 -12 163 -12 c 0
 78 -12 24 56 24 163 c 0
 24 324 146 473 278 473 c 0
 345 473 385 438 385 379 c 0
243 385 m 0
 199 385 158 327 145 244 c 1
 236 274 276 307 276 350 c 0
 276 373 264 385 243 385 c 0
138 535 m 1
 114 576 l 1
 155 609 280 730 280 730 c 1
 300 730 l 1
 300 730 397 609 429 576 c 1
 395 535 l 1
 379 531 l 1
 362 544 287 607 276 614 c 1
 263 607 173 544 154 531 c 1
 138 535 l 1
EndSplineSet
Validated: 1
EndChar

StartChar: edieresis
Encoding: 235 235 156
Width: 393
Flags: MW
HStem: -12 97<185 200.5> 385 88<221 253.5> 563 128<177 197 350 371>
LayerCount: 2
Back
Fore
SplineSet
385 379 m 0
 385 290 317 238 142 183 c 1
 142 123 165 85 205 85 c 0
 242 85 278 114 306 164 c 1
 323 162 l 1
 356 122 l 1
 320 45 238 -12 163 -12 c 0
 78 -12 24 56 24 163 c 0
 24 324 146 473 278 473 c 0
 345 473 385 438 385 379 c 0
243 385 m 0
 199 385 158 327 145 244 c 1
 236 274 276 307 276 350 c 0
 276 373 264 385 243 385 c 0
349 563 m 0
 314 563 296 584 296 615 c 0
 296 658 328 691 372 691 c 0
 406 691 424 670 424 639 c 0
 424 595 393 563 349 563 c 0
175 563 m 0
 141 563 123 584 123 615 c 0
 123 658 155 691 199 691 c 0
 233 691 250 670 250 639 c 0
 250 595 219 563 175 563 c 0
EndSplineSet
Validated: 1
EndChar

StartChar: edotaccent
Encoding: 279 279 157
Width: 393
Flags: MW
HStem: -12 97<185 200.5> 385 88<221 253.5> 574 152<266.5 290.5>
LayerCount: 2
Back
Fore
SplineSet
385 379 m 0
 385 290 317 238 142 183 c 1
 142 123 165 85 205 85 c 0
 242 85 278 114 306 164 c 1
 323 162 l 1
 356 122 l 1
 320 45 238 -12 163 -12 c 0
 78 -12 24 56 24 163 c 0
 24 324 146 473 278 473 c 0
 345 473 385 438 385 379 c 0
243 385 m 0
 199 385 158 327 145 244 c 1
 236 274 276 307 276 350 c 0
 276 373 264 385 243 385 c 0
265 574 m 0
 224 574 203 599 203 635 c 0
 203 688 241 726 292 726 c 0
 333 726 354 701 354 664 c 0
 354 612 316 574 265 574 c 0
EndSplineSet
Validated: 1
EndChar

StartChar: egrave
Encoding: 232 232 158
Width: 393
Flags: MW
HStem: -12 97<185 200.5> 385 88<221 253.5> 716 20G<198 198>
LayerCount: 2
Back
Fore
SplineSet
385 379 m 0
 385 290 317 238 142 183 c 1
 142 123 165 85 205 85 c 0
 242 85 278 114 306 164 c 1
 323 162 l 1
 356 122 l 1
 320 45 238 -12 163 -12 c 0
 78 -12 24 56 24 163 c 0
 24 324 146 473 278 473 c 0
 345 473 385 438 385 379 c 0
243 385 m 0
 199 385 158 327 145 244 c 1
 236 274 276 307 276 350 c 0
 276 373 264 385 243 385 c 0
132 651 m 1
 130 665 l 1
 185 735 l 1
 198 736 l 1
 198 736 283 646 366 566 c 1
 336 527 l 1
 320 523 l 1
 227 592 132 651 132 651 c 1
EndSplineSet
Validated: 1
EndChar

StartChar: emacron
Encoding: 275 275 159
Width: 393
Flags: MW
HStem: -12 97<185 200.5> 385 88<221 253.5> 581 85<240.5 322> 652 20G<421 421>
LayerCount: 2
Back
Fore
SplineSet
385 379 m 0xd0
 385 290 317 238 142 183 c 1
 142 123 165 85 205 85 c 0
 242 85 278 114 306 164 c 1
 323 162 l 1
 356 122 l 1
 320 45 238 -12 163 -12 c 0
 78 -12 24 56 24 163 c 0
 24 324 146 473 278 473 c 0
 345 473 385 438 385 379 c 0xd0
243 385 m 0
 199 385 158 327 145 244 c 1
 236 274 276 307 276 350 c 0
 276 373 264 385 243 385 c 0
421 672 m 1
 427 658 l 1
 405 582 l 1
 269 581 l 2
 212 581 135 580 135 580 c 1
 126 591 l 1
 149 667 l 1
 149 667 241 666 298 666 c 0xe0
 346 666 421 672 421 672 c 1
EndSplineSet
Validated: 1
EndChar

StartChar: eogonek
Encoding: 281 281 160
Width: 393
Flags: MW
HStem: -241 72<173.5 242.5> -12 97<120.5 223.5> 385 88<221 253.5>
LayerCount: 2
Back
Fore
SplineSet
298 -145 m 1
 313 -174 l 1
 313 -174 256 -224 206 -241 c 1
 141 -241 100 -211 100 -159 c 0
 100 -110 136 -66 204 -2 c 1
 190 -9 178 -12 163 -12 c 0
 78 -12 24 56 24 163 c 0
 24 324 146 473 278 473 c 0
 345 473 385 438 385 379 c 0
 385 292 320 239 142 183 c 1
 142 123 165 85 205 85 c 0
 242 85 278 114 306 164 c 1
 323 162 l 1
 356 122 l 1
 270 -16 185 -66 185 -127 c 0
 185 -151 201 -169 226 -169 c 0
 259 -169 298 -145 298 -145 c 1
243 385 m 0
 199 385 158 327 145 244 c 1
 235 274 276 307 276 350 c 0
 276 373 264 385 243 385 c 0
EndSplineSet
Validated: 1
EndChar

StartChar: eth
Encoding: 240 240 161
Width: 490
Flags: MW
HStem: -12 77<210.5 262.5 210.5 282> 375 88<229 250 189.5 279.5> 721 20G<142 142>
LayerCount: 2
Back
Fore
SplineSet
437 716 m 1
 445 711 l 1
 455 652 l 1
 347 599 l 1
 427 514 470 404 470 292 c 0
 470 113 358 -12 206 -12 c 0
 90 -12 22 62 22 178 c 0
 22 334 129 463 250 463 c 1
 270 459 295 442 301 439 c 1
 305 444 l 1
 292 482 272 518 246 550 c 1
 113 486 l 1
 105 489 l 1
 95 550 l 1
 194 599 l 1
 166 628 131 655 89 680 c 1
 129 736 l 1
 142 741 l 1
 200 714 250 682 292 646 c 1
 437 716 l 1
331 280 m 0
 331 301 331 332 329 349 c 1
 318 360 298 375 261 375 c 0
 197 375 156 299 156 186 c 0
 156 109 185 65 236 65 c 0
 289 65 331 160 331 280 c 0
EndSplineSet
Validated: 1
EndChar

StartChar: f
Encoding: 102 102 162
Width: 290
Flags: MW
HStem: -242 80<-20.5 20.5 -20.5 21> 394 61<356 356> 655 87<308 331.5>
LayerCount: 2
Back
Fore
SplineSet
24 393 m 1
 21 398 l 1
 26 444 l 1
 110 457 l 1
 117 521 l 2
 130 640 249 742 367 742 c 0
 403 742 447 736 473 727 c 1
 477 716 l 1
 432 620 l 1
 413 617 l 1
 374 644 344 655 319 655 c 0
 271 655 246 625 237 556 c 2
 225 455 l 1
 361 455 l 1
 366 450 l 1
 356 394 l 1
 227 395 l 1
 218 389 l 1
 171 -42 l 2
 159 -151 68 -242 -26 -242 c 0
 -78 -242 -126 -219 -137 -188 c 1
 -128 -158 -102 -105 -85 -81 c 1
 -69 -81 l 1
 -67 -135 -43 -162 2 -162 c 0
 39 -162 68 -132 71 -82 c 0
 75 -39 75 0 77 33 c 2
 104 384 l 1
 95 391 l 1
 24 393 l 1
EndSplineSet
Validated: 1
EndChar

StartChar: g
Encoding: 103 103 163
Width: 471
Flags: MW
HStem: -241 90<118 157.5> 387 79<221.5 257> 457 20G<380 380>
LayerCount: 2
Back
Fore
SplineSet
188 114 m 0xc0
 214 114 273 219 330 359 c 1
 309 370 272 387 242 387 c 0
 201 387 160 293 160 202 c 0
 160 153 172 114 188 114 c 0xc0
160 0 m 0
 111 -34 41 -77 41 -90 c 0
 41 -120 92 -151 144 -151 c 0
 221 -151 276 -98 288 -6 c 2
 311 185 l 1
 302 188 l 1
 229 65 201 29 160 0 c 0
393 17 m 0
 379 -97 215 -241 100 -241 c 0
 -3 -242 -84 -179 -77 -105 c 1
 -74 -97 l 1
 -41 -73 31 -33 98 4 c 1
 99 12 l 1
 60 32 37 81 37 147 c 0
 37 300 159 466 272 466 c 1xc0
 360 448 l 1
 368 471 l 1
 380 477 l 1xa0
 460 464 l 1
 471 446 l 1
 438 380 416 308 411 259 c 0
 405 209 399 69 393 17 c 0
EndSplineSet
Validated: 33
EndChar

StartChar: gbreve
Encoding: 287 287 164
Width: 471
Flags: MW
HStem: -241 90<118 157.5> 387 79<221.5 257> 542 95<299 343 299 351> 685 20G<229 229 429 429>
LayerCount: 2
Back
Fore
SplineSet
188 114 m 0
 214 114 273 219 330 359 c 1
 309 370 272 387 242 387 c 0
 201 387 160 293 160 202 c 0
 160 153 172 114 188 114 c 0
160 0 m 0
 111 -34 41 -77 41 -90 c 0
 41 -120 92 -151 144 -151 c 0
 221 -151 276 -98 288 -6 c 2
 311 185 l 1
 302 188 l 1
 229 65 201 29 160 0 c 0
393 17 m 0
 379 -97 215 -241 100 -241 c 0
 -3 -242 -84 -179 -77 -105 c 1
 -74 -97 l 1
 -41 -73 31 -33 98 4 c 1
 99 12 l 1
 60 32 37 81 37 147 c 0
 37 300 159 466 272 466 c 1
 360 448 l 1
 368 471 l 1
 380 477 l 1
 460 464 l 1
 471 446 l 1
 438 380 416 308 411 259 c 0
 405 209 399 69 393 17 c 0
321 637 m 0
 365 637 406 659 429 705 c 1
 447 701 l 1
 469 667 l 1
 445 604 392 542 310 542 c 0
 226 542 189 604 180 667 c 1
 211 701 l 1
 229 705 l 1
 241 659 277 637 321 637 c 0
EndSplineSet
Validated: 33
EndChar

StartChar: gcommaaccent
Encoding: 291 291 165
Width: 471
Flags: MW
HStem: -241 90<118 157.5> 387 79<221.5 257> 466 54<215.5 313.5> 767 20G<379 379>
LayerCount: 2
Back
Fore
SplineSet
188 114 m 0xd0
 214 114 273 219 330 359 c 1
 309 370 272 387 242 387 c 0
 201 387 160 293 160 202 c 0
 160 153 172 114 188 114 c 0xd0
160 0 m 0
 111 -34 41 -77 41 -90 c 0
 41 -120 92 -151 144 -151 c 0
 221 -151 276 -98 288 -6 c 2
 311 185 l 1
 302 188 l 1
 229 65 201 29 160 0 c 0
393 17 m 0
 379 -97 215 -241 100 -241 c 0
 -3 -242 -84 -179 -77 -105 c 1
 -74 -97 l 1
 -41 -73 31 -33 98 4 c 1
 99 12 l 1
 60 32 37 81 37 147 c 0
 37 300 159 466 272 466 c 1
 360 448 l 1
 368 471 l 1
 380 477 l 1
 460 464 l 1
 471 446 l 1
 438 380 416 308 411 259 c 0
 405 209 399 69 393 17 c 0
383 569 m 1
 380 555 l 1
 356 536 326 520 301 520 c 0xb0
 261 520 232 553 232 605 c 0
 232 676 301 743 379 787 c 1
 416 757 l 1
 416 740 l 1
 376 713 348 672 348 637 c 0
 348 610 363 585 383 569 c 1
EndSplineSet
Validated: 33
EndChar

StartChar: gdotaccent
Encoding: 289 289 166
Width: 471
Flags: MW
HStem: -241 90<118 157.5> 387 79<221.5 257> 574 152<303.5 327.5>
LayerCount: 2
Back
Fore
SplineSet
188 114 m 0
 214 114 273 219 330 359 c 1
 309 370 272 387 242 387 c 0
 201 387 160 293 160 202 c 0
 160 153 172 114 188 114 c 0
160 0 m 0
 111 -34 41 -77 41 -90 c 0
 41 -120 92 -151 144 -151 c 0
 221 -151 276 -98 288 -6 c 2
 311 185 l 1
 302 188 l 1
 229 65 201 29 160 0 c 0
393 17 m 0
 379 -97 215 -241 100 -241 c 0
 -3 -242 -84 -179 -77 -105 c 1
 -74 -97 l 1
 -41 -73 31 -33 98 4 c 1
 99 12 l 1
 60 32 37 81 37 147 c 0
 37 300 159 466 272 466 c 1
 360 448 l 1
 368 471 l 1
 380 477 l 1
 460 464 l 1
 471 446 l 1
 438 380 416 308 411 259 c 0
 405 209 399 69 393 17 c 0
302 574 m 0
 261 574 240 599 240 635 c 0
 240 688 278 726 329 726 c 0
 370 726 391 701 391 664 c 0
 391 612 353 574 302 574 c 0
EndSplineSet
Validated: 33
EndChar

StartChar: germandbls
Encoding: 223 223 167
Width: 610
Flags: MW
HStem: -242 80<-20.5 20.5 -20.5 21> -12 80<381.5 422 381.5 445.5> 655 87<309 362.5>
LayerCount: 2
Back
Fore
SplineSet
24 393 m 1
 21 398 l 1
 26 444 l 1
 110 457 l 1
 117 521 l 2
 131 641 248 742 370 742 c 0
 473 742 549 690 549 614 c 0
 549 500 420 468 420 393 c 0
 420 318 599 304 599 171 c 0
 599 69 504 -12 387 -12 c 0
 321 -12 263 14 259 47 c 1
 264 76 293 132 315 157 c 1
 335 156 l 1
 331 103 358 68 405 68 c 0
 439 68 469 100 469 135 c 0
 469 216 294 229 294 354 c 0
 294 460 425 495 425 577 c 0
 425 621 393 655 332 655 c 0
 279 655 247 625 237 556 c 2
 171 -42 l 2
 159 -151 68 -242 -26 -242 c 0
 -78 -242 -126 -219 -137 -188 c 1
 -128 -158 -102 -105 -85 -81 c 1
 -69 -81 l 1
 -67 -135 -43 -162 2 -162 c 0
 39 -162 68 -132 71 -82 c 1
 68 -91 61 -173 77 33 c 2
 104 384 l 1
 95 391 l 1
 24 393 l 1
EndSplineSet
Validated: 33
EndChar

StartChar: h
Encoding: 104 104 168
Width: 506
Flags: MW
HStem: -11 21G<300 335> -8 21G<47 69.5> 454 20G<348 381.5> 669 59<66 92 57 103.5> 717 20G<259 259>
LayerCount: 2
Back
Fore
SplineSet
387 110 m 1x68
 390 107 l 1
 398 107 405 112 456 157 c 1
 474 154 l 1
 490 119 l 1
 401 24 354 -11 316 -11 c 0xb0
 284 -11 268 3 268 33 c 0
 268 85 337 257 337 311 c 0
 337 333 327 346 311 346 c 0
 278 346 217 245 160 101 c 1
 151 29 l 2
 148 12 92 -8 47 -8 c 1
 34 8 l 1
 34 8 123 569 129 628 c 0
 131 658 121 669 92 669 c 2
 57 669 l 1
 66 728 l 1x70
 141 728 259 737 259 737 c 1
 271 721 l 1
 271 721 213 467 180 250 c 1
 186 249 l 1
 242 366 298 444 348 474 c 1
 415 474 461 432 461 372 c 0
 461 317 400 174 387 110 c 1x68
EndSplineSet
Validated: 33
EndChar

StartChar: hbar
Encoding: 295 295 169
Width: 506
Flags: MW
HStem: -11 21G<300 335> -8 21G<47 69.5> 346 225<121 319> 454 20G<348 381.5> 516 55 669 59<66 92 57 103.5> 717 20G<259 259>
LayerCount: 2
Back
Fore
SplineSet
387 110 m 1x5a
 390 107 l 1
 398 107 405 112 456 157 c 1
 474 154 l 1
 490 119 l 1
 401 24 354 -11 316 -11 c 0xa4
 284 -11 268 3 268 33 c 0
 268 85 337 257 337 311 c 0
 337 333 327 346 311 346 c 0
 278 346 217 245 160 101 c 1
 151 29 l 2
 148 12 92 -8 47 -8 c 1
 34 8 l 1
 34 8 86 334 113 515 c 1
 29 515 l 1
 19 524 l 1
 27 572 l 1
 121 571 l 1
 129 628 l 2
 131 658 121 669 92 669 c 2
 57 669 l 1
 66 728 l 1x64
 141 728 259 737 259 737 c 1
 271 721 l 1
 271 721 257 660 239 572 c 1
 317 576 l 1
 331 562 l 1
 327 516 l 1
 227 516 l 1
 211 434 193 339 180 250 c 1
 186 249 l 1
 242 366 298 444 348 474 c 1
 415 474 461 432 461 372 c 0
 461 317 400 174 387 110 c 1x5a
EndSplineSet
Validated: 33
EndChar

StartChar: i
Encoding: 105 105 170
Width: 283
Flags: MW
HStem: -12 21G<82.5 118> 394 59<37 62 27 74> 570 151<183.5 205.5>
LayerCount: 2
Back
Fore
SplineSet
180 570 m 0
 141 570 121 596 121 631 c 0
 121 683 157 721 210 721 c 0
 247 721 267 698 267 662 c 0
 267 609 231 570 180 570 c 0
169 109 m 1
 173 105 l 1
 181 105 189 111 239 155 c 1
 256 153 l 1
 273 118 l 1
 186 24 137 -12 99 -12 c 0
 66 -12 52 5 52 38 c 1
 52 38 100 324 100 356 c 0
 100 383 89 394 62 394 c 2
 27 394 l 1
 37 453 l 1
 111 453 228 462 228 462 c 1
 240 446 l 1
 240 446 193 278 169 109 c 1
EndSplineSet
Validated: 1
EndChar

StartChar: j
Encoding: 106 106 171
Width: 271
Flags: MW
HStem: -244 21G<-36 -36> 394 59<45 70 35 82.5> 570 151<191 212.5>
LayerCount: 2
Back
Fore
SplineSet
164 18 m 0
 148 -104 75 -191 -36 -244 c 1
 -63 -214 l 1
 -60 -202 l 1
 15 -147 43 -95 59 36 c 1
 59 36 109 324 109 356 c 0
 109 383 97 394 70 394 c 2
 35 394 l 1
 45 453 l 1
 120 453 235 462 235 462 c 1
 248 446 l 1
 248 446 196 240 164 18 c 0
187 570 m 0
 150 570 128 594 128 631 c 0
 128 684 165 721 217 721 c 0
 254 721 275 699 275 662 c 0
 275 608 238 570 187 570 c 0
EndSplineSet
Validated: 1
EndChar

StartChar: iogonek
Encoding: 303 303 172
Width: 293
Flags: MW
HStem: -237 72<80 149> 394 59<37 62 27 74> 570 151<183.5 205.5>
LayerCount: 2
Back
Fore
SplineSet
204 -141 m 1
 220 -170 l 1
 220 -170 162 -220 113 -237 c 1
 47 -237 6 -207 6 -156 c 0
 6 -111 35 -70 95 -12 c 1
 65 -11 52 6 52 38 c 1
 52 38 100 324 100 356 c 0
 100 383 89 394 62 394 c 2
 27 394 l 1
 37 453 l 1
 111 453 228 462 228 462 c 1
 240 446 l 1
 240 446 193 278 169 109 c 1
 173 105 l 1
 181 105 189 111 239 155 c 1
 256 153 l 1
 273 118 l 1
 148 -17 91 -69 91 -123 c 0
 91 -148 107 -165 133 -165 c 0
 165 -165 204 -141 204 -141 c 1
180 570 m 0
 141 570 121 596 121 631 c 0
 121 683 157 721 210 721 c 0
 247 721 267 698 267 662 c 0
 267 609 231 570 180 570 c 0
EndSplineSet
Validated: 1
EndChar

StartChar: k
Encoding: 107 107 173
Width: 460
Flags: MW
HStem: -19 21G<322 322> -8 21G<47 69.5> 346 128<299 382.5> 669 59<66 92 57 103.5> 717 20G<259 259>
LayerCount: 2
Back
Fore
SplineSet
309 -12 m 1xa8
 228 188 l 1
 235 205 l 1
 283 229 342 265 342 316 c 0
 342 335 332 346 316 346 c 0
 282 346 218 244 160 100 c 1
 151 29 l 2
 148 12 92 -8 47 -8 c 1
 34 8 l 1
 34 8 130 596 130 633 c 0
 130 658 119 669 92 669 c 2
 57 669 l 1
 66 728 l 1x70
 141 728 259 737 259 737 c 1
 271 721 l 1
 271 721 213 467 180 250 c 1
 186 249 l 1
 241 365 298 444 348 474 c 1
 417 474 463 433 463 373 c 0
 463 311 417 248 330 191 c 1
 376 109 432 25 432 25 c 1
 431 8 l 1
 322 -19 l 1
 309 -12 l 1xa8
EndSplineSet
Validated: 1
EndChar

StartChar: kcommaaccent
Encoding: 311 311 174
Width: 460
Flags: MW
HStem: -318 21G<144 144> -8 21G<47 69.5> 346 128<299 382.5> 669 59<66 92 57 103.5> 717 20G<259 259>
LayerCount: 2
Back
Fore
SplineSet
309 -12 m 1xe8
 228 188 l 1
 235 205 l 1
 283 229 342 265 342 316 c 0
 342 335 332 346 316 346 c 0
 282 346 218 244 160 100 c 1
 151 29 l 2
 148 12 92 -8 47 -8 c 1
 34 8 l 1
 34 8 130 596 130 633 c 0
 130 658 119 669 92 669 c 2
 57 669 l 1
 66 728 l 1xf0
 141 728 259 737 259 737 c 1
 271 721 l 1
 271 721 213 467 180 250 c 1
 186 249 l 1
 241 365 298 444 348 474 c 1
 417 474 463 433 463 373 c 0
 463 311 417 248 330 191 c 1
 376 109 432 25 432 25 c 1
 431 8 l 1
 322 -19 l 1
 309 -12 l 1xe8
140 -100 m 1
 143 -86 l 1
 167 -67 197 -51 222 -51 c 0
 262 -51 291 -84 291 -137 c 0
 291 -208 222 -275 144 -318 c 1
 107 -288 l 1
 107 -271 l 1
 146 -244 175 -203 175 -169 c 0
 175 -142 160 -116 140 -100 c 1
EndSplineSet
Validated: 1
EndChar

StartChar: l
Encoding: 108 108 175
Width: 270
Flags: MW
HStem: -12 21G<70.5 105.5> 669 59<66 92 57 104> 717 20G<259 259>
LayerCount: 2
Back
Fore
SplineSet
157 109 m 1xa0
 160 105 l 1
 168 105 176 111 226 155 c 1
 244 153 l 1
 260 118 l 1
 173 24 125 -12 86 -12 c 0
 55 -12 39 4 39 35 c 0
 39 61 130 599 130 633 c 0
 130 658 119 669 92 669 c 2
 57 669 l 1
 66 728 l 1xc0
 142 728 259 737 259 737 c 1
 271 721 l 1
 271 721 185 315 157 109 c 1xa0
EndSplineSet
Validated: 1
EndChar

StartChar: lacute
Encoding: 314 314 176
Width: 270
Flags: MW
HStem: -12 21G<70.5 105.5> 669 59<66 92 57 104> 956 20G<251 251>
LayerCount: 2
Back
Fore
SplineSet
157 109 m 1
 160 105 l 1
 168 105 176 111 226 155 c 1
 244 153 l 1
 260 118 l 1
 173 24 125 -12 86 -12 c 0
 55 -12 39 4 39 35 c 0
 39 61 130 599 130 633 c 0
 130 658 119 669 92 669 c 2
 57 669 l 1
 66 728 l 1
 142 728 259 737 259 737 c 1
 271 721 l 1
 271 721 185 315 157 109 c 1
318 905 m 1
 317 891 l 1
 317 891 221 831 128 762 c 1
 113 766 l 1
 83 805 l 1
 166 885 251 976 251 976 c 1
 264 975 l 1
 318 905 l 1
EndSplineSet
Validated: 1
EndChar

StartChar: lcaron
Encoding: 318 318 177
Width: 373
Flags: MW
HStem: -12 21G<70.5 105.5> 669 59<66 92 57 104> 717 20G<259 259>
LayerCount: 2
Back
Fore
SplineSet
157 109 m 1xa0
 160 105 l 1
 168 105 176 111 226 155 c 1
 244 153 l 1
 260 118 l 1
 173 24 125 -12 86 -12 c 0
 55 -12 39 4 39 35 c 0
 39 61 130 599 130 633 c 0
 130 658 119 669 92 669 c 2
 57 669 l 1
 66 728 l 1xc0
 142 728 259 737 259 737 c 1
 271 721 l 1
 271 721 185 315 157 109 c 1xa0
416 696 m 1
 422 686 l 1
 422 686 394 577 359 470 c 1
 308 450 l 1
 294 454 l 1
 311 569 315 682 315 682 c 1
 416 696 l 1
EndSplineSet
Validated: 1
EndChar

StartChar: lcommaaccent
Encoding: 316 316 178
Width: 270
Flags: MW
HStem: -318 21G<14 14> -12 21G<70.5 105.5> 669 59<66 92 57 104> 717 20G<259 259>
LayerCount: 2
Back
Fore
SplineSet
157 109 m 1xd0
 160 105 l 1
 168 105 176 111 226 155 c 1
 244 153 l 1
 260 118 l 1
 173 24 125 -12 86 -12 c 0
 55 -12 39 4 39 35 c 0
 39 61 130 599 130 633 c 0
 130 658 119 669 92 669 c 2
 57 669 l 1
 66 728 l 1xe0
 142 728 259 737 259 737 c 1
 271 721 l 1
 271 721 185 315 157 109 c 1xd0
10 -100 m 1
 13 -86 l 1
 37 -67 67 -51 92 -51 c 0
 132 -51 161 -84 161 -137 c 0
 161 -208 92 -275 14 -318 c 1
 -23 -288 l 1
 -23 -271 l 1
 16 -244 45 -203 45 -169 c 0
 45 -142 30 -116 10 -100 c 1
EndSplineSet
Validated: 1
EndChar

StartChar: ldot
Encoding: 320 320 179
Width: 377
Flags: MW
HStem: -12 21G<70.5 105.5> 212 158<298 326> 669 59<66 92 57 104> 717 20G<259 259>
LayerCount: 2
Back
Fore
SplineSet
157 109 m 1xd0
 160 105 l 1
 168 105 176 111 226 155 c 1
 244 153 l 1
 260 118 l 1
 173 24 125 -12 86 -12 c 0
 55 -12 39 4 39 35 c 0
 39 61 130 599 130 633 c 0
 130 658 119 669 92 669 c 2
 57 669 l 1
 66 728 l 1xe0
 142 728 259 737 259 737 c 1
 271 721 l 1
 271 721 185 315 157 109 c 1xd0
299 212 m 0
 255 212 235 239 235 277 c 0
 235 330 271 370 325 370 c 0
 367 370 390 344 390 305 c 0
 390 251 353 212 299 212 c 0
EndSplineSet
Validated: 1
EndChar

StartChar: lslash
Encoding: 322 322 180
Width: 270
Flags: MW
HStem: -12 21G<70.5 105.5> 669 59<66 92 57 104> 717 20G<259 259>
LayerCount: 2
Back
Fore
SplineSet
157 109 m 1xa0
 160 105 l 1
 168 105 176 111 226 155 c 1
 244 153 l 1
 260 118 l 1
 173 24 125 -12 86 -12 c 0
 55 -12 39 4 39 35 c 0
 39 47 59 171 80 304 c 1
 26 276 l 1
 17 278 l 1
 -1 340 l 1
 94 390 l 1
 113 510 130 618 130 633 c 0
 130 658 119 669 92 669 c 2
 57 669 l 1
 66 728 l 1xc0
 142 728 259 737 259 737 c 1
 271 721 l 1
 271 721 243 590 214 440 c 1
 269 469 l 1
 277 465 l 1
 295 404 l 1
 197 353 l 1
 181 264 166 176 157 109 c 1xa0
EndSplineSet
Validated: 1
EndChar

StartChar: m
Encoding: 109 109 181
Width: 764
Flags: MW
HStem: -11 21G<557 591.5> -8 21G<60 82.5 295 317.5> 346 128<305 390.5> 394 59<38 63 28 75>
LayerCount: 2
Back
Fore
SplineSet
645 110 m 1x60
 648 107 l 1
 655 107 663 113 714 157 c 1
 732 154 l 1
 748 119 l 1
 657 24 610 -11 573 -11 c 0xa0
 541 -11 525 3 525 33 c 0
 525 84 597 258 597 311 c 0
 597 333 587 346 571 346 c 0
 537 346 469 238 407 86 c 1
 398 29 l 2
 396 12 340 -8 295 -8 c 1
 282 8 l 1
 282 8 347 276 347 314 c 0
 347 334 338 346 321 346 c 0x60
 289 346 229 246 173 101 c 1
 164 29 l 2
 161 12 105 -8 60 -8 c 1
 47 8 l 1
 47 8 96 308 101 353 c 0
 103 383 92 394 63 394 c 2
 28 394 l 1
 38 453 l 1x50
 112 453 229 462 229 462 c 1
 240 446 l 1
 240 446 208 346 193 250 c 1
 198 249 l 1
 253 365 308 444 358 474 c 1
 423 474 468 433 468 375 c 0
 468 345 440 250 440 250 c 1
 445 249 l 1
 499 362 558 443 609 474 c 1
 676 474 719 434 719 374 c 0
 719 318 659 174 645 110 c 1x60
EndSplineSet
Validated: 33
EndChar

StartChar: n
Encoding: 110 110 182
Width: 519
Flags: MW
HStem: -11 21G<313 348.5> -8 21G<60 82.5> 394 59<38 63 28 75> 454 20G<361 394.5>
LayerCount: 2
Back
Fore
SplineSet
400 110 m 1x70
 403 107 l 1
 411 107 418 112 469 157 c 1
 487 154 l 1
 503 119 l 1
 416 26 368 -11 329 -11 c 0xb0
 297 -11 281 3 281 33 c 0
 281 85 350 257 350 311 c 0
 350 333 340 346 324 346 c 0
 291 346 230 245 173 100 c 1
 164 29 l 2
 161 12 105 -8 60 -8 c 1
 47 8 l 1
 47 8 96 308 101 353 c 0
 103 383 92 394 63 394 c 2
 28 394 l 1
 38 453 l 1
 112 453 229 462 229 462 c 1
 240 446 l 1
 240 446 208 346 193 250 c 1
 199 249 l 1
 255 366 311 444 361 474 c 1
 428 474 472 433 472 373 c 0
 472 317 413 174 400 110 c 1x70
EndSplineSet
Validated: 33
EndChar

StartChar: nacute
Encoding: 324 324 183
Width: 519
Flags: MW
HStem: -11 21G<313 348.5> -8 21G<60 82.5> 394 59<38 63 28 75> 454 20G<361 394.5> 717 20G<384 384>
LayerCount: 2
Back
Fore
SplineSet
400 110 m 1x78
 403 107 l 1
 411 107 418 112 469 157 c 1
 487 154 l 1
 503 119 l 1
 416 26 368 -11 329 -11 c 0xb8
 297 -11 281 3 281 33 c 0
 281 85 350 257 350 311 c 0
 350 333 340 346 324 346 c 0
 291 346 230 245 173 100 c 1
 164 29 l 2
 161 12 105 -8 60 -8 c 1
 47 8 l 1
 47 8 96 308 101 353 c 0
 103 383 92 394 63 394 c 2
 28 394 l 1
 38 453 l 1
 112 453 229 462 229 462 c 1
 240 446 l 1
 240 446 208 346 193 250 c 1
 199 249 l 1
 255 366 311 444 361 474 c 1
 428 474 472 433 472 373 c 0
 472 317 413 174 400 110 c 1x78
451 666 m 1
 450 652 l 1
 450 652 354 592 261 523 c 1
 246 527 l 1
 216 566 l 1
 299 646 384 737 384 737 c 1
 397 736 l 1
 451 666 l 1
EndSplineSet
Validated: 33
EndChar

StartChar: ncaron
Encoding: 328 328 184
Width: 519
Flags: MW
HStem: -11 21G<313 348.5> -8 21G<60 82.5> 394 59<38 63 28 75> 454 20G<361 394.5> 704 20G<218 218 449 449>
LayerCount: 2
Back
Fore
SplineSet
400 110 m 1x78
 403 107 l 1
 411 107 418 112 469 157 c 1
 487 154 l 1
 503 119 l 1
 416 26 368 -11 329 -11 c 0xb8
 297 -11 281 3 281 33 c 0
 281 85 350 257 350 311 c 0
 350 333 340 346 324 346 c 0
 291 346 230 245 173 100 c 1
 164 29 l 2
 161 12 105 -8 60 -8 c 1
 47 8 l 1
 47 8 96 308 101 353 c 0
 103 383 92 394 63 394 c 2
 28 394 l 1
 38 453 l 1
 112 453 229 462 229 462 c 1
 240 446 l 1
 240 446 208 346 193 250 c 1
 199 249 l 1
 255 366 311 444 361 474 c 1
 428 474 472 433 472 373 c 0
 472 317 413 174 400 110 c 1x78
167 679 m 1
 202 721 l 1
 218 724 l 1
 257 689 299 657 323 639 c 1
 351 657 402 689 449 724 c 1
 463 721 l 1
 488 679 l 1
 409 609 318 521 318 521 c 1
 298 521 l 1
 298 521 229 609 167 679 c 1
EndSplineSet
Validated: 33
EndChar

StartChar: ncommaaccent
Encoding: 326 326 185
Width: 519
Flags: MW
HStem: -318 21G<157 157> -51 40 -8 21G<60 82.5> 394 59<38 63 28 75> 454 20G<361 394.5>
LayerCount: 2
Back
Fore
SplineSet
400 110 m 1
 403 107 l 1
 411 107 418 112 469 157 c 1
 487 154 l 1
 503 119 l 1
 416 26 368 -11 329 -11 c 0
 297 -11 281 3 281 33 c 0
 281 85 350 257 350 311 c 0
 350 333 340 346 324 346 c 0
 291 346 230 245 173 100 c 1
 164 29 l 2
 161 12 105 -8 60 -8 c 1
 47 8 l 1
 47 8 96 308 101 353 c 0
 103 383 92 394 63 394 c 2
 28 394 l 1
 38 453 l 1
 112 453 229 462 229 462 c 1
 240 446 l 1
 240 446 208 346 193 250 c 1
 199 249 l 1
 255 366 311 444 361 474 c 1
 428 474 472 433 472 373 c 0
 472 317 413 174 400 110 c 1
153 -100 m 1
 156 -86 l 1
 180 -67 210 -51 235 -51 c 0
 275 -51 304 -84 304 -137 c 0
 304 -208 235 -275 157 -318 c 1
 120 -288 l 1
 120 -271 l 1
 159 -244 188 -203 188 -169 c 0
 188 -142 173 -116 153 -100 c 1
EndSplineSet
Validated: 33
EndChar

StartChar: ntilde
Encoding: 241 241 186
Width: 519
Flags: MW
HStem: -11 21G<313 348.5> -8 21G<60 82.5> 394 59<38 63 28 75> 454 20G<361 394.5> 561 97<378.5 395> 595 96<243 259.5 243 268> 694 20G<454 465 465 465>
LayerCount: 2
Back
Fore
SplineSet
400 110 m 1x7a
 403 107 l 1
 411 107 418 112 469 157 c 1
 487 154 l 1
 503 119 l 1
 416 26 368 -11 329 -11 c 0xb6
 297 -11 281 3 281 33 c 0
 281 85 350 257 350 311 c 0
 350 333 340 346 324 346 c 0
 291 346 230 245 173 100 c 1
 164 29 l 2
 161 12 105 -8 60 -8 c 1
 47 8 l 1
 47 8 96 308 101 353 c 0
 103 383 92 394 63 394 c 2
 28 394 l 1
 38 453 l 1
 112 453 229 462 229 462 c 1
 240 446 l 1
 240 446 208 346 193 250 c 1
 199 249 l 1
 255 366 311 444 361 474 c 1
 428 474 472 433 472 373 c 0
 472 317 413 174 400 110 c 1x7a
184 539 m 1
 173 539 l 1
 138 575 l 1
 139 586 l 1
 227 687 l 1
 243 691 l 1x76
 276 691 357 658 385 658 c 0
 407 658 454 714 454 714 c 1
 465 714 l 1
 501 677 l 1
 499 667 l 1
 411 565 l 1
 395 561 l 1x7a
 362 561 282 595 254 595 c 0
 230 595 184 539 184 539 c 1
EndSplineSet
Validated: 33
EndChar

StartChar: o
Encoding: 111 111 187
Width: 444
Flags: MW
HStem: -12 80<191.5 236 191.5 242.5> 385 89<208.5 253>
LayerCount: 2
Back
Fore
SplineSet
210 68 m 0
 262 68 294 140 294 263 c 0
 294 344 273 385 233 385 c 0
 184 385 150 309 150 199 c 0
 150 117 173 68 210 68 c 0
171 -12 m 0
 82 -12 27 55 27 167 c 0
 27 340 133 474 274 474 c 0
 367 474 420 413 420 305 c 0
 420 125 314 -12 171 -12 c 0
EndSplineSet
Validated: 1
EndChar

StartChar: oacute
Encoding: 243 243 188
Width: 444
Flags: MW
HStem: -12 80<191.5 236 191.5 242.5> 385 89<208.5 253> 717 20G<343 343>
LayerCount: 2
Back
Fore
SplineSet
210 68 m 0
 262 68 294 140 294 263 c 0
 294 344 273 385 233 385 c 0
 184 385 150 309 150 199 c 0
 150 117 173 68 210 68 c 0
171 -12 m 0
 82 -12 27 55 27 167 c 0
 27 340 133 474 274 474 c 0
 367 474 420 413 420 305 c 0
 420 125 314 -12 171 -12 c 0
410 666 m 1
 409 652 l 1
 409 652 313 592 220 523 c 1
 205 527 l 1
 175 566 l 1
 258 646 343 737 343 737 c 1
 356 736 l 1
 410 666 l 1
EndSplineSet
Validated: 1
EndChar

StartChar: ocircumflex
Encoding: 244 244 189
Width: 444
Flags: MW
HStem: -12 80<191.5 236 191.5 242.5> 385 89<208.5 253> 710 20G<279 299 299 299>
LayerCount: 2
Back
Fore
SplineSet
210 68 m 0
 262 68 294 140 294 263 c 0
 294 344 273 385 233 385 c 0
 184 385 150 309 150 199 c 0
 150 117 173 68 210 68 c 0
171 -12 m 0
 82 -12 27 55 27 167 c 0
 27 340 133 474 274 474 c 0
 367 474 420 413 420 305 c 0
 420 125 314 -12 171 -12 c 0
137 535 m 1
 113 576 l 1
 154 609 279 730 279 730 c 1
 299 730 l 1
 299 730 396 609 428 576 c 1
 394 535 l 1
 378 531 l 1
 361 544 286 607 275 614 c 1
 262 607 172 544 153 531 c 1
 137 535 l 1
EndSplineSet
Validated: 1
EndChar

StartChar: odieresis
Encoding: 246 246 190
Width: 444
Flags: MW
HStem: -12 80<191.5 236 191.5 242.5> 385 89<208.5 253> 563 128<179 199 352 373>
LayerCount: 2
Back
Fore
SplineSet
210 68 m 0
 262 68 294 140 294 263 c 0
 294 344 273 385 233 385 c 0
 184 385 150 309 150 199 c 0
 150 117 173 68 210 68 c 0
171 -12 m 0
 82 -12 27 55 27 167 c 0
 27 340 133 474 274 474 c 0
 367 474 420 413 420 305 c 0
 420 125 314 -12 171 -12 c 0
351 563 m 0
 316 563 298 584 298 615 c 0
 298 658 330 691 374 691 c 0
 408 691 426 670 426 639 c 0
 426 595 395 563 351 563 c 0
177 563 m 0
 143 563 125 584 125 615 c 0
 125 658 157 691 201 691 c 0
 235 691 252 670 252 639 c 0
 252 595 221 563 177 563 c 0
EndSplineSet
Validated: 1
EndChar

StartChar: ograve
Encoding: 242 242 191
Width: 444
Flags: MW
HStem: -12 80<191.5 236 191.5 242.5> 385 89<208.5 253> 716 20G<192 192>
LayerCount: 2
Back
Fore
SplineSet
210 68 m 0
 262 68 294 140 294 263 c 0
 294 344 273 385 233 385 c 0
 184 385 150 309 150 199 c 0
 150 117 173 68 210 68 c 0
171 -12 m 0
 82 -12 27 55 27 167 c 0
 27 340 133 474 274 474 c 0
 367 474 420 413 420 305 c 0
 420 125 314 -12 171 -12 c 0
126 651 m 1
 124 665 l 1
 179 735 l 1
 192 736 l 1
 192 736 277 646 360 566 c 1
 330 527 l 1
 314 523 l 1
 221 592 126 651 126 651 c 1
EndSplineSet
Validated: 1
EndChar

StartChar: ohungarumlaut
Encoding: 337 337 192
Width: 444
Flags: MW
HStem: -12 80<191.5 236 191.5 242.5> 385 89<208.5 253> 707 20G<263 263 408 408>
LayerCount: 2
Back
Fore
SplineSet
210 68 m 0
 262 68 294 140 294 263 c 0
 294 344 273 385 233 385 c 0
 184 385 150 309 150 199 c 0
 150 117 173 68 210 68 c 0
171 -12 m 0
 82 -12 27 55 27 167 c 0
 27 340 133 474 274 474 c 0
 367 474 420 413 420 305 c 0
 420 125 314 -12 171 -12 c 0
320 677 m 1
 321 666 l 1
 321 666 246 602 173 531 c 1
 159 532 l 1
 127 560 l 1
 188 638 252 726 252 726 c 1
 263 727 l 1
 320 677 l 1
465 677 m 1
 466 666 l 1
 466 666 391 602 317 531 c 1
 304 532 l 1
 272 560 l 1
 332 638 396 726 396 726 c 1
 408 727 l 1
 465 677 l 1
EndSplineSet
Validated: 1
EndChar

StartChar: hungarumlaut
Encoding: 733 733 193
Width: 384
Flags: MW
HStem: 531 21G<101 101 245 245> 707 20G<191 191 336 336>
LayerCount: 2
Back
Fore
SplineSet
248 677 m 1
 249 666 l 1
 249 666 174 602 101 531 c 1
 87 532 l 1
 55 560 l 1
 116 638 180 726 180 726 c 1
 191 727 l 1
 248 677 l 1
393 677 m 1
 394 666 l 1
 394 666 319 602 245 531 c 1
 232 532 l 1
 200 560 l 1
 260 638 324 726 324 726 c 1
 336 727 l 1
 393 677 l 1
EndSplineSet
Validated: 1
EndChar

StartChar: omacron
Encoding: 333 333 194
Width: 444
Flags: MW
HStem: -12 80<191.5 236 191.5 242.5> 385 89<208.5 253> 581 85<240.5 322> 652 20G<421 421>
LayerCount: 2
Back
Fore
SplineSet
210 68 m 0xd0
 262 68 294 140 294 263 c 0
 294 344 273 385 233 385 c 0
 184 385 150 309 150 199 c 0
 150 117 173 68 210 68 c 0xd0
171 -12 m 0
 82 -12 27 55 27 167 c 0
 27 340 133 474 274 474 c 0
 367 474 420 413 420 305 c 0
 420 125 314 -12 171 -12 c 0
421 672 m 1
 427 658 l 1
 405 582 l 1
 269 581 l 2
 212 581 135 580 135 580 c 1
 126 591 l 1
 149 667 l 1
 149 667 241 666 298 666 c 0xe0
 346 666 421 672 421 672 c 1
EndSplineSet
Validated: 1
EndChar

StartChar: oslash
Encoding: 248 248 195
Width: 444
Flags: MW
HStem: -117 21G<60 60> -12 80<204.5 236 204.5 242.5> 385 89<208.5 239> 552 20G<383 383>
LayerCount: 2
Back
Fore
SplineSet
-2 -78 m 1
 66 34 l 1
 41 65 27 110 27 167 c 0
 27 340 133 474 274 474 c 0
 291 474 306 472 321 468 c 1
 383 572 l 1
 445 542 l 1
 448 530 l 1
 385 426 l 1
 408 398 420 357 420 305 c 0
 420 125 314 -12 171 -12 c 0
 155 -12 141 -10 128 -6 c 1
 60 -117 l 1
 0 -88 l 1
 -2 -78 l 1
150 199 m 2
 150 175 l 1
 265 373 l 1
 256 381 245 385 233 385 c 0
 184 385 150 309 150 199 c 2
210 68 m 0
 262 68 294 140 294 263 c 2
 294 273 l 1
 181 80 l 1
 189 72 199 68 210 68 c 0
EndSplineSet
Validated: 1
EndChar

StartChar: otilde
Encoding: 245 245 196
Width: 444
Flags: MW
HStem: -12 80<191.5 236 191.5 242.5> 385 89<208.5 253> 561 97<337.5 354> 595 96<202 218.5 202 227> 694 20G<413 424 424 424>
LayerCount: 2
Back
Fore
SplineSet
210 68 m 0xd8
 262 68 294 140 294 263 c 0
 294 344 273 385 233 385 c 0
 184 385 150 309 150 199 c 0
 150 117 173 68 210 68 c 0xd8
171 -12 m 0
 82 -12 27 55 27 167 c 0
 27 340 133 474 274 474 c 0
 367 474 420 413 420 305 c 0
 420 125 314 -12 171 -12 c 0
143 539 m 1
 132 539 l 1
 97 575 l 1
 98 586 l 1
 186 687 l 1
 202 691 l 1xd8
 235 691 316 658 344 658 c 0
 366 658 413 714 413 714 c 1
 424 714 l 1
 460 677 l 1
 458 667 l 1
 370 565 l 1
 354 561 l 1xe8
 321 561 241 595 213 595 c 0
 189 595 143 539 143 539 c 1
EndSplineSet
Validated: 1
EndChar

StartChar: p
Encoding: 112 112 197
Width: 501
Flags: MW
HStem: -236 21G<-41 -41> -229 61<174 208> -4 87<263 298.5 263 301.5> 394 59<36 61 26 73> 454 20G<349 389>
LayerCount: 2
Back
Fore
SplineSet
-41 -236 m 1xb8
 -30 -178 l 1
 4 -174 15 -161 27 -112 c 0
 45 -38 99 318 99 357 c 0
 99 383 88 394 61 394 c 2
 26 394 l 1
 36 453 l 1
 110 453 227 462 227 462 c 1
 239 447 l 1
 218 384 203 324 191 257 c 1
 197 256 l 1
 257 375 301 435 349 474 c 1
 429 474 479 412 479 316 c 0
 479 159 356 -4 247 -4 c 1
 151 12 l 1
 132 -119 l 2
 127 -157 136 -168 174 -168 c 2
 218 -168 l 1
 219 -174 l 1
 208 -229 l 1x78
 87 -229 -41 -236 -41 -236 c 1xb8
326 365 m 0xb8
 302 365 239 262 183 111 c 1
 203 102 247 83 279 83 c 0
 318 83 356 185 356 271 c 0
 356 322 342 365 326 365 c 0xb8
EndSplineSet
Validated: 33
EndChar

StartChar: q
Encoding: 113 113 198
Width: 473
Flags: MW
HStem: -240 21G<157 157> -228 61<378 404> -12 21G<106 143> 387 79<210 246.5> 485 20G<378 378>
LayerCount: 2
Back
Fore
SplineSet
247 -111 m 2xb8
 276 49 l 1
 304 193 l 1
 296 194 l 1
 237 88 192 26 143 -12 c 1
 69 -12 22 48 22 142 c 0
 22 299 146 466 262 466 c 1
 347 448 l 1
 365 498 l 1
 378 505 l 1
 458 492 l 1
 465 475 l 1
 448 444 351 -25 351 -132 c 0
 351 -158 358 -167 378 -167 c 2
 412 -167 l 1
 414 -172 l 1
 404 -228 l 1x78
 257 -228 157 -240 157 -240 c 1
 168 -181 l 1
 226 -176 237 -166 247 -111 c 2xb8
172 105 m 0
 199 105 260 212 318 358 c 1
 300 369 262 387 231 387 c 0
 189 387 145 290 145 196 c 0
 145 145 157 105 172 105 c 0
EndSplineSet
Validated: 1
EndChar

StartChar: r
Encoding: 114 114 199
Width: 380
Flags: MW
HStem: -8 21G<60 82.5> 394 59<38 63 28 75> 452 20G<337.5 357>
LayerCount: 2
Back
Fore
SplineSet
47 8 m 1xa0
 47 8 101 318 101 355 c 0
 101 383 91 394 63 394 c 2
 28 394 l 1
 38 453 l 1xc0
 112 453 229 462 229 462 c 1
 240 446 l 1
 240 446 213 357 199 276 c 1
 204 276 l 1
 247 381 318 472 357 472 c 1
 387 449 401 417 401 374 c 0
 401 359 398 343 391 321 c 1
 377 315 l 1
 377 315 362 327 337 327 c 0
 284 327 225 253 175 121 c 1
 164 29 l 2
 161 12 105 -8 60 -8 c 1
 47 8 l 1xa0
EndSplineSet
Validated: 1
EndChar

StartChar: racute
Encoding: 341 341 200
Width: 380
Flags: MW
HStem: -8 21G<60 82.5> 394 59<38 63 28 75> 452 20G<337.5 357> 717 20G<263 263>
LayerCount: 2
Back
Fore
SplineSet
47 8 m 1xb0
 47 8 101 318 101 355 c 0
 101 383 91 394 63 394 c 2
 28 394 l 1
 38 453 l 1xd0
 112 453 229 462 229 462 c 1
 240 446 l 1
 240 446 213 357 199 276 c 1
 204 276 l 1
 247 381 318 472 357 472 c 1
 387 449 401 417 401 374 c 0
 401 359 398 343 391 321 c 1
 377 315 l 1
 377 315 362 327 337 327 c 0
 284 327 225 253 175 121 c 1
 164 29 l 2
 161 12 105 -8 60 -8 c 1
 47 8 l 1xb0
330 666 m 1
 329 652 l 1
 329 652 233 592 140 523 c 1
 125 527 l 1
 95 566 l 1
 178 646 263 737 263 737 c 1
 276 736 l 1
 330 666 l 1
EndSplineSet
Validated: 1
EndChar

StartChar: rcaron
Encoding: 345 345 201
Width: 380
Flags: MW
HStem: -8 21G<60 82.5> 394 59<38 63 28 75> 452 20G<337.5 357> 704 20G<92 92 323 323>
LayerCount: 2
Back
Fore
SplineSet
47 8 m 1xb0
 47 8 101 318 101 355 c 0
 101 383 91 394 63 394 c 2
 28 394 l 1
 38 453 l 1xd0
 112 453 229 462 229 462 c 1
 240 446 l 1
 240 446 213 357 199 276 c 1
 204 276 l 1
 247 381 318 472 357 472 c 1
 387 449 401 417 401 374 c 0
 401 359 398 343 391 321 c 1
 377 315 l 1
 377 315 362 327 337 327 c 0
 284 327 225 253 175 121 c 1
 164 29 l 2
 161 12 105 -8 60 -8 c 1
 47 8 l 1xb0
41 679 m 1
 76 721 l 1
 92 724 l 1
 131 689 173 657 197 639 c 1
 225 657 276 689 323 724 c 1
 337 721 l 1
 362 679 l 1
 283 609 192 521 192 521 c 1
 172 521 l 1
 172 521 103 609 41 679 c 1
EndSplineSet
Validated: 1
EndChar

StartChar: rcommaaccent
Encoding: 343 343 202
Width: 380
Flags: MW
HStem: -318 21G<33 33> -8 21G<60 82.5> 394 59<38 63 28 75> 452 20G<337.5 357>
LayerCount: 2
Back
Fore
SplineSet
47 8 m 1xd0
 47 8 101 318 101 355 c 0
 101 383 91 394 63 394 c 2
 28 394 l 1
 38 453 l 1xe0
 112 453 229 462 229 462 c 1
 240 446 l 1
 240 446 213 357 199 276 c 1
 204 276 l 1
 247 381 318 472 357 472 c 1
 387 449 401 417 401 374 c 0
 401 359 398 343 391 321 c 1
 377 315 l 1
 377 315 362 327 337 327 c 0
 284 327 225 253 175 121 c 1
 164 29 l 2
 161 12 105 -8 60 -8 c 1
 47 8 l 1xd0
29 -100 m 1
 32 -86 l 1
 56 -67 86 -51 111 -51 c 0
 151 -51 180 -84 180 -137 c 0
 180 -208 111 -275 33 -318 c 1
 -4 -288 l 1
 -4 -271 l 1
 35 -244 64 -203 64 -169 c 0
 64 -142 49 -116 29 -100 c 1
EndSplineSet
Validated: 1
EndChar

StartChar: s
Encoding: 115 115 203
Width: 369
Flags: MW
HStem: -12 81<131 173.5 131 193> 390 84<214.5 243>
LayerCount: 2
Back
Fore
SplineSet
48 158 m 1
 68 157 l 1
 70 103 105 69 157 69 c 0
 190 69 213 88 213 114 c 0
 213 142 183 162 149 185 c 0
 105 215 54 249 54 313 c 0
 54 403 138 474 243 474 c 0
 294 474 342 458 369 433 c 1
 354 394 335 356 321 331 c 1
 301 331 l 1
 287 367 259 390 227 390 c 0
 202 390 181 372 181 348 c 0
 181 330 193 316 211 302 c 0
 257 265 338 231 338 152 c 0
 338 62 248 -12 138 -12 c 0
 68 -12 12 12 0 48 c 1
 7 82 30 134 48 158 c 1
EndSplineSet
Validated: 1
EndChar

StartChar: sacute
Encoding: 347 347 204
Width: 369
Flags: MW
HStem: -12 81<131 173.5 131 193> 390 84<214.5 243> 717 20G<326 326>
LayerCount: 2
Back
Fore
SplineSet
48 158 m 1
 68 157 l 1
 70 103 105 69 157 69 c 0
 190 69 213 88 213 114 c 0
 213 142 183 162 149 185 c 0
 105 215 54 249 54 313 c 0
 54 403 138 474 243 474 c 0
 294 474 342 458 369 433 c 1
 354 394 335 356 321 331 c 1
 301 331 l 1
 287 367 259 390 227 390 c 0
 202 390 181 372 181 348 c 0
 181 330 193 316 211 302 c 0
 257 265 338 231 338 152 c 0
 338 62 248 -12 138 -12 c 0
 68 -12 12 12 0 48 c 1
 7 82 30 134 48 158 c 1
393 666 m 1
 392 652 l 1
 392 652 296 592 203 523 c 1
 188 527 l 1
 158 566 l 1
 241 646 326 737 326 737 c 1
 339 736 l 1
 393 666 l 1
EndSplineSet
Validated: 1
EndChar

StartChar: scaron
Encoding: 353 353 205
Width: 369
Flags: MW
HStem: -12 81<131 173.5 131 193> 390 84<214.5 243> 704 20G<150 150 381 381>
LayerCount: 2
Back
Fore
SplineSet
48 158 m 1
 68 157 l 1
 70 103 105 69 157 69 c 0
 190 69 213 88 213 114 c 0
 213 142 183 162 149 185 c 0
 105 215 54 249 54 313 c 0
 54 403 138 474 243 474 c 0
 294 474 342 458 369 433 c 1
 354 394 335 356 321 331 c 1
 301 331 l 1
 287 367 259 390 227 390 c 0
 202 390 181 372 181 348 c 0
 181 330 193 316 211 302 c 0
 257 265 338 231 338 152 c 0
 338 62 248 -12 138 -12 c 0
 68 -12 12 12 0 48 c 1
 7 82 30 134 48 158 c 1
99 679 m 1
 134 721 l 1
 150 724 l 1
 189 689 231 657 255 639 c 1
 283 657 334 689 381 724 c 1
 395 721 l 1
 420 679 l 1
 341 609 250 521 250 521 c 1
 230 521 l 1
 230 521 161 609 99 679 c 1
EndSplineSet
Validated: 1
EndChar

StartChar: scedilla
Encoding: 351 351 206
Width: 369
Flags: MW
HStem: -238 52<107 131.5> -150 20G<70 78 78 78> -11 80<117 173.5> 390 84<214.5 243>
LayerCount: 2
Back
Fore
SplineSet
88 -86 m 1
 117 -11 l 1
 57 -7 11 15 0 48 c 1
 7 82 30 134 48 158 c 1
 68 157 l 1
 70 103 105 69 157 69 c 0
 190 69 213 88 213 114 c 0
 213 142 183 162 149 185 c 0
 105 215 54 249 54 313 c 0
 54 403 138 474 243 474 c 0
 294 474 342 458 369 433 c 1
 354 394 335 356 321 331 c 1
 301 331 l 1
 287 367 259 390 227 390 c 0
 202 390 181 372 181 348 c 0
 181 330 193 316 211 302 c 0
 257 265 338 231 338 152 c 0
 338 70 264 2 169 -10 c 1
 156 -44 l 1
 189 -64 240 -98 240 -136 c 0
 240 -191 167 -238 96 -238 c 0
 64 -238 24 -222 24 -196 c 0
 24 -181 52 -149 70 -130 c 1
 78 -130 l 1
 75 -167 93 -186 121 -186 c 0
 145 -186 163 -173 163 -154 c 0
 163 -133 122 -106 88 -86 c 1
EndSplineSet
Validated: 33
EndChar

StartChar: scommaaccent
Encoding: 537 537 207
Width: 369
Flags: MW
HStem: -318 21G<82 82> -12 81<131 173.5 131 193> 390 84<214.5 243>
LayerCount: 2
Back
Fore
SplineSet
48 158 m 1
 68 157 l 1
 70 103 105 69 157 69 c 0
 190 69 213 88 213 114 c 0
 213 142 183 162 149 185 c 0
 105 215 54 249 54 313 c 0
 54 403 138 474 243 474 c 0
 294 474 342 458 369 433 c 1
 354 394 335 356 321 331 c 1
 301 331 l 1
 287 367 259 390 227 390 c 0
 202 390 181 372 181 348 c 0
 181 330 193 316 211 302 c 0
 257 265 338 231 338 152 c 0
 338 62 248 -12 138 -12 c 0
 68 -12 12 12 0 48 c 1
 7 82 30 134 48 158 c 1
78 -100 m 1
 81 -86 l 1
 105 -67 135 -51 160 -51 c 0
 200 -51 229 -84 229 -137 c 0
 229 -208 160 -275 82 -318 c 1
 45 -288 l 1
 45 -271 l 1
 84 -244 113 -203 113 -169 c 0
 113 -142 98 -116 78 -100 c 1
EndSplineSet
Validated: 1
EndChar

StartChar: t
Encoding: 116 116 208
Width: 307
Flags: MW
HStem: -12 115<112 194> 394 61<333 333> 587 20G<254 254>
LayerCount: 2
Back
Fore
SplineSet
266 161 m 1
 283 158 l 1
 299 122 l 1
 238 45 176 -12 145 -12 c 0
 79 -12 44 26 51 88 c 2
 101 385 l 1
 94 391 l 1
 32 393 l 1
 29 398 l 1
 35 444 l 1
 111 456 l 1
 119 510 126 572 126 572 c 1
 254 607 l 1
 264 595 l 1
 264 595 244 528 228 455 c 1
 337 455 l 1
 342 450 l 1
 333 394 l 1
 226 395 l 1
 214 388 l 1
 166 136 l 2
 163 114 169 103 186 103 c 0
 202 103 223 118 266 161 c 1
EndSplineSet
Validated: 33
EndChar

StartChar: tbar
Encoding: 359 359 209
Width: 307
Flags: MW
HStem: -12 115<112 194> 235 58 394 61<333 333> 587 20G<254 254>
LayerCount: 2
Back
Fore
SplineSet
266 161 m 1
 283 158 l 1
 299 122 l 1
 238 45 176 -12 145 -12 c 0
 79 -12 44 26 51 88 c 2
 75 234 l 1
 5 234 l 1
 -5 243 l 1
 2 291 l 1
 85 290 l 1
 101 385 l 1
 94 391 l 1
 32 393 l 1
 29 398 l 1
 35 444 l 1
 111 456 l 1
 119 510 126 572 126 572 c 1
 254 607 l 1
 264 595 l 1
 264 595 244 528 228 455 c 1
 337 455 l 1
 342 450 l 1
 333 394 l 1
 226 395 l 1
 214 388 l 1
 195 291 l 1
 288 295 l 1
 302 281 l 1
 298 235 l 1
 185 235 l 1
 166 136 l 2
 163 114 169 103 186 103 c 0
 202 103 223 118 266 161 c 1
EndSplineSet
Validated: 33
EndChar

StartChar: tcedilla
Encoding: 355 355 210
Width: 307
Flags: MW
HStem: -238 52<110 134.5> -150 20G<73 81 81 81> 394 61<333 333> 587 20G<254 254>
LayerCount: 2
Back
Fore
SplineSet
91 -86 m 1
 120 -10 l 1
 70 -1 45 34 51 88 c 2
 101 385 l 1
 94 391 l 1
 32 393 l 1
 29 398 l 1
 35 444 l 1
 111 456 l 1
 119 510 126 572 126 572 c 1
 254 607 l 1
 264 595 l 1
 264 595 244 528 228 455 c 1
 337 455 l 1
 342 450 l 1
 333 394 l 1
 226 395 l 1
 214 388 l 1
 166 136 l 2
 163 114 169 103 186 103 c 0
 202 103 223 118 266 161 c 1
 283 158 l 1
 299 122 l 1
 254 66 209 20 176 0 c 1
 159 -44 l 1
 192 -64 243 -98 243 -136 c 0
 243 -191 170 -238 99 -238 c 0
 67 -238 27 -222 27 -196 c 0
 27 -181 55 -149 73 -130 c 1
 81 -130 l 1
 78 -167 96 -186 124 -186 c 0
 148 -186 166 -173 166 -154 c 0
 166 -133 125 -106 91 -86 c 1
EndSplineSet
Validated: 33
EndChar

StartChar: u
Encoding: 117 117 211
Width: 508
Flags: MW
HStem: -12 21G<312.5 346> -11 121<124 202.5> 394 59<47 71 37 84> 445 20G<374 374>
LayerCount: 2
Back
Fore
SplineSet
320 201 m 1x90
 311 202 l 1
 260 95 210 25 161 -11 c 1
 87 -11 43 26 43 84 c 0
 43 139 109 314 109 360 c 0
 109 384 98 394 71 394 c 2
 37 394 l 1
 47 453 l 1
 121 453 238 462 238 462 c 1
 250 446 l 1
 250 446 164 186 164 139 c 0
 164 119 171 110 187 110 c 0x60
 218 110 283 215 345 365 c 1
 359 457 l 1
 374 465 l 1
 456 459 l 1
 469 444 l 1
 469 444 422 267 398 109 c 1
 402 105 l 1
 410 105 414 109 468 155 c 1
 485 153 l 1
 501 118 l 1
 404 17 365 -12 327 -12 c 0
 298 -12 284 1 284 26 c 0
 284 48 311 163 320 201 c 1x90
EndSplineSet
Validated: 1
EndChar

StartChar: uacute
Encoding: 250 250 212
Width: 508
Flags: MW
HStem: -12 21G<312.5 346> -11 121<124 202.5> 394 59<47 71 37 84> 717 20G<374 374>
LayerCount: 2
Back
Fore
SplineSet
320 201 m 1xb0
 311 202 l 1
 260 95 210 25 161 -11 c 1
 87 -11 43 26 43 84 c 0
 43 139 109 314 109 360 c 0
 109 384 98 394 71 394 c 2
 37 394 l 1
 47 453 l 1
 121 453 238 462 238 462 c 1
 250 446 l 1
 250 446 164 186 164 139 c 0
 164 119 171 110 187 110 c 0x70
 218 110 283 215 345 365 c 1
 359 457 l 1
 374 465 l 1
 456 459 l 1
 469 444 l 1
 469 444 422 267 398 109 c 1
 402 105 l 1
 410 105 414 109 468 155 c 1
 485 153 l 1
 501 118 l 1
 404 17 365 -12 327 -12 c 0
 298 -12 284 1 284 26 c 0
 284 48 311 163 320 201 c 1xb0
441 666 m 1
 440 652 l 1
 440 652 344 592 251 523 c 1
 236 527 l 1
 206 566 l 1
 289 646 374 737 374 737 c 1
 387 736 l 1
 441 666 l 1
EndSplineSet
Validated: 1
EndChar

StartChar: ucircumflex
Encoding: 251 251 213
Width: 508
Flags: MW
HStem: -12 21G<312.5 346> -11 121<124 202.5> 394 59<47 71 37 84> 710 20G<310 330 330 330>
LayerCount: 2
Back
Fore
SplineSet
320 201 m 1xb0
 311 202 l 1
 260 95 210 25 161 -11 c 1
 87 -11 43 26 43 84 c 0
 43 139 109 314 109 360 c 0
 109 384 98 394 71 394 c 2
 37 394 l 1
 47 453 l 1
 121 453 238 462 238 462 c 1
 250 446 l 1
 250 446 164 186 164 139 c 0
 164 119 171 110 187 110 c 0x70
 218 110 283 215 345 365 c 1
 359 457 l 1
 374 465 l 1
 456 459 l 1
 469 444 l 1
 469 444 422 267 398 109 c 1
 402 105 l 1
 410 105 414 109 468 155 c 1
 485 153 l 1
 501 118 l 1
 404 17 365 -12 327 -12 c 0
 298 -12 284 1 284 26 c 0
 284 48 311 163 320 201 c 1xb0
168 535 m 1
 144 576 l 1
 185 609 310 730 310 730 c 1
 330 730 l 1
 330 730 427 609 459 576 c 1
 425 535 l 1
 409 531 l 1
 392 544 317 607 306 614 c 1
 293 607 203 544 184 531 c 1
 168 535 l 1
EndSplineSet
Validated: 1
EndChar

StartChar: udieresis
Encoding: 252 252 214
Width: 508
Flags: MW
HStem: -12 21G<312.5 346> -11 121<124 202.5> 394 59<47 71 37 84> 563 128<209 229 382 403>
LayerCount: 2
Back
Fore
SplineSet
320 201 m 1xb0
 311 202 l 1
 260 95 210 25 161 -11 c 1
 87 -11 43 26 43 84 c 0
 43 139 109 314 109 360 c 0
 109 384 98 394 71 394 c 2
 37 394 l 1
 47 453 l 1
 121 453 238 462 238 462 c 1
 250 446 l 1
 250 446 164 186 164 139 c 0
 164 119 171 110 187 110 c 0x70
 218 110 283 215 345 365 c 1
 359 457 l 1
 374 465 l 1
 456 459 l 1
 469 444 l 1
 469 444 422 267 398 109 c 1
 402 105 l 1
 410 105 414 109 468 155 c 1
 485 153 l 1
 501 118 l 1
 404 17 365 -12 327 -12 c 0
 298 -12 284 1 284 26 c 0
 284 48 311 163 320 201 c 1xb0
381 563 m 0
 346 563 328 584 328 615 c 0
 328 658 360 691 404 691 c 0
 438 691 456 670 456 639 c 0
 456 595 425 563 381 563 c 0
207 563 m 0
 173 563 155 584 155 615 c 0
 155 658 187 691 231 691 c 0
 265 691 282 670 282 639 c 0
 282 595 251 563 207 563 c 0
EndSplineSet
Validated: 1
EndChar

StartChar: ugrave
Encoding: 249 249 215
Width: 508
Flags: MW
HStem: -12 21G<312.5 346> -11 121<124 202.5> 394 59<47 71 37 84> 716 20G<229 229>
LayerCount: 2
Back
Fore
SplineSet
320 201 m 1xb0
 311 202 l 1
 260 95 210 25 161 -11 c 1
 87 -11 43 26 43 84 c 0
 43 139 109 314 109 360 c 0
 109 384 98 394 71 394 c 2
 37 394 l 1
 47 453 l 1
 121 453 238 462 238 462 c 1
 250 446 l 1
 250 446 164 186 164 139 c 0
 164 119 171 110 187 110 c 0x70
 218 110 283 215 345 365 c 1
 359 457 l 1
 374 465 l 1
 456 459 l 1
 469 444 l 1
 469 444 422 267 398 109 c 1
 402 105 l 1
 410 105 414 109 468 155 c 1
 485 153 l 1
 501 118 l 1
 404 17 365 -12 327 -12 c 0
 298 -12 284 1 284 26 c 0
 284 48 311 163 320 201 c 1xb0
163 651 m 1
 161 665 l 1
 216 735 l 1
 229 736 l 1
 229 736 314 646 397 566 c 1
 367 527 l 1
 351 523 l 1
 258 592 163 651 163 651 c 1
EndSplineSet
Validated: 1
EndChar

StartChar: uhungarumlaut
Encoding: 369 369 216
Width: 508
Flags: MW
HStem: -12 21G<312.5 346> -11 121<124 202.5> 394 59<47 71 37 84> 707 20G<304 304 449 449>
LayerCount: 2
Back
Fore
SplineSet
320 201 m 1xb0
 311 202 l 1
 260 95 210 25 161 -11 c 1
 87 -11 43 26 43 84 c 0
 43 139 109 314 109 360 c 0
 109 384 98 394 71 394 c 2
 37 394 l 1
 47 453 l 1
 121 453 238 462 238 462 c 1
 250 446 l 1
 250 446 164 186 164 139 c 0
 164 119 171 110 187 110 c 0x70
 218 110 283 215 345 365 c 1
 359 457 l 1
 374 465 l 1
 456 459 l 1
 469 444 l 1
 469 444 422 267 398 109 c 1
 402 105 l 1
 410 105 414 109 468 155 c 1
 485 153 l 1
 501 118 l 1
 404 17 365 -12 327 -12 c 0
 298 -12 284 1 284 26 c 0
 284 48 311 163 320 201 c 1xb0
361 677 m 1
 362 666 l 1
 362 666 287 602 214 531 c 1
 200 532 l 1
 168 560 l 1
 229 638 293 726 293 726 c 1
 304 727 l 1
 361 677 l 1
506 677 m 1
 507 666 l 1
 507 666 432 602 358 531 c 1
 345 532 l 1
 313 560 l 1
 373 638 437 726 437 726 c 1
 449 727 l 1
 506 677 l 1
EndSplineSet
Validated: 1
EndChar

StartChar: umacron
Encoding: 363 363 217
Width: 508
Flags: MW
HStem: -12 21G<312.5 346> -11 121<124 202.5> 394 59<47 71 37 84> 581 85<271.5 353> 652 20G<452 452>
LayerCount: 2
Back
Fore
SplineSet
320 201 m 1xb0
 311 202 l 1
 260 95 210 25 161 -11 c 1
 87 -11 43 26 43 84 c 0
 43 139 109 314 109 360 c 0
 109 384 98 394 71 394 c 2
 37 394 l 1
 47 453 l 1
 121 453 238 462 238 462 c 1
 250 446 l 1
 250 446 164 186 164 139 c 0
 164 119 171 110 187 110 c 0x68
 218 110 283 215 345 365 c 1
 359 457 l 1
 374 465 l 1
 456 459 l 1
 469 444 l 1
 469 444 422 267 398 109 c 1
 402 105 l 1
 410 105 414 109 468 155 c 1
 485 153 l 1
 501 118 l 1
 404 17 365 -12 327 -12 c 0
 298 -12 284 1 284 26 c 0
 284 48 311 163 320 201 c 1xb0
452 672 m 1
 458 658 l 1
 436 582 l 1
 300 581 l 2
 243 581 166 580 166 580 c 1
 157 591 l 1
 180 667 l 1
 180 667 272 666 329 666 c 0x70
 377 666 452 672 452 672 c 1
EndSplineSet
Validated: 1
EndChar

StartChar: uogonek
Encoding: 371 371 218
Width: 508
Flags: MW
HStem: -241 72<318 387.5> -12 21G<312.5 329> -11 121<124 202.5> 394 59<47 71 37 84> 445 20G<374 374>
LayerCount: 2
Back
Fore
SplineSet
443 -145 m 1xa8
 458 -174 l 1
 458 -174 401 -224 351 -241 c 1
 285 -241 245 -211 245 -159 c 0
 245 -113 276 -71 343 -7 c 1
 336 -10 331 -12 327 -12 c 0xd0
 298 -12 284 1 284 26 c 0
 284 48 311 163 320 201 c 1
 311 202 l 1
 260 95 210 25 161 -11 c 1
 87 -11 43 26 43 84 c 0
 43 139 109 314 109 360 c 0
 109 384 98 394 71 394 c 2
 37 394 l 1
 47 453 l 1xb0
 121 453 238 462 238 462 c 1
 250 446 l 1
 250 446 164 186 164 139 c 0
 164 119 171 110 187 110 c 0
 218 110 283 215 345 365 c 1
 359 457 l 1
 374 465 l 1
 456 459 l 1
 469 444 l 1
 469 444 422 267 398 109 c 1
 402 105 l 1
 410 105 414 109 468 155 c 1
 485 153 l 1
 501 118 l 1
 400 -1 330 -70 330 -127 c 0
 330 -151 346 -169 371 -169 c 0
 404 -169 443 -145 443 -145 c 1xa8
EndSplineSet
Validated: 1
EndChar

StartChar: uring
Encoding: 367 367 219
Width: 508
Flags: MW
HStem: -12 21G<312.5 346> -11 121<124 202.5> 394 59<47 71 37 84> 543 186<293 326> 576 20G<298 313.5> 674 55<296 323>
LayerCount: 2
Back
Fore
SplineSet
320 201 m 1xb0
 311 202 l 1
 260 95 210 25 161 -11 c 1
 87 -11 43 26 43 84 c 0
 43 139 109 314 109 360 c 0
 109 384 98 394 71 394 c 2
 37 394 l 1
 47 453 l 1
 121 453 238 462 238 462 c 1
 250 446 l 1
 250 446 164 186 164 139 c 0
 164 119 171 110 187 110 c 0x6c
 218 110 283 215 345 365 c 1
 359 457 l 1
 374 465 l 1
 456 459 l 1
 469 444 l 1
 469 444 422 267 398 109 c 1
 402 105 l 1
 410 105 414 109 468 155 c 1
 485 153 l 1
 501 118 l 1
 404 17 365 -12 327 -12 c 0
 298 -12 284 1 284 26 c 0
 284 48 311 163 320 201 c 1xb0
306 596 m 0
 321 596 349 602 349 638 c 0
 349 660 336 674 310 674 c 0
 282 674 268 657 268 633 c 0
 268 606 290 596 306 596 c 0
293 543 m 0x70
 243 543 217 575 217 621 c 0
 217 682 262 729 324 729 c 0
 380 729 401 693 401 654 c 0
 401 598 359 543 293 543 c 0x70
EndSplineSet
Validated: 1
EndChar

StartChar: v
Encoding: 118 118 220
Width: 450
Flags: MW
HStem: -11 21G<133 133> 454 20G<414 414>
LayerCount: 2
Back
Fore
SplineSet
246 -6 m 1
 133 -11 l 1
 116 4 l 1
 111 114 94 266 78 357 c 0
 73 384 65 392 44 392 c 0
 32 392 2 389 2 389 c 1
 6 447 l 1
 78 455 183 467 183 467 c 1
 194 458 l 1
 205 357 212 232 211 100 c 1
 224 100 l 1
 289 215 324 298 324 343 c 0
 324 386 290 412 274 417 c 1
 281 449 l 1
 414 474 l 1
 433 457 445 424 445 387 c 0
 445 314 379 184 246 -6 c 1
EndSplineSet
Validated: 33
EndChar

StartChar: w
Encoding: 119 119 221
Width: 682
Flags: MW
HStem: -11 21G<133 133 381 381> 454 20G<409 409 646 646>
LayerCount: 2
Back
Fore
SplineSet
211 100 m 1
 224 100 l 1
 271 188 302 253 318 303 c 1
 298 435 l 1
 307 449 l 1
 409 474 l 1
 428 457 440 425 440 389 c 0
 440 369 437 353 425 319 c 1
 445 100 l 1
 458 100 l 1
 521 215 556 299 556 344 c 0
 556 386 522 412 506 417 c 1
 513 449 l 1
 646 474 l 1
 665 456 677 422 677 385 c 0
 677 314 612 186 480 -6 c 1
 381 -11 l 1
 365 4 l 1
 348 172 l 1
 339 172 l 1
 315 123 281 59 241 -6 c 1
 133 -11 l 1
 116 4 l 1
 111 116 94 268 78 357 c 0
 73 383 65 392 44 392 c 0
 32 392 2 389 2 389 c 1
 6 447 l 1
 78 455 183 467 183 467 c 1
 194 458 l 1
 205 356 212 231 211 100 c 1
EndSplineSet
Validated: 33
EndChar

StartChar: wacute
Encoding: 7811 7811 222
Width: 682
Flags: MW
HStem: -11 21G<133 133 381 381> 717 20G<465 465>
LayerCount: 2
Back
Fore
SplineSet
211 100 m 1
 224 100 l 1
 271 188 302 253 318 303 c 1
 298 435 l 1
 307 449 l 1
 409 474 l 1
 428 457 440 425 440 389 c 0
 440 369 437 353 425 319 c 1
 445 100 l 1
 458 100 l 1
 521 215 556 299 556 344 c 0
 556 386 522 412 506 417 c 1
 513 449 l 1
 646 474 l 1
 665 456 677 422 677 385 c 0
 677 314 612 186 480 -6 c 1
 381 -11 l 1
 365 4 l 1
 348 172 l 1
 339 172 l 1
 315 123 281 59 241 -6 c 1
 133 -11 l 1
 116 4 l 1
 111 116 94 268 78 357 c 0
 73 383 65 392 44 392 c 0
 32 392 2 389 2 389 c 1
 6 447 l 1
 78 455 183 467 183 467 c 1
 194 458 l 1
 205 356 212 231 211 100 c 1
532 666 m 1
 531 652 l 1
 531 652 435 592 342 523 c 1
 327 527 l 1
 297 566 l 1
 380 646 465 737 465 737 c 1
 478 736 l 1
 532 666 l 1
EndSplineSet
Validated: 33
EndChar

StartChar: wcircumflex
Encoding: 373 373 223
Width: 682
Flags: MW
HStem: -11 21G<133 133 381 381> 710 20G<406 426 426 426>
LayerCount: 2
Back
Fore
SplineSet
211 100 m 1
 224 100 l 1
 271 188 302 253 318 303 c 1
 298 435 l 1
 307 449 l 1
 409 474 l 1
 428 457 440 425 440 389 c 0
 440 369 437 353 425 319 c 1
 445 100 l 1
 458 100 l 1
 521 215 556 299 556 344 c 0
 556 386 522 412 506 417 c 1
 513 449 l 1
 646 474 l 1
 665 456 677 422 677 385 c 0
 677 314 612 186 480 -6 c 1
 381 -11 l 1
 365 4 l 1
 348 172 l 1
 339 172 l 1
 315 123 281 59 241 -6 c 1
 133 -11 l 1
 116 4 l 1
 111 116 94 268 78 357 c 0
 73 383 65 392 44 392 c 0
 32 392 2 389 2 389 c 1
 6 447 l 1
 78 455 183 467 183 467 c 1
 194 458 l 1
 205 356 212 231 211 100 c 1
264 535 m 1
 240 576 l 1
 281 609 406 730 406 730 c 1
 426 730 l 1
 426 730 523 609 555 576 c 1
 521 535 l 1
 505 531 l 1
 488 544 413 607 402 614 c 1
 389 607 299 544 280 531 c 1
 264 535 l 1
EndSplineSet
Validated: 33
EndChar

StartChar: wdieresis
Encoding: 7813 7813 224
Width: 682
Flags: MW
HStem: -11 21G<133 133 381 381> 563 128<310 330 483 504>
LayerCount: 2
Back
Fore
SplineSet
211 100 m 1
 224 100 l 1
 271 188 302 253 318 303 c 1
 298 435 l 1
 307 449 l 1
 409 474 l 1
 428 457 440 425 440 389 c 0
 440 369 437 353 425 319 c 1
 445 100 l 1
 458 100 l 1
 521 215 556 299 556 344 c 0
 556 386 522 412 506 417 c 1
 513 449 l 1
 646 474 l 1
 665 456 677 422 677 385 c 0
 677 314 612 186 480 -6 c 1
 381 -11 l 1
 365 4 l 1
 348 172 l 1
 339 172 l 1
 315 123 281 59 241 -6 c 1
 133 -11 l 1
 116 4 l 1
 111 116 94 268 78 357 c 0
 73 383 65 392 44 392 c 0
 32 392 2 389 2 389 c 1
 6 447 l 1
 78 455 183 467 183 467 c 1
 194 458 l 1
 205 356 212 231 211 100 c 1
482 563 m 0
 447 563 429 584 429 615 c 0
 429 658 461 691 505 691 c 0
 539 691 557 670 557 639 c 0
 557 595 526 563 482 563 c 0
308 563 m 0
 274 563 256 584 256 615 c 0
 256 658 288 691 332 691 c 0
 366 691 383 670 383 639 c 0
 383 595 352 563 308 563 c 0
EndSplineSet
Validated: 33
EndChar

StartChar: wgrave
Encoding: 7809 7809 225
Width: 682
Flags: MW
HStem: -11 21G<133 133 381 381> 716 20G<320 320>
LayerCount: 2
Back
Fore
SplineSet
211 100 m 1
 224 100 l 1
 271 188 302 253 318 303 c 1
 298 435 l 1
 307 449 l 1
 409 474 l 1
 428 457 440 425 440 389 c 0
 440 369 437 353 425 319 c 1
 445 100 l 1
 458 100 l 1
 521 215 556 299 556 344 c 0
 556 386 522 412 506 417 c 1
 513 449 l 1
 646 474 l 1
 665 456 677 422 677 385 c 0
 677 314 612 186 480 -6 c 1
 381 -11 l 1
 365 4 l 1
 348 172 l 1
 339 172 l 1
 315 123 281 59 241 -6 c 1
 133 -11 l 1
 116 4 l 1
 111 116 94 268 78 357 c 0
 73 383 65 392 44 392 c 0
 32 392 2 389 2 389 c 1
 6 447 l 1
 78 455 183 467 183 467 c 1
 194 458 l 1
 205 356 212 231 211 100 c 1
254 651 m 1
 252 665 l 1
 307 735 l 1
 320 736 l 1
 320 736 405 646 488 566 c 1
 458 527 l 1
 442 523 l 1
 349 592 254 651 254 651 c 1
EndSplineSet
Validated: 33
EndChar

StartChar: x
Encoding: 120 120 226
Width: 481
Flags: MW
HStem: -12 88<73.5 82> -12 101<281.5 369.5> 373 101<109.5 202>
LayerCount: 2
Back
Fore
SplineSet
424 474 m 0xa0
 455 474 480 462 501 439 c 1
 484 397 467 359 451 327 c 1
 431 327 l 1
 422 365 409 382 389 382 c 0
 361 382 336 348 296 255 c 1
 331 123 344 89 364 89 c 0x60
 375 89 393 101 434 137 c 1
 445 136 l 1
 464 96 l 1
 385 15 344 -12 301 -12 c 0
 262 -12 243 22 207 146 c 1
 156 35 111 -12 53 -12 c 0
 18 -12 -8 1 -22 25 c 1
 -11 61 9 107 28 141 c 1
 48 141 l 1
 50 99 62 76 85 76 c 0
 114 76 145 121 183 213 c 1
 144 349 133 373 115 373 c 0
 104 373 87 360 51 325 c 1
 39 325 l 1
 21 365 l 1
 93 443 140 474 183 474 c 0
 221 474 239 443 273 323 c 1
 322 428 368 474 424 474 c 0xa0
EndSplineSet
Validated: 1
EndChar

StartChar: y
Encoding: 121 121 227
Width: 462
Flags: MW
HStem: -243 98<-13 14> 454 20G<425 425>
LayerCount: 2
Back
Fore
SplineSet
286 417 m 1
 293 449 l 1
 425 474 l 1
 445 457 457 424 457 387 c 0
 457 316 394 192 268 11 c 0
 140 -170 56 -243 -28 -243 c 0
 -76 -243 -120 -220 -128 -192 c 1
 -124 -167 -105 -117 -87 -83 c 1
 -67 -84 l 1
 -59 -120 -30 -145 4 -145 c 0
 46 -145 82 -120 138 -49 c 1
 123 115 104 264 89 357 c 0
 84 383 75 392 53 392 c 0
 42 392 13 389 13 389 c 1
 17 447 l 1
 194 467 l 1
 205 458 l 1
 215 361 220 239 220 89 c 1
 232 89 l 1
 297 202 336 297 336 343 c 0
 336 374 317 401 286 417 c 1
EndSplineSet
Validated: 1
EndChar

StartChar: yacute
Encoding: 253 253 228
Width: 462
Flags: MW
HStem: -243 98<-13 14> 717 20G<349 349>
LayerCount: 2
Back
Fore
SplineSet
286 417 m 1
 293 449 l 1
 425 474 l 1
 445 457 457 424 457 387 c 0
 457 316 394 192 268 11 c 0
 140 -170 56 -243 -28 -243 c 0
 -76 -243 -120 -220 -128 -192 c 1
 -124 -167 -105 -117 -87 -83 c 1
 -67 -84 l 1
 -59 -120 -30 -145 4 -145 c 0
 46 -145 82 -120 138 -49 c 1
 123 115 104 264 89 357 c 0
 84 383 75 392 53 392 c 0
 42 392 13 389 13 389 c 1
 17 447 l 1
 194 467 l 1
 205 458 l 1
 215 361 220 239 220 89 c 1
 232 89 l 1
 297 202 336 297 336 343 c 0
 336 374 317 401 286 417 c 1
416 666 m 1
 415 652 l 1
 415 652 319 592 226 523 c 1
 211 527 l 1
 181 566 l 1
 264 646 349 737 349 737 c 1
 362 736 l 1
 416 666 l 1
EndSplineSet
Validated: 1
EndChar

StartChar: ycircumflex
Encoding: 375 375 229
Width: 462
Flags: MW
HStem: -243 98<-13 14> 710 20G<285 305 305 305>
LayerCount: 2
Back
Fore
SplineSet
286 417 m 1
 293 449 l 1
 425 474 l 1
 445 457 457 424 457 387 c 0
 457 316 394 192 268 11 c 0
 140 -170 56 -243 -28 -243 c 0
 -76 -243 -120 -220 -128 -192 c 1
 -124 -167 -105 -117 -87 -83 c 1
 -67 -84 l 1
 -59 -120 -30 -145 4 -145 c 0
 46 -145 82 -120 138 -49 c 1
 123 115 104 264 89 357 c 0
 84 383 75 392 53 392 c 0
 42 392 13 389 13 389 c 1
 17 447 l 1
 194 467 l 1
 205 458 l 1
 215 361 220 239 220 89 c 1
 232 89 l 1
 297 202 336 297 336 343 c 0
 336 374 317 401 286 417 c 1
143 535 m 1
 119 576 l 1
 160 609 285 730 285 730 c 1
 305 730 l 1
 305 730 402 609 434 576 c 1
 400 535 l 1
 384 531 l 1
 367 544 292 607 281 614 c 1
 268 607 178 544 159 531 c 1
 143 535 l 1
EndSplineSet
Validated: 1
EndChar

StartChar: ydieresis
Encoding: 255 255 230
Width: 462
Flags: MW
HStem: -243 98<-13 14> 563 128<179 199 352 373>
LayerCount: 2
Back
Fore
SplineSet
286 417 m 1
 293 449 l 1
 425 474 l 1
 445 457 457 424 457 387 c 0
 457 316 394 192 268 11 c 0
 140 -170 56 -243 -28 -243 c 0
 -76 -243 -120 -220 -128 -192 c 1
 -124 -167 -105 -117 -87 -83 c 1
 -67 -84 l 1
 -59 -120 -30 -145 4 -145 c 0
 46 -145 82 -120 138 -49 c 1
 123 115 104 264 89 357 c 0
 84 383 75 392 53 392 c 0
 42 392 13 389 13 389 c 1
 17 447 l 1
 194 467 l 1
 205 458 l 1
 215 361 220 239 220 89 c 1
 232 89 l 1
 297 202 336 297 336 343 c 0
 336 374 317 401 286 417 c 1
351 563 m 0
 316 563 298 584 298 615 c 0
 298 658 330 691 374 691 c 0
 408 691 426 670 426 639 c 0
 426 595 395 563 351 563 c 0
177 563 m 0
 143 563 125 584 125 615 c 0
 125 658 157 691 201 691 c 0
 235 691 252 670 252 639 c 0
 252 595 221 563 177 563 c 0
EndSplineSet
Validated: 1
EndChar

StartChar: ygrave
Encoding: 7923 7923 231
Width: 462
Flags: MW
HStem: -243 98<-13 14> 716 20G<194 194>
LayerCount: 2
Back
Fore
SplineSet
286 417 m 1
 293 449 l 1
 425 474 l 1
 445 457 457 424 457 387 c 0
 457 316 394 192 268 11 c 0
 140 -170 56 -243 -28 -243 c 0
 -76 -243 -120 -220 -128 -192 c 1
 -124 -167 -105 -117 -87 -83 c 1
 -67 -84 l 1
 -59 -120 -30 -145 4 -145 c 0
 46 -145 82 -120 138 -49 c 1
 123 115 104 264 89 357 c 0
 84 383 75 392 53 392 c 0
 42 392 13 389 13 389 c 1
 17 447 l 1
 194 467 l 1
 205 458 l 1
 215 361 220 239 220 89 c 1
 232 89 l 1
 297 202 336 297 336 343 c 0
 336 374 317 401 286 417 c 1
128 651 m 1
 126 665 l 1
 181 735 l 1
 194 736 l 1
 194 736 279 646 362 566 c 1
 332 527 l 1
 316 523 l 1
 223 592 128 651 128 651 c 1
EndSplineSet
Validated: 1
EndChar

StartChar: z
Encoding: 122 122 232
Width: 425
Flags: MW
HStem: -12 116<281.5 316.5 281.5 325> 33 71 33 86<100 196> 358 87<267 323.5> 469 20G<380 380>
LayerCount: 2
Back
Fore
SplineSet
100 292 m 1x58
 44 287 l 1
 44 287 71 382 84 463 c 1
 111 474 l 1
 111 474 234 445 311 445 c 0
 336 445 346 449 359 464 c 2
 380 489 l 1
 435 454 l 1
 440 435 l 1
 335 323 227 200 154 114 c 1
 180 119 l 1x38
 212 119 264 104 299 104 c 0
 334 104 360 132 368 179 c 1
 392 178 l 1
 399 161 405 135 405 111 c 0
 405 43 356 -12 294 -12 c 0x98
 233 -12 181 33 116 33 c 0
 84 33 45 20 10 -1 c 1
 -9 29 l 1
 267 358 l 1
 194 359 l 2
 139 359 116 343 100 292 c 1x58
EndSplineSet
Validated: 1
EndChar

StartChar: zacute
Encoding: 378 378 233
Width: 425
Flags: MW
HStem: -12 116<281.5 316.5 281.5 325> 33 71 33 86<100 196> 358 87<267 323.5> 717 20G<341 341>
LayerCount: 2
Back
Fore
SplineSet
100 292 m 1x58
 44 287 l 1
 44 287 71 382 84 463 c 1
 111 474 l 1
 111 474 234 445 311 445 c 0
 336 445 346 449 359 464 c 2
 380 489 l 1
 435 454 l 1
 440 435 l 1
 335 323 227 200 154 114 c 1
 180 119 l 1x38
 212 119 264 104 299 104 c 0
 334 104 360 132 368 179 c 1
 392 178 l 1
 399 161 405 135 405 111 c 0
 405 43 356 -12 294 -12 c 0x98
 233 -12 181 33 116 33 c 0
 84 33 45 20 10 -1 c 1
 -9 29 l 1
 267 358 l 1
 194 359 l 2
 139 359 116 343 100 292 c 1x58
408 666 m 1
 407 652 l 1
 407 652 311 592 218 523 c 1
 203 527 l 1
 173 566 l 1
 256 646 341 737 341 737 c 1
 354 736 l 1
 408 666 l 1
EndSplineSet
Validated: 1
EndChar

StartChar: zcaron
Encoding: 382 382 234
Width: 425
Flags: MW
HStem: -12 116<281.5 316.5 281.5 325> 33 71 33 86<100 196> 358 87<267 323.5> 704 20G<180 180 411 411>
LayerCount: 2
Back
Fore
SplineSet
100 292 m 1x58
 44 287 l 1
 44 287 71 382 84 463 c 1
 111 474 l 1
 111 474 234 445 311 445 c 0
 336 445 346 449 359 464 c 2
 380 489 l 1
 435 454 l 1
 440 435 l 1
 335 323 227 200 154 114 c 1
 180 119 l 1x38
 212 119 264 104 299 104 c 0
 334 104 360 132 368 179 c 1
 392 178 l 1
 399 161 405 135 405 111 c 0
 405 43 356 -12 294 -12 c 0x98
 233 -12 181 33 116 33 c 0
 84 33 45 20 10 -1 c 1
 -9 29 l 1
 267 358 l 1
 194 359 l 2
 139 359 116 343 100 292 c 1x58
129 679 m 1
 164 721 l 1
 180 724 l 1
 219 689 261 657 285 639 c 1
 313 657 364 689 411 724 c 1
 425 721 l 1
 450 679 l 1
 371 609 280 521 280 521 c 1
 260 521 l 1
 260 521 191 609 129 679 c 1
EndSplineSet
Validated: 1
EndChar

StartChar: zdotaccent
Encoding: 380 380 235
Width: 425
Flags: MW
HStem: -12 116<281.5 316.5 281.5 325> 33 71 33 86<100 196> 358 87<267 323.5> 574 152<273.5 297.5>
LayerCount: 2
Back
Fore
SplineSet
100 292 m 1x58
 44 287 l 1
 44 287 71 382 84 463 c 1
 111 474 l 1
 111 474 234 445 311 445 c 0
 336 445 346 449 359 464 c 2
 380 489 l 1
 435 454 l 1
 440 435 l 1
 335 323 227 200 154 114 c 1
 180 119 l 1x38
 212 119 264 104 299 104 c 0
 334 104 360 132 368 179 c 1
 392 178 l 1
 399 161 405 135 405 111 c 0
 405 43 356 -12 294 -12 c 0x98
 233 -12 181 33 116 33 c 0
 84 33 45 20 10 -1 c 1
 -9 29 l 1
 267 358 l 1
 194 359 l 2
 139 359 116 343 100 292 c 1x58
272 574 m 0
 231 574 210 599 210 635 c 0
 210 688 248 726 299 726 c 0
 340 726 361 701 361 664 c 0
 361 612 323 574 272 574 c 0
EndSplineSet
Validated: 1
EndChar

StartChar: florin
Encoding: 402 402 236
Width: 405
Flags: MW
HStem: -161 72<54.5 87 54.5 94.5> 299 64 524 74<305.5 338.5>
LayerCount: 2
Back
Fore
SplineSet
124 0 m 2
 140 264 l 2
 139 296 128 301 65 301 c 1
 62 307 l 1
 69 353 l 1
 146 365 l 1
 151 422 l 2
 155 513 254 598 357 598 c 0
 404 598 452 585 452 568 c 0
 452 548 435 487 424 471 c 1
 409 470 l 1
 383 502 354 524 323 524 c 0
 275 524 268 479 263 419 c 2
 258 363 l 1
 380 364 l 1
 384 359 l 1
 374 298 l 1
 253 300 l 1
 233 37 l 2
 226 -67 146 -161 43 -161 c 0
 2 -161 -45 -141 -45 -120 c 0
 -45 -97 -28 -42 -14 -26 c 1
 0 -26 l 1
 10 -61 38 -89 71 -89 c 0
 103 -89 121 -65 124 0 c 2
EndSplineSet
Validated: 1
EndChar

StartChar: Delta
Encoding: 916 916 237
AltUni2: 002206.ffffffff.0
Width: 588
Flags: MW
HStem: 0 95<136 377 136 531> 634 20G<431 440 440 440>
LayerCount: 2
Back
Fore
SplineSet
-8 0 m 1
 -17 13 l 1
 266 637 l 1
 431 654 l 1
 440 654 l 1
 440 654 492 265 540 7 c 1
 531 0 l 1
 -8 0 l 1
330 519 m 1
 314 519 l 1
 136 95 l 1
 377 95 l 1
 330 519 l 1
EndSplineSet
Validated: 1
EndChar

StartChar: Omega
Encoding: 937 937 238
AltUni2: 002126.ffffffff.0
Width: 828
Flags: MW
HStem: -5 21G<21 21 747 747> 0 80 557 97<398.5 490>
LayerCount: 2
Back
Fore
SplineSet
766 14 m 1x60
 747 -5 l 1
 484 6 l 1
 428 -2 l 1
 418 47 l 1
 528 144 573 249 573 379 c 0
 573 492 529 557 451 557 c 0
 346 557 279 462 279 283 c 0
 279 189 308 101 361 48 c 1
 338 -3 l 1
 284 6 l 1
 21 -5 l 1xa0
 6 14 l 1
 15 96 19 206 19 206 c 1
 91 213 l 1
 88 119 106 86 161 83 c 2
 230 79 l 1
 164 144 128 232 128 324 c 0
 128 511 276 654 467 654 c 0
 625 654 733 557 733 414 c 0
 733 284 665 166 550 78 c 1
 628 83 l 2
 681 86 707 117 729 206 c 1
 802 213 l 1
 802 213 777 96 766 14 c 1x60
EndSplineSet
Validated: 33
EndChar

StartChar: mu
Encoding: 181 181 239
AltUni2: 0003bc.ffffffff.0
Width: 515
Flags: MW
HStem: -242 21G<-13 -13> -12 104<356 452> -11 21G<169.5 180> 454 20G<218 218>
LayerCount: 2
Back
Fore
SplineSet
83 450 m 1xb0
 218 474 l 1
 225 457 l 1
 201 413 163 182 163 157 c 0
 163 116 179 94 215 94 c 0
 247 94 288 127 295 131 c 1
 319 335 l 2
 325 382 321 432 321 432 c 1
 331 449 l 1
 471 472 l 1
 479 455 l 1
 460 424 412 164 412 126 c 0
 412 105 422 92 441 92 c 0
 463 92 487 109 487 109 c 1
 500 88 l 1
 500 88 435 0 385 -12 c 1xd0
 327 -12 294 13 295 63 c 1
 287 67 l 1
 258 38 207 -6 180 -11 c 0
 159 -11 143 -4 132 6 c 1
 127 3 l 1
 114 -91 l 2
 106 -142 106 -213 106 -213 c 1
 98 -222 l 1
 -13 -242 l 1
 -22 -229 l 1
 -22 -229 7 -88 31 73 c 2
 70 327 l 2
 77 381 74 433 74 433 c 1
 83 450 l 1xb0
EndSplineSet
Validated: 33
EndChar

StartChar: pi
Encoding: 960 960 240
Width: 601
Flags: MW
HStem: -98 21G<72 72> -12 104<395.5 523> 421 74 485 20G<110 164.5 612 612>
LayerCount: 2
Back
Fore
SplineSet
452 155 m 0xe0
 452 108 471 92 523 92 c 1
 531 77 l 1
 529 60 454 -12 438 -12 c 0
 353 -12 319 29 331 119 c 2
 365 369 l 2
 370 412 366 418 316 418 c 0
 271 418 266 414 259 374 c 0
 247 299 219 106 210 33 c 0
 204 -15 201 -66 201 -66 c 1
 192 -76 l 1
 72 -98 l 1
 66 -84 l 1
 74 -68 137 335 137 380 c 0
 137 405 130 412 111 412 c 0
 84 412 42 362 42 362 c 1
 34 361 l 1
 9 403 l 1
 10 411 l 1
 94 498 l 1
 110 505 l 1xd0
 219 505 383 495 440 495 c 0xe0
 509 495 612 505 612 505 c 1xd0
 617 498 l 1
 595 428 l 1
 588 421 l 1
 514 421 498 412 488 366 c 0
 470 280 452 191 452 155 c 0xe0
EndSplineSet
Validated: 33
EndChar

StartChar: zero
Encoding: 48 48 241
Width: 481
Flags: MW
HStem: -12 131<191.5 277 191.5 277> 374 136<211 292>
VStem: 22 84<199 276.5 199 288> 379 85<215.5 293.5>
LayerCount: 2
Back
Fore
SplineSet
200 -12 m 0
 87 -12 22 67 22 196 c 0
 22 380 134 510 288 510 c 0
 400 510 464 431 464 304 c 0
 464 119 354 -12 200 -12 c 0
231 119 m 0
 323 119 379 173 379 258 c 0
 379 329 332 374 252 374 c 0
 161 374 106 319 106 234 c 0
 106 164 152 119 231 119 c 0
EndSplineSet
Validated: 1
EndChar

StartChar: one
Encoding: 49 49 242
Width: 353
Flags: MW
HStem: 0 65 490 20G<310.5 311>
LayerCount: 2
Back
Fore
SplineSet
271 402 m 0
 252 311 226 189 226 111 c 0
 226 78 237 65 262 65 c 0
 285 65 309 68 309 68 c 1
 311 63 l 1
 292 -4 l 1
 292 -4 202 0 153 0 c 0
 92 0 -1 -12 0 -11 c 2
 14 52 l 1
 80 58 104 78 111 144 c 2
 138 359 l 2
 144 407 131 416 96 416 c 0
 78 416 48 411 48 411 c 1
 43 418 l 1
 56 475 l 1
 79 477 129 483 175 490 c 0
 270 503 310 510 311 510 c 2
 318 480 l 1
 293 461 282 443 271 402 c 0
EndSplineSet
Validated: 33
EndChar

StartChar: two
Encoding: 50 50 243
Width: 467
Flags: MW
HStem: -9 21G<-8 -8 384 384> 0 21G<55 101> 404 106<170.5 297>
LayerCount: 2
Back
Fore
SplineSet
-8 -9 m 1xa0
 -12 24 l 1
 70 107 l 2
 192 233 240 302 241 351 c 0
 243 385 225 404 189 404 c 0
 152 404 108 375 73 327 c 1
 60 327 l 1
 51 401 l 1
 110 468 186 510 255 510 c 0
 339 510 393 464 393 395 c 0
 393 330 366 285 179 101 c 1
 183 93 l 1
 270 93 l 2
 329 93 351 113 372 184 c 1
 450 191 l 1
 450 191 416 84 400 3 c 1
 384 -9 l 1xa0
 384 -9 147 0 55 0 c 1x60
 -8 -9 l 1xa0
EndSplineSet
Validated: 33
EndChar

StartChar: three
Encoding: 51 51 244
Width: 418
Flags: MW
HStem: -100 103<63.5 121.5 63.5 123> 414 96<171 282.5>
LayerCount: 2
Back
Fore
SplineSet
-17 2 m 1
 -2 16 l 1
 21 7 48 3 79 3 c 0
 164 3 230 47 230 108 c 0
 230 156 188 178 99 178 c 1
 91 188 l 1
 92 250 l 1
 156 264 l 1
 205 286 239 326 239 366 c 0
 239 395 218 414 187 414 c 0
 155 414 114 395 76 365 c 0
 73 365 68 364 64 364 c 2
 52 435 l 1
 84 457 177 510 242 510 c 0
 323 510 374 469 374 406 c 0
 374 345 324 287 249 257 c 1
 248 249 l 1
 326 227 367 185 367 129 c 0
 367 19 197 -100 49 -100 c 0
 -6 -100 -22 -72 -17 2 c 1
EndSplineSet
Validated: 33
EndChar

StartChar: four
Encoding: 52 52 245
Width: 454
Flags: MW
HStem: -100 21G 69 88 488 20G<294 295> 490 20G<299.5 300>
LayerCount: 2
Back
Fore
SplineSet
-17 73 m 1xd0
 -14 95 -9 118 -6 140 c 1
 294 508 l 2xe0
 296 508 299 510 300 510 c 2
 384 499 l 1
 342 157 l 1
 420 157 l 1
 427 146 l 1
 408 63 l 1
 408 63 377 64 332 66 c 1
 324 -7 320 -79 320 -79 c 1
 311 -88 l 1
 194 -100 l 1
 188 -90 l 1
 188 -90 202 -3 213 69 c 1
 138 71 52 73 -17 73 c 1xd0
237 335 m 1
 97 157 l 1
 224 157 l 1
 247 335 l 1
 237 335 l 1
EndSplineSet
Validated: 1
EndChar

StartChar: five
Encoding: 53 53 246
Width: 412
Flags: MW
HStem: -100 103<53.5 111> 386 104 518 20G<417 417>
LayerCount: 2
Back
Fore
SplineSet
361 145 m 0
 361 20 184 -100 38 -100 c 0
 -13 -100 -34 -76 -28 2 c 1
 -13 16 l 1
 11 7 38 3 69 3 c 0
 155 3 223 46 223 107 c 0
 223 154 178 179 54 198 c 1
 47 209 l 1
 76 340 100 479 100 479 c 1
 108 487 l 1
 296 494 l 2
 333 496 347 504 362 534 c 1
 417 538 l 1
 374 391 l 1
 360 378 l 1
 360 378 274 386 170 386 c 1
 152 294 l 1
 285 270 361 228 361 145 c 0
EndSplineSet
Validated: 33
EndChar

StartChar: six
Encoding: 54 54 247
Width: 448
Flags: MW
HStem: -12 81<189 241 189 255> 273 88<213.5 326> 578 20G<408 408>
LayerCount: 2
Back
Fore
SplineSet
430 538 m 1
 430 538 269 480 191 330 c 1
 194 324 l 1
 204 327 256 357 279 361 c 1
 373 361 423 293 423 212 c 0
 423 85 325 -12 185 -12 c 0
 81 -12 21 64 21 173 c 0
 21 498 408 598 408 598 c 1
 417 593 l 1
 430 538 l 1
230 273 m 0
 197 273 166 255 151 245 c 1
 146 219 141 199 141 173 c 0
 141 109 166 69 212 69 c 0
 270 69 300 114 300 184 c 0
 300 235 275 273 230 273 c 0
EndSplineSet
Validated: 1
EndChar

StartChar: seven
Encoding: 55 55 248
Width: 413
Flags: MW
HStem: -100 21G<139 156 139 139> 390 108 482 20G<81 81>
LayerCount: 2
Back
Fore
SplineSet
156 -100 m 1xc0
 139 -100 l 1
 53 -73 l 1
 45 -48 l 1
 312 394 l 1
 186 386 l 2
 124 381 111 366 91 298 c 1
 31 292 l 1
 31 292 58 406 74 497 c 1
 81 502 l 1xa0
 81 502 138 498 198 498 c 2
 408 498 l 1
 441 450 l 1
 323 247 264 132 201 13 c 1
 156 -100 l 1xc0
EndSplineSet
Validated: 1
EndChar

StartChar: eight
Encoding: 56 56 249
Width: 462
Flags: MW
HStem: -12 74<187.5 235 187.5 250.5> 519 79<244 284.5>
LayerCount: 2
Back
Fore
SplineSet
22 117 m 0
 22 208 99 256 148 278 c 1
 106 308 71 348 71 411 c 0
 71 512 169 598 289 598 c 0
 372 598 441 550 441 472 c 0
 441 393 382 346 337 323 c 1
 381 294 419 255 419 191 c 0
 419 79 314 -12 187 -12 c 0
 93 -12 22 38 22 117 c 0
211 62 m 0
 259 62 299 98 299 147 c 0
 299 193 250 218 198 247 c 1
 172 230 134 200 134 145 c 0
 134 100 164 62 211 62 c 0
191 446 m 0
 191 403 233 379 280 353 c 1
 302 371 328 400 328 448 c 0
 328 494 303 519 266 519 c 0
 222 519 191 485 191 446 c 0
EndSplineSet
Validated: 1
EndChar

StartChar: nine
Encoding: 57 57 250
Width: 448
Flags: MW
HStem: -101 21G<46 46> 137 88<127 239> 429 81<212.5 264.5>
LayerCount: 2
Back
Fore
SplineSet
23 -40 m 1
 23 -40 184 17 262 167 c 1
 258 174 l 1
 249 171 197 140 174 137 c 0
 80 137 31 205 31 286 c 0
 31 413 128 510 268 510 c 0
 372 510 433 434 433 325 c 0
 433 0 46 -101 46 -101 c 1
 37 -95 l 1
 23 -40 l 1
223 225 m 0
 255 225 287 243 301 252 c 1
 308 279 311 303 311 324 c 0
 311 389 287 429 242 429 c 0
 183 429 153 384 153 313 c 0
 153 262 178 225 223 225 c 0
EndSplineSet
Validated: 1
EndChar

StartChar: fraction
Encoding: 8260 8260 251
Width: 155
Flags: MW
HStem: -93 21G<-163 -163> 658 20G<236 236>
LayerCount: 2
Back
Fore
SplineSet
298 653 m 1
 305 634 l 1
 305 634 129 367 39 227 c 0
 -51 83 -163 -93 -163 -93 c 1
 -228 -66 l 1
 -233 -52 l 1
 -233 -52 -112 128 -26 264 c 2
 236 678 l 1
 298 653 l 1
EndSplineSet
Validated: 1
EndChar

StartChar: zero.lf
Encoding: 65549 -1 252
Width: 493
Flags: MW
HStem: -12 127<200.5 283 200.5 285> 465 133<226 307>
VStem: 32 90<216.5 325.5 216.5 334.5>
LayerCount: 2
Back
Fore
SplineSet
206 -12 m 0
 95 -12 32 76 32 224 c 0
 32 445 147 598 305 598 c 0
 414 598 477 509 477 364 c 0
 477 142 364 -12 206 -12 c 0
237 115 m 0
 329 115 386 190 386 317 c 0
 386 409 344 465 270 465 c 0
 177 465 122 389 122 262 c 0
 122 171 164 115 237 115 c 0
EndSplineSet
Validated: 1
EndChar

StartChar: one.lf
Encoding: 65550 -1 253
Width: 353
Flags: MW
HStem: -11 21G<-1 -1> 0 65 484 20G<98.5 125.5> 578 20G<321.5 322>
LayerCount: 2
Back
Fore
SplineSet
283 490 m 0xb0
 265 409 227 150 227 111 c 0
 227 78 237 65 263 65 c 0
 286 65 310 68 310 68 c 1
 312 63 l 1
 293 -4 l 1
 293 -4 203 0 154 0 c 0x70
 92 0 -1 -11 -1 -11 c 1
 15 52 l 1
 75 57 104 76 110 129 c 2
 149 447 l 2
 155 496 143 504 108 504 c 0
 89 504 59 499 59 499 c 1
 54 506 l 1
 67 564 l 1
 89 565 140 571 185 578 c 0
 280 591 321 598 322 598 c 2
 330 569 l 1
 305 549 293 531 283 490 c 0xb0
EndSplineSet
Validated: 33
EndChar

StartChar: two.lf
Encoding: 65551 -1 254
Width: 478
Flags: MW
HStem: -10 21G<0 0> 0 94<74 280> 485 113<235 240>
LayerCount: 2
Back
Fore
SplineSet
0 -10 m 1xa0
 -3 47 l 1
 124 174 l 1
 227 287 281 377 281 431 c 0
 281 467 260 485 220 485 c 0
 172 485 122 454 79 395 c 1
 66 395 l 1
 58 475 l 1
 111 547 199 598 271 598 c 0
 365 598 425 549 425 473 c 0
 425 389 367 301 177 102 c 1
 181 94 l 1
 280 94 l 2
 339 94 359 113 382 185 c 1
 459 192 l 1
 459 192 424 84 408 3 c 1
 392 -9 l 1
 392 -9 166 0 74 0 c 1x60
 0 -10 l 1xa0
EndSplineSet
Validated: 1
EndChar

StartChar: three.lf
Encoding: 65552 -1 255
Width: 420
Flags: MW
HStem: -12 103<89.5 144 89.5 146.5> 502 96<187.5 296.5>
LayerCount: 2
Back
Fore
SplineSet
8 90 m 1
 23 104 l 1
 48 96 75 91 104 91 c 0
 184 91 244 132 244 190 c 0
 244 240 203 263 114 263 c 1
 105 273 l 1
 105 334 l 1
 170 349 l 1
 220 371 254 412 254 453 c 0
 254 483 234 502 203 502 c 0
 172 502 129 486 92 459 c 1
 79 459 l 1
 68 530 l 1
 99 549 192 598 257 598 c 0
 336 598 388 555 388 492 c 0
 388 430 338 372 264 341 c 1
 263 332 l 1
 342 307 380 265 380 205 c 0
 380 98 219 -12 74 -12 c 0
 19 -12 3 16 8 90 c 1
EndSplineSet
Validated: 33
EndChar

StartChar: four.lf
Encoding: 65553 -1 256
Width: 454
Flags: MW
HStem: -11 21G<201 201> 157 87 579 20G<307 307>
LayerCount: 2
Back
Fore
SplineSet
-9 159 m 1
 2 226 l 1
 300 597 l 1
 307 599 l 1
 391 588 l 1
 349 244 l 1
 426 244 l 1
 433 232 l 1
 414 150 l 1
 338 152 l 1
 330 81 326 9 326 9 c 1
 318 1 l 1
 201 -11 l 1
 194 -1 l 1
 194 -1 209 84 219 155 c 1
 -9 159 l 1
243 424 m 1
 104 244 l 1
 230 244 l 1
 253 424 l 1
 243 424 l 1
EndSplineSet
Validated: 1
EndChar

StartChar: five.lf
Encoding: 65554 -1 257
Width: 414
Flags: MW
HStem: -12 103<81 137 81 138> 475 103 606 20G<434 434>
LayerCount: 2
Back
Fore
SplineSet
372 221 m 0
 372 104 210 -12 66 -12 c 0
 12 -12 -5 15 -1 90 c 1
 15 104 l 1
 39 96 66 91 96 91 c 0
 178 91 236 134 236 194 c 0
 236 246 185 272 67 280 c 1
 60 291 l 1
 87 425 111 567 111 567 c 1
 120 575 l 1
 313 582 l 2
 350 584 364 592 378 622 c 1
 434 626 l 1
 390 479 l 1
 376 467 l 1
 376 467 285 475 181 475 c 1
 162 372 l 1
 308 354 372 307 372 221 c 0
EndSplineSet
Validated: 33
EndChar

